<svg xmlns="http://www.w3.org/2000/svg" version="1.1" xmlns:xlink="http://www.w3.org/1999/xlink" width="512" height="512" x="0" y="0" viewBox="0 0 512 512" style="enable-background:new 0 0 512 512" xml:space="preserve" class=""><g><path fill="#49658c" d="M256 482c-60.367 0-117.121-23.508-159.806-66.194S30 316.367 30 256 53.508 138.879 96.194 96.194 195.633 30 256 30v30C147.925 60 60 147.925 60 256s87.925 196 196 196z" opacity="1" data-original="#49658c"></path><path fill="#38336b" d="M256 60c108.075 0 196 87.925 196 196s-87.925 196-196 196v30c60.367 0 117.121-23.508 159.806-66.194S482 316.367 482 256s-23.508-117.121-66.194-159.806S316.367 30 256 30z" opacity="1" data-original="#38336b" class=""></path><circle cx="467" cy="256" r="45" fill="#ffad5a" opacity="1" data-original="#ffad5a" class=""></circle><circle cx="45" cy="256" r="45" fill="#ffd45b" opacity="1" data-original="#ffd45b" class=""></circle><path fill="#ffd45b" d="M256 0c-24.813 0-45 20.187-45 45s20.187 45 45 45l16-45z" opacity="1" data-original="#ffd45b" class=""></path><path fill="#ffad5a" d="M256 90c24.813 0 45-20.187 45-45S280.813 0 256 0z" opacity="1" data-original="#ffad5a" class=""></path><path fill="#ffd45b" d="M256 422c-24.813 0-45 20.187-45 45s20.187 45 45 45l16-45z" opacity="1" data-original="#ffd45b" class=""></path><path fill="#dadada" d="M256 121c-26.666 0-50.182 16.462-60.031 40.221A55.777 55.777 0 0 0 191 161c-30.327 0-55 24.673-55 55s24.673 55 55 55h65l16-75z" opacity="1" data-original="#fff4f4" class=""></path><path fill="#a061e2" d="M286 391c-8.284 0-15-6.716-15-15v-60c0-11.98 13.352-19.126 23.32-12.481l30 20c6.893 4.595 8.756 13.908 4.16 20.801-4.595 6.893-13.908 8.755-20.801 4.16L301 344.028V376c0 8.284-6.716 15-15 15z" opacity="1" data-original="#a061e2"></path><path fill="#dd78ef" d="m217.68 388.481-30-20c-6.893-4.595-8.756-13.908-4.16-20.801 4.595-6.893 13.908-8.755 20.801-4.16l6.679 4.453V316c0-8.284 6.716-15 15-15 8.284 0 15 6.716 15 15v60c0 11.98-13.352 19.126-23.32 12.481z" opacity="1" data-original="#dd78ef"></path><circle cx="405.2" cy="106.8" r="45" fill="#ffad5a" opacity="1" data-original="#ffad5a" class=""></circle><circle cx="106.8" cy="405.2" r="45" fill="#ffd45b" opacity="1" data-original="#ffd45b" class=""></circle><circle cx="106.8" cy="106.8" r="45" fill="#ffd45b" opacity="1" data-original="#ffd45b" class=""></circle><circle cx="405.2" cy="405.2" r="45" fill="#ffad5a" opacity="1" data-original="#ffad5a" class=""></circle><path fill="#ffad5a" d="M256 512c24.813 0 45-20.187 45-45s-20.187-45-45-45z" opacity="1" data-original="#ffad5a" class=""></path><path fill="#c9c9c9" d="M256 271h65c30.327 0 55-24.673 55-55s-24.673-55-55-55c-1.668 0-3.325.074-4.969.221C306.182 137.462 282.666 121 256 121z" opacity="1" data-original="#ebebf0" class=""></path></g></svg>