<svg xmlns="http://www.w3.org/2000/svg" version="1.1" xmlns:xlink="http://www.w3.org/1999/xlink" width="512" height="512" x="0" y="0" viewBox="0 0 512 512" style="enable-background:new 0 0 512 512" xml:space="preserve" class=""><g><path fill="#fff4f4" d="M60 181h91v30H60zM211 151h-30V60h-81V30h96c8.284 0 15 6.716 15 15z" opacity="1" data-original="#fff4f4"></path><g fill="#ebebf0"><path d="M361 301h91v30h-91zM412 482h-96c-8.284 0-15-6.716-15-15V361h30v91h81zM301 60h30v91h-30zM467 211H361v-30h91v-81h30v96c0 8.284-6.716 15-15 15z" fill="#ebebf0" opacity="1" data-original="#ebebf0"></path></g><path fill="#fff4f4" d="M181 361h30v91h-30zM60 412H30v-96c0-8.284 6.716-15 15-15h106v30H60z" opacity="1" data-original="#fff4f4"></path><path fill="#49658c" d="M256 121H136c-8.284 0-15 6.716-15 15v240c0 8.284 6.716 15 15 15h120l24-135z" opacity="1" data-original="#49658c"></path><path fill="#38336b" d="M256 391h120c8.284 0 15-6.716 15-15V136c0-8.284-6.716-15-15-15H256z" opacity="1" data-original="#38336b"></path><path fill="#ffd45b" d="M256 181h-60c-8.284 0-15 6.716-15 15v120c0 8.284 6.716 15 15 15h60l24-75z" opacity="1" data-original="#ffd45b"></path><path fill="#ffad5a" d="M256 331h60c8.284 0 15-6.716 15-15V196c0-8.284-6.716-15-15-15h-60z" opacity="1" data-original="#ffad5a"></path><circle cx="45" cy="427" r="45" fill="#dd78ef" opacity="1" data-original="#dd78ef"></circle><circle cx="45" cy="196" r="45" fill="#dd78ef" opacity="1" data-original="#dd78ef"></circle><circle cx="85" cy="45" r="45" fill="#dd78ef" opacity="1" data-original="#dd78ef"></circle><circle cx="316" cy="45" r="45" fill="#a061e2" opacity="1" data-original="#a061e2"></circle><circle cx="467" cy="85" r="45" fill="#a061e2" opacity="1" data-original="#a061e2"></circle><circle cx="467" cy="316" r="45" fill="#a061e2" opacity="1" data-original="#a061e2"></circle><circle cx="427" cy="467" r="45" fill="#a061e2" opacity="1" data-original="#a061e2"></circle><circle cx="196" cy="467" r="45" fill="#dd78ef" opacity="1" data-original="#dd78ef"></circle></g></svg>