<svg xmlns="http://www.w3.org/2000/svg" version="1.1" xmlns:xlink="http://www.w3.org/1999/xlink" width="512" height="512" x="0" y="0" viewBox="0 0 512 512" style="enable-background:new 0 0 512 512" xml:space="preserve" class=""><g><path fill="#49658c" d="M241 150v142h15l10-71-10-71z" opacity="1" data-original="#49658c"></path><path fill="#38336b" d="M256 150h15v142h-15z" opacity="1" data-original="#38336b"></path><path fill="#00e4ef" d="m244.002 267.999-.002.003a85 85 0 0 1-68 34h-10.003c-8.282 0-14.997 6.714-14.997 14.997v41.513c0 65.751 38.823 125.491 98.908 152.195A14.991 14.991 0 0 0 256 512l20-123-20-127c-4.499 0-8.998 2-11.998 5.999z" opacity="1" data-original="#00e4ef" class=""></path><path fill="#2ebeef" d="M346.003 302.002H336a85 85 0 0 1-68-34l-.002-.003C264.998 264 260.499 262 256 262v250c2.076 0 4.153-.431 6.092-1.293C322.177 484.003 361 424.263 361 358.512v-41.513c0-8.283-6.714-14.997-14.997-14.997z" opacity="1" data-original="#2ebeef"></path><path fill="#fff4f4" d="M181 331.892v26.62c0 51.65 29.224 98.778 75 121.892L276 398l-20-98.411c-20.091 19.394-46.889 31.061-75 32.303z" opacity="1" data-original="#fff4f4" class=""></path><path fill="#ebebf0" d="M256 299.589v180.814c45.776-23.113 75-70.241 75-121.892v-26.62c-28.111-1.241-54.909-12.908-75-32.302z" opacity="1" data-original="#ebebf0" class=""></path><path fill="#dd78ef" d="M104.544 56.571C63.567 93.451 41 142.612 41 195v.002c0 13.665 16.781 20.212 26.035 10.158l.001-.001C81.97 188.935 101.727 180 122.667 180s40.696 8.935 55.63 25.158c5.941 6.455 16.13 6.455 22.072 0C215.303 188.935 235.06 180 256 180l20-90-20-90c-57.134 0-110.922 20.091-151.456 56.571z" opacity="1" data-original="#dd78ef"></path><path fill="#a061e2" d="M407.456 56.571C366.922 20.091 313.134 0 256 0v180c20.94 0 40.697 8.935 55.631 25.159 5.942 6.455 16.13 6.455 22.072 0 14.934-16.224 34.69-25.159 55.63-25.159s40.697 8.935 55.631 25.159l.001.001c9.254 10.053 26.035 3.506 26.035-10.158V195c0-52.388-22.567-101.549-63.544-138.429z" opacity="1" data-original="#a061e2" class=""></path><path fill="#49658c" d="m246 385.787-9.394-9.394c-5.858-5.858-15.355-5.858-21.213 0s-5.858 15.355 0 21.213l20 20c5.66 5.66 14.717 5.851 20.606.574L269 388l-13-12.213z" opacity="1" data-original="#49658c"></path><path fill="#38336b" d="M296.606 356.394c-5.858-5.858-15.355-5.858-21.213 0L256 375.787v42.393c.206-.185.408-.376.606-.574l40-40c5.858-5.857 5.858-15.355 0-21.212z" opacity="1" data-original="#38336b"></path></g></svg>