<svg xmlns="http://www.w3.org/2000/svg" version="1.1" xmlns:xlink="http://www.w3.org/1999/xlink" width="512" height="512" x="0" y="0" viewBox="0 0 512 512" style="enable-background:new 0 0 512 512" xml:space="preserve" class=""><g><path fill="#49658c" d="M256 215h-15v66H75c-8.284 0-15 6.716-15 15v81h30v-66h151v66h15l14-81z" opacity="1" data-original="#49658c"></path><path fill="#38336b" d="M256 377h15v-66h151v66h30v-81c0-8.284-6.716-15-15-15H271v-66h-15z" opacity="1" data-original="#38336b"></path><path fill="#ffd45b" d="m256 362 24 75-24 75h-60c-8.284 0-15-6.716-15-15V377c0-8.284 6.716-15 15-15z" opacity="1" data-original="#ffd45b"></path><path fill="#ffad5a" d="M256 362h60c8.284 0 15 6.716 15 15v120c0 8.284-6.716 15-15 15h-60z" opacity="1" data-original="#ffad5a"></path><path fill="#fff4f4" d="m256 407 16 30-16 30c-16.569 0-30-13.431-30-30s13.431-30 30-30z" opacity="1" data-original="#fff4f4"></path><path fill="#ebebf0" d="M256 407c16.569 0 30 13.431 30 30s-13.431 30-30 30z" opacity="1" data-original="#ebebf0" class=""></path><path fill="#ffd45b" d="m75 362 24 75-24 75H15c-8.284 0-15-6.716-15-15V377c0-8.284 6.716-15 15-15z" opacity="1" data-original="#ffd45b"></path><path fill="#ffad5a" d="M75 362h60c8.284 0 15 6.716 15 15v120c0 8.284-6.716 15-15 15H75z" opacity="1" data-original="#ffad5a"></path><path fill="#fff4f4" d="m75 407 16 30-16 30c-16.569 0-30-13.431-30-30s13.431-30 30-30z" opacity="1" data-original="#fff4f4"></path><path fill="#ebebf0" d="M75 407c16.569 0 30 13.431 30 30s-13.431 30-30 30z" opacity="1" data-original="#ebebf0" class=""></path><path fill="#ffd45b" d="M256 115H121v60c0 37.789 69.98 55 135 55l16-57.5z" opacity="1" data-original="#ffd45b"></path><path fill="#ffad5a" d="M256 115v115c65.02 0 135-17.211 135-55v-60z" opacity="1" data-original="#ffad5a"></path><path fill="#ffad5a" d="M256 55H121v60c0 37.789 69.98 55 135 55l24-57.5z" opacity="1" data-original="#ffad5a"></path><path fill="#ff7e65" d="M256 170c65.02 0 135-17.211 135-55V55H256z" opacity="1" data-original="#ff7e65"></path><path fill="#ffd45b" d="M256 0c-65.02 0-135 17.211-135 55s69.98 55 135 55l32-55z" opacity="1" data-original="#ffd45b"></path><path fill="#ffad5a" d="M256 110c65.02 0 135-17.211 135-55S321.02 0 256 0z" opacity="1" data-original="#ffad5a"></path><path fill="#ffd45b" d="m437 362 24 75-24 75h-60c-8.284 0-15-6.716-15-15V377c0-8.284 6.716-15 15-15z" opacity="1" data-original="#ffd45b"></path><path fill="#ffad5a" d="M437 362h60c8.284 0 15 6.716 15 15v120c0 8.284-6.716 15-15 15h-60z" opacity="1" data-original="#ffad5a"></path><path fill="#fff4f4" d="m437 407 16 30-16 30c-16.569 0-30-13.431-30-30s13.431-30 30-30z" opacity="1" data-original="#fff4f4"></path><path fill="#ebebf0" d="M437 407c16.569 0 30 13.431 30 30s-13.431 30-30 30z" opacity="1" data-original="#ebebf0" class=""></path></g></svg>