<?xml version="1.0" encoding="utf-8"?>
<!-- Generator: Adobe Illustrator 26.5.0, SVG Export Plug-In . SVG Version: 6.00 Build 0)  -->
<svg version="1.1" id="Layer_1" xmlns="http://www.w3.org/2000/svg" xmlns:xlink="http://www.w3.org/1999/xlink" x="0px" y="0px"
	 viewBox="0 0 512 512" style="enable-background:new 0 0 512 512;" xml:space="preserve">
<style type="text/css">
	.st0{fill:#E9E9E0;}
	.st1{fill:#D9D7CA;}
	.st2{fill:#2663BC;}
	.st3{fill:#FFFFFF;}
</style>
<g>
	<path class="st0" d="M338.1,0H72.8c-7.4,0-13.4,6-13.4,17.6v485.2c0,3.2,6,9.1,13.4,9.1h366.4c7.4,0,13.4-6,13.4-9.1V118.7
		c0-6.4-0.9-8.4-2.3-9.9L343.8,2.3C342.3,0.8,340.3,0,338.1,0z"/>
	<path class="st1" d="M342.9,1.4v108.3h108.3L342.9,1.4z"/>
	<path class="st2" d="M169.1,118.9h-54.9c-5,0-9.1-4.1-9.1-9.1c0-5,4.1-9.1,9.1-9.1h54.9c5,0,9.1,4.1,9.1,9.1
		C178.3,114.8,174.2,118.9,169.1,118.9z M196.6,164.6h-82.3c-5,0-9.1-4.1-9.1-9.1s4.1-9.1,9.1-9.1h82.3c5,0,9.1,4.1,9.1,9.1
		S201.6,164.6,196.6,164.6z M233.1,164.6c-2.4,0-4.8-1-6.5-2.7c-1.6-1.7-2.7-4.1-2.7-6.5s1-4.8,2.7-6.5c3.4-3.4,9.6-3.4,13,0
		c1.6,1.7,2.7,4.1,2.7,6.5c0,2.4-1,4.8-2.7,6.5C237.9,163.6,235.5,164.6,233.1,164.6L233.1,164.6z M342.9,164.6h-73.1
		c-5,0-9.1-4.1-9.1-9.1s4.1-9.1,9.1-9.1h73.1c5,0,9.1,4.1,9.1,9.1S347.9,164.6,342.9,164.6z M114.3,301.7c-2.4,0-4.8-1-6.5-2.7
		c-1.6-1.7-2.7-4.1-2.7-6.5s1-4.8,2.7-6.5c3.4-3.4,9.6-3.4,13,0c1.6,1.7,2.7,4,2.7,6.5c0,2.4-1,4.8-2.7,6.5
		C119,300.7,116.7,301.7,114.3,301.7z M224,301.7h-73.1c-5,0-9.1-4.1-9.1-9.1s4.1-9.1,9.1-9.1H224c5,0,9.1,4.1,9.1,9.1
		S229,301.7,224,301.7z M397.7,164.6h-18.3c-5,0-9.1-4.1-9.1-9.1s4.1-9.1,9.1-9.1h18.3c5,0,9.1,4.1,9.1,9.1S402.8,164.6,397.7,164.6
		z M315.4,210.3H114.3c-5,0-9.1-4.1-9.1-9.1s4.1-9.1,9.1-9.1h201.1c5,0,9.1,4.1,9.1,9.1S320.5,210.3,315.4,210.3z M397.7,210.3
		h-54.9c-5,0-9.1-4.1-9.1-9.1s4.1-9.1,9.1-9.1h54.9c5,0,9.1,4.1,9.1,9.1S402.8,210.3,397.7,210.3z M150.9,256h-36.6
		c-5,0-9.1-4.1-9.1-9.1c0-5,4.1-9.1,9.1-9.1h36.6c5,0,9.1,4.1,9.1,9.1C160,251.9,155.9,256,150.9,256z M278.9,256h-91.4
		c-5,0-9.1-4.1-9.1-9.1c0-5,4.1-9.1,9.1-9.1h91.4c5,0,9.1,4.1,9.1,9.1C288,251.9,283.9,256,278.9,256z M397.7,256h-82.3
		c-5,0-9.1-4.1-9.1-9.1c0-5,4.1-9.1,9.1-9.1h82.3c5,0,9.1,4.1,9.1,9.1C406.9,251.9,402.8,256,397.7,256z"/>
	<path class="st2" d="M439.2,512H72.8c-7.4,0-13.4-6-13.4-13.4l0,0V356.6h393.1v142.1C452.6,506,446.6,512,439.2,512z"/>
	<path class="st3" d="M214.9,435.9c0,7.6-0.8,14.1-2.4,19.4c-1.6,5.4-3.7,9.9-6.2,13.5s-5.3,6.5-8.4,8.6c-3.1,2.1-6.1,3.6-9.1,4.7
		c-2.6,1-5.3,1.6-8,2c-2.4,0.3-4.2,0.4-5.4,0.4h-34.9v-92.1h27.7c7.8,0,14.6,1.2,20.4,3.7c5.9,2.5,10.8,5.7,14.6,9.8
		c3.9,4.1,6.8,8.7,8.7,13.9C213.9,425.1,214.9,430.4,214.9,435.9L214.9,435.9z M170.4,473.6c10.2,0,17.5-3.2,22-9.7
		s6.7-15.9,6.7-28.3c0-3.8-0.5-7.6-1.4-11.4c-0.9-3.7-2.7-7.1-5.3-10.2s-6.2-5.5-10.7-7.4s-10.3-2.8-17.5-2.8h-8.7v69.8L170.4,473.6
		L170.4,473.6z M306.1,438.1c0,7.8-1,14.6-2.9,20.5s-4.7,10.8-8.1,14.7c-3.5,3.9-7.5,6.9-12.1,8.9c-4.6,2-9.7,3-15.2,3
		c-5.5,0-10.6-1-15.2-3c-4.6-2-8.7-5-12.1-8.9c-3.5-3.9-6.2-8.8-8.1-14.7s-2.9-12.8-2.9-20.5c0-7.7,1-14.6,2.9-20.4
		c2-5.9,4.7-10.8,8.1-14.7c3.5-3.9,7.5-6.9,12.1-8.9c4.6-2,9.7-3.1,15.2-3.1c5.5,0,10.6,1,15.2,3.1c4.6,2,8.7,5,12.1,8.9
		c3.5,3.9,6.2,8.8,8.1,14.7C305.1,423.5,306.1,430.3,306.1,438.1z M267.3,473c3.1,0,6-0.6,8.8-1.8c2.8-1.2,5.3-3.2,7.5-5.9
		c2.2-2.8,3.9-6.4,5.2-10.8c1.2-4.5,1.9-9.9,2-16.3c-0.1-6.3-0.7-11.6-1.9-15.9c-1.2-4.4-2.9-8-5-10.8s-4.5-4.9-7.3-6.1
		c-2.7-1.2-5.6-1.9-8.6-1.9c-3.1,0-6,0.6-8.8,1.7c-3,1.3-5.5,3.3-7.5,5.9c-2.2,2.8-3.9,6.4-5.2,10.8c-1.2,4.4-1.9,9.8-2,16.2
		c0.1,6.3,0.7,11.6,1.9,16c1.2,4.4,2.9,8,5,10.8c2.1,2.8,4.5,4.8,7.3,6.1C261.4,472.3,264.3,473,267.3,473z M389.5,475.2
		c-3.3,3.3-7.3,5.8-11.6,7.5c-4.5,1.7-9.2,2.5-14,2.5c-5.5,0-10.6-1-15.2-3c-4.6-2-8.7-5-12.1-8.9c-3.5-3.9-6.2-8.8-8.1-14.7
		c-2-5.9-2.9-12.8-2.9-20.5c0-7.7,1-14.6,2.9-20.4c2-5.9,4.7-10.8,8.1-14.7c3.4-3.8,7.5-6.9,12.2-8.9c4.8-2.1,9.9-3.1,15.1-3.1
		c5,0,9.7,0.8,14,2.5c4.3,1.7,8.2,4.2,11.6,7.5l-10.4,9.3c-3.7-4.4-9.1-7-14.9-6.9c-3.1,0-6,0.6-8.8,1.7c-3,1.3-5.5,3.3-7.5,5.9
		c-2.2,2.8-3.9,6.4-5.2,10.8s-1.9,9.8-2,16.2c0.1,6.3,0.7,11.6,1.9,16c1.2,4.4,2.9,8,5,10.8c2.1,2.8,4.5,4.8,7.3,6.1
		c2.7,1.3,5.6,1.9,8.6,1.9c3,0,5.8-0.5,8.4-1.6s5-2.8,7.2-5.2L389.5,475.2L389.5,475.2z"/>
</g>
</svg>
