<svg xmlns="http://www.w3.org/2000/svg" version="1.1" xmlns:xlink="http://www.w3.org/1999/xlink" width="512" height="512" x="0" y="0" viewBox="0 0 512 512" style="enable-background:new 0 0 512 512" xml:space="preserve" class=""><g><path fill="#49658c" d="M181.045 220.874a14.999 14.999 0 0 0-14.415 2.413l-100 80c-6.469 5.175-7.518 14.614-2.343 21.083 5.175 6.469 14.614 7.518 21.083 2.343l93.466-74.772L256 279.499 266 267l-10-19.356zM15 482c-8.284 0-15 6.716-15 15s6.716 15 15 15h241l10-15-10-15z" opacity="1" data-original="#49658c"></path><path fill="#38336b" d="M497 482H256v30h241c8.284 0 15-6.716 15-15s-6.716-15-15-15zM328.255 293.65l99.228-140.574 4.164 23.617c1.438 8.158 9.219 13.606 17.377 12.167s13.605-9.219 12.167-17.377l-10.419-59.089c-1.438-8.158-9.218-13.606-17.377-12.167l-59.089 10.419c-8.158 1.439-13.606 9.219-12.167 17.377s9.219 13.606 17.377 12.167l23.233-4.097-92.434 130.947L256 247.644v31.855l54.955 19.627a15 15 0 0 0 17.3-5.476z" opacity="1" data-original="#38336b"></path><path fill="#dd78ef" d="M106 360H46c-8.284 0-15 6.716-15 15v62c0 8.284 6.716 15 15 15h60c8.284 0 15-6.716 15-15v-62c0-8.284-6.716-15-15-15z" opacity="1" data-original="#dd78ef"></path><path fill="#ffd45b" d="M226 310h-60c-8.284 0-15 6.716-15 15v112c0 8.284 6.716 15 15 15h60c8.284 0 15-6.716 15-15V325c0-8.284-6.716-15-15-15z" opacity="1" data-original="#ffd45b"></path><path fill="#2ebeef" d="M346 340h-60c-8.284 0-15 6.716-15 15v82c0 8.284 6.716 15 15 15h60c8.284 0 15-6.716 15-15v-82c0-8.284-6.716-15-15-15z" opacity="1" data-original="#2ebeef"></path><path fill="#ffad5a" d="M466 240h-60c-8.284 0-15 6.716-15 15v182c0 8.284 6.716 15 15 15h60c8.284 0 15-6.716 15-15V255c0-8.284-6.716-15-15-15z" opacity="1" data-original="#ffad5a"></path><circle cx="132.5" cy="132.5" r="132.5" fill="#fff4f4" opacity="1" data-original="#fff4f4"></circle><g fill="#dd78ef"><path d="M177.438 95.127c-1.216-23.425-20.551-42.146-44.018-42.618-22.785-.445-42.342 16.193-45.487 38.733a45.392 45.392 0 0 0-.434 6.258c0 8.284 6.716 15 15 15s15-6.716 15-15c0-.709.049-1.419.146-2.111 1.047-7.499 7.566-13.046 15.171-12.886 7.687.154 14.264 6.516 14.662 14.179.217 4.17-1.24 8.126-4.102 11.14-2.864 3.018-6.727 4.679-10.877 4.679-8.284 0-15 6.716-15 15v25c0 8.284 6.716 15 15 15s15-6.716 15-15v-12.593a45.133 45.133 0 0 0 17.633-11.43c8.583-9.04 12.953-20.884 12.306-33.351z" fill="#dd78ef" opacity="1" data-original="#dd78ef"></path><circle cx="132.499" cy="197.5" r="15" fill="#dd78ef" opacity="1" data-original="#dd78ef"></circle></g></g></svg>