<svg xmlns="http://www.w3.org/2000/svg" version="1.1" xmlns:xlink="http://www.w3.org/1999/xlink" width="512" height="512" x="0" y="0" viewBox="0 0 512 512" style="enable-background:new 0 0 512 512" xml:space="preserve" class=""><g><path fill="#ffa2ff" d="M175 0c-36.971 0-67.779 26.887-73.896 62.135C60.822 68.788 30 103.862 30 146c0 1.06.02 2.118.059 3.173L40 159l-2.685 21.512.017.039C14.652 197.929 0 225.285 0 256l125 32 125-47V75c0-41.355-33.645-75-75-75z" opacity="1" data-original="#ffa2ff"></path><path fill="#dd78ef" d="M0 256a94.875 94.875 0 0 0 37.318 75.48C32.502 342.281 30 353.991 30 366c0 42.138 30.821 77.213 71.104 83.865l.001.005L115 461v20l-.705-.002C127.939 499.772 150.068 512 175 512c41.355 0 75-33.645 75-75V271l-45-15z" opacity="1" data-original="#dd78ef"></path><path fill="#dd78ef" d="M250 241h-15c-24.853 0-45-20.147-45-45 0-8.284-6.716-15-15-15-8.284 0-15 6.716-15 15 0 24.507 11.815 46.305 30.048 60L215 266l35-10z" opacity="1" data-original="#dd78ef"></path><path fill="#a061e2" d="M190.048 256C171.815 269.695 160 291.493 160 316c0 8.284 6.716 15 15 15 8.284 0 15-6.716 15-15 0-24.853 20.147-45 45-45h15v-15z" opacity="1" data-original="#a061e2"></path><path fill="#ffad5a" d="m356 448 21.619 16.214L350 479.781l-40-22.545V371h15c8.284 0 15-6.716 15-15 0-8.284-6.716-15-15-15h-15v-40h25c8.284 0 15-6.716 15-15 0-8.284-6.716-15-15-15h-40c-8.284 0-15 6.716-15 15v180a15 15 0 0 0 7.635 13.067l55 31a14.999 14.999 0 0 0 14.73 0l55-31c9.433-5.317 10.297-18.571 1.635-25.067l-40-30c-6.627-4.971-16.029-3.627-21 3s-3.627 16.029 3 21z" opacity="1" data-original="#ffad5a"></path><path fill="#ffad5a" d="m486.393 385.393-30.469 30.469L410 378.827V306c0-8.284-6.716-15-15-15-8.284 0-15 6.716-15 15v80a15 15 0 0 0 5.584 11.676l62 50c5.967 4.812 14.603 4.351 20.023-1.07l40-40c5.858-5.858 5.858-15.355 0-21.213-5.858-5.858-15.356-5.858-21.214 0z" opacity="1" data-original="#ffad5a"></path><path fill="#ffd45b" d="m482 256 15 16 15-16v-30c0-3.978-1.58-7.794-4.393-10.607l-45-45c-5.858-5.858-15.355-5.858-21.213 0s-5.858 15.355 0 21.213L482 232.213z" opacity="1" data-original="#ffd45b" class=""></path><path fill="#ffad5a" d="M482 256v43.787l-35.607 35.607c-5.858 5.858-5.858 15.355 0 21.213s15.355 5.858 21.213 0l40-40A14.998 14.998 0 0 0 512 306v-50z" opacity="1" data-original="#ffad5a"></path><g fill="#ffd45b"><path d="m406.213 226-35.607-35.607c-5.858-5.858-15.355-5.858-21.213 0-5.858 5.858-5.858 15.355 0 21.213l40 40A14.998 14.998 0 0 0 400 256h32c8.284 0 15-6.716 15-15 0-8.284-6.716-15-15-15z" fill="#ffd45b" opacity="1" data-original="#ffd45b" class=""></path><path d="M310 151h85c3.978 0 7.794-1.58 10.607-4.393L431.213 121H467c8.284 0 15-6.716 15-15 0-8.284-6.716-15-15-15h-42c-3.978 0-7.794 1.58-10.607 4.393L388.787 121H310V60.902L332.611 30H350v46c0 8.284 6.716 15 15 15 8.284 0 15-6.716 15-15V30h18.926l27.637 26.774c5.95 5.764 15.446 5.613 21.211-.337 5.764-5.95 5.613-15.446-.337-21.21l-32-31A14.999 14.999 0 0 0 405 0h-80a14.999 14.999 0 0 0-12.105 6.142l-30 41A15.001 15.001 0 0 0 280 56v170c0 8.284 6.716 15 15 15 8.284 0 15-6.716 15-15z" fill="#ffd45b" opacity="1" data-original="#ffd45b" class=""></path></g><path fill="#a061e2" d="M95 131c-23.783 0-46.015 6.642-64.941 18.173a84.466 84.466 0 0 0 7.257 31.34C53.309 168.273 73.305 161 95 161c8.284 0 15-6.716 15-15s-6.716-15-15-15z" opacity="1" data-original="#a061e2"></path><path fill="#dd78ef" d="M95 131c-23.783 0-46.015 6.642-64.941 18.173a84.466 84.466 0 0 0 7.257 31.34C53.309 168.273 73.305 161 95 161c8.284 0 15-6.716 15-15s-6.716-15-15-15z" opacity="1" data-original="#dd78ef"></path><path fill="#a061e2" d="M115 451a85.65 85.65 0 0 1-13.895-1.13 74.632 74.632 0 0 0 13.19 31.128L115 481c25.507 0 49.074-8.304 68.146-22.357 7.415-5.463 8.276-16.221 1.764-22.734a14.993 14.993 0 0 0-19.505-1.461C151.302 444.852 133.869 451 115 451z" opacity="1" data-original="#a061e2"></path></g></svg>