<?xml version="1.0" encoding="utf-8"?>
<!-- Generator: Adobe Illustrator 26.5.0, SVG Export Plug-In . SVG Version: 6.00 Build 0)  -->
<svg version="1.1" id="Layer_1" xmlns="http://www.w3.org/2000/svg" xmlns:xlink="http://www.w3.org/1999/xlink" x="0px" y="0px"
	 viewBox="0 0 512 512" style="enable-background:new 0 0 512 512;" xml:space="preserve">
<style type="text/css">
	.st0{fill:#8DB9FF;}
	.st1{fill:#70ABF2;}
	.st2{fill:#FF7E7B;}
	.st3{fill:#FF6464;}
	.st4{fill:#FFE177;}
	.st5{fill:#FFD15B;}
	.st6{fill:#FFFFFF;}
	.st7{fill:#46178F;}
</style>
<g>
	<path class="st0" d="M407.9,111.2H171c-9.4,0-17.1-7.7-17.1-17.1v-77C153.9,7.7,161.6,0,171,0h236.9c9.4,0,17.1,7.7,17.1,17.1v77
		C425,103.5,417.3,111.2,407.9,111.2L407.9,111.2z"/>
	<path class="st1" d="M188.1,94.1v-77c0-9.4,7.7-17.1,17.1-17.1H171c-9.4,0-17.1,7.7-17.1,17.1v77c0,9.4,7.7,17.1,17.1,17.1h34.2
		C195.8,111.2,188.1,103.5,188.1,94.1z"/>
	<path class="st2" d="M407.9,268.1H171c-9.4,0-17.1-7.7-17.1-17.1v-77c0-9.4,7.7-17.1,17.1-17.1h236.9c9.4,0,17.1,7.7,17.1,17.1v77
		C425,260.4,417.3,268.1,407.9,268.1z"/>
	<path class="st3" d="M188.1,251v-77c0-9.4,7.7-17.1,17.1-17.1H171c-9.4,0-17.1,7.7-17.1,17.1v77c0,9.4,7.7,17.1,17.1,17.1h34.2
		C195.8,268.1,188.1,260.4,188.1,251z"/>
	<path class="st4" d="M407.9,425H171c-9.4,0-17.1-7.7-17.1-17.1v-77c0-9.4,7.7-17.1,17.1-17.1h236.9c9.4,0,17.1,7.7,17.1,17.1v77
		C425,417.3,417.3,425,407.9,425z"/>
	<path class="st5" d="M188.1,407.9v-77c0-9.4,7.7-17.1,17.1-17.1H171c-9.4,0-17.1,7.7-17.1,17.1v77c0,9.4,7.7,17.1,17.1,17.1h34.2
		C195.8,425,188.1,417.3,188.1,407.9z"/>
	<path class="st0" d="M94.1,0h-77C7.7,0,0,7.7,0,17.1v77c0,9.4,7.7,17.1,17.1,17.1h77c9.4,0,17.1-7.7,17.1-17.1v-77
		C111.2,7.7,103.5,0,94.1,0z M85.5,85.5H25.7V25.7h59.9v59.8H85.5z"/>
	<path class="st2" d="M94.1,156.9h-77C7.7,156.9,0,164.6,0,174v77c0,9.4,7.7,17.1,17.1,17.1h77c9.4,0,17.1-7.7,17.1-17.1v-77
		C111.2,164.6,103.5,156.9,94.1,156.9z M85.5,242.4H25.7v-59.9h59.9v59.9H85.5z"/>
	<path class="st4" d="M94.1,313.8h-77c-9.4,0-17.1,7.7-17.1,17.1v77c0,9.4,7.7,17.1,17.1,17.1h77c9.4,0,17.1-7.7,17.1-17.1v-77
		C111.2,321.5,103.5,313.8,94.1,313.8z M85.5,399.3H25.7v-59.9h59.9v59.9H85.5z"/>
	<g>
		<path class="st6" d="M386.3,40.4H192.5c-3.4,0-6.2-2.8-6.2-6.2s2.8-6.2,6.2-6.2h193.8c3.4,0,6.2,2.8,6.2,6.2
			S389.8,40.4,386.3,40.4z M289.4,83.2h-96.9c-3.4,0-6.2-2.8-6.2-6.2s2.8-6.2,6.2-6.2h96.9c3.4,0,6.2,2.8,6.2,6.2
			S292.9,83.2,289.4,83.2z M386.3,197.3H192.5c-3.4,0-6.2-2.8-6.2-6.2s2.8-6.2,6.2-6.2h193.8c3.4,0,6.2,2.8,6.2,6.2
			C392.6,194.5,389.8,197.3,386.3,197.3z M289.4,240.1h-96.9c-3.4,0-6.2-2.8-6.2-6.2s2.8-6.2,6.2-6.2h96.9c3.4,0,6.2,2.8,6.2,6.2
			C295.7,237.3,292.9,240.1,289.4,240.1z M386.3,354.2H192.5c-3.4,0-6.2-2.8-6.2-6.2s2.8-6.2,6.2-6.2h193.8c3.4,0,6.2,2.8,6.2,6.2
			S389.8,354.2,386.3,354.2z M289.4,397h-96.9c-3.4,0-6.2-2.8-6.2-6.2c0-3.4,2.8-6.2,6.2-6.2h96.9c3.4,0,6.2,2.8,6.2,6.2
			C295.7,394.2,292.9,397,289.4,397z"/>
	</g>
</g>
<g id="g14">
	<g id="g20" transform="translate(104,31.4004)">
		<path id="path22" class="st7" d="M93.1,427.8l0.5-28.4c-15.4-2.2-15.7,18.4-15.7,18.4C79.4,431,93.1,427.8,93.1,427.8 M68.3,363.4
			c0,0,37.2-16.4,41.6,13.1l-0.6,63.5H81.1c0,0-12.4,0.5-16.2-13.2c0,0-9.6-34.9,28.1-41.5l0.1-8.5c0,0-7.1-7.6-19.8,0L68.3,363.4z
			 M408,335.2l-14.8,94.4l-23.6-101.7L408,335.2z M336.2,335l-0.3,26.6l20.9,1.4v13l-20.3,1.1l1.7,39.4c0,0,0.1,3.1,6.5,3.1
			s12.3-3.5,12.3-3.5v20.1c0.3,6.1-8.4,8.7-8.4,8.7c-27.9,4.1-25.9-14.2-25.9-14.2l-0.9-50.9h-13.1l-3.1-21.4l16.2,0.6V329
			L336.2,335z M384.8,436.8h12.6l4.8,13.8l-11.2,6.7l-11.4-7.9L384.8,436.8z M132.6,362.7c20.2-6.4,31-6.3,33.9,23.2l7.2,50.3h-19.1
			l-1.2-29.2l-1.8-20.7c-0.5-14.5-13.7-10.9-17.7-9.1l1,58.9l-18.3-0.7l-3-114l18.6-4.9L132.6,362.7z M72.9,350.9l-26.7,29.3
			l17.7,63.8H44.7l-14.2-48.9l-13.4,12.9l0.2,36l-21.7-0.7V340.5l21.7-5.5v43.8l36.7-35.1L72.9,350.9z M274.9,419.4
			c9.7,1.1,17.9-7.7,17.3-18.7c-0.6-11.2-5.1-18.1-14.2-18.3c-9.1-0.2-14.6,10.2-13.6,22.3C265.3,413.9,271.1,419,274.9,419.4
			 M277.1,367.6c17.6,0.4,32.7,15.1,33.7,32.9c1.1,17.9-13.1,33.8-31.8,35.7c-18.7,1.9-33.7-12.8-33.7-32.9
			C245.3,383.2,259.5,367.3,277.1,367.6 M220.7,402.8c-0.7,9.3-6.6,14.3-10.4,14.7c-9.7,1.1-17.9-7.6-17.3-18.7
			c0.6-11.2,5.1-18.1,14.2-18.3C216.2,380.3,221.7,390.7,220.7,402.8 M208.2,365.8c-17.5,0.3-32.6,15.1-33.7,32.9
			c-1,17.9,13.2,33.8,31.8,35.7c18.7,1.9,33.7-12.9,33.7-32.9C239.9,381.5,225.7,365.5,208.2,365.8"/>
	</g>
</g>
</svg>
