<?xml version="1.0" encoding="UTF-8"?>
<svg id="Layer_2" data-name="Layer 2" xmlns="http://www.w3.org/2000/svg" viewBox="0 0 829.7 507.32">
  <defs>
    <style>
      .cls-1 {
        fill: #fff;
      }

      .cls-2 {
        fill: #d57b6c;
      }

      .cls-3 {
        fill: #cb4f53;
      }

      .cls-4 {
        fill: #23293f;
      }

      .cls-5 {
        fill: #3750b7;
      }

      .cls-6 {
        fill: #dc9474;
      }

      .cls-7 {
        fill: #d88780;
      }

      .cls-8 {
        fill: #e4a963;
      }

      .cls-9 {
        fill: #c3c8e8;
      }

      .cls-10 {
        fill: #2740a1;
      }

      .cls-11 {
        fill: #9ca5d9;
      }

      .cls-12 {
        fill: #dc9373;
      }

      .cls-13 {
        fill: #e3ac92;
      }

      .cls-14 {
        fill: #191d2c;
      }
    </style>
  </defs>
  <g id="OBJECTS">
    <path class="cls-9" d="M829.7,0c-15.69,144.44-57.46,186.09-99.61,199.93-37.37,12.27-71.64,6.95-128.23,10.68-47.2,3.11-76.25,24.55-100.95,51.59-24.71,27.04-48.44,88.57-61.87,117.28-16.57,35.42-56.15,62.83-108.11,83.95-30.71,12.48-109.87,19.73-129.7,19.73-18.48,0-86.74,3.67-111.62-9.76-44.24-23.88-55.03-34.03-89.61-108.55v142.47H829.7V0Z"/>
    <path class="cls-11" d="M482.21,507.32h347.49v-230.59c-10.02,9.84-21.53,17.99-34.49,23.43-58.09,24.39-125.88-10.55-187.14,4.16-35.61,8.56-65.81,33.72-85.66,64.51-19.84,30.79-30.15,66.86-35.56,103.09-1.73,11.56-3.11,23.47-4.64,35.4Z"/>
    <g>
      <path class="cls-5" d="M507.11,369.51c-.12,1.52,7.39,7.97,8.68,8.8,1.29,.82,6.45-3.52,5.63-5.28-.82-1.76-7.39-7.97-8.56-8.56-1.17-.59-5.98,3.87-5.86,5.51"/>
      <circle class="cls-4" cx="498.16" cy="355.42" r="19.84"/>
      <circle class="cls-5" cx="498.16" cy="355.42" r="14.09"/>
      <path class="cls-4" d="M521.83,370.12c-2.76-.36-8.53,4.87-8.7,8.87-.17,4,12.35,13.48,14.96,13.83,2.61,.35,7.66-4.7,7.57-7.57s-10.53-14.7-13.83-15.14Z"/>
      <path class="cls-1" d="M500.83,346.69c-.09-.11-.08-.48-.13-.63-.04-.12-.1-.24-.17-.36-.21-.34-.59-.65-.95-.84-.62-.33-1.47-.39-2.16-.43-1.17-.06-2.43,.18-3.55,.51-1.09,.32-2.22,.77-3.16,1.41-1.05,.71-2.31,1.75-2,3.19,.06,.29,.33,.53,.61,.61,1.09,.31,2.08-.4,3.02-.85,.23-.11,.45-.22,.68-.33,.04-.02,.08-.04,.1-.05,.09-.03,.17-.07,.26-.1,.47-.18,.96-.32,1.45-.43,.22-.05,.44-.09,.66-.13,.03,0,.06-.01,.08-.01,0,0,.01,0,.02,0,.11,0,.22-.02,.33-.03,.48-.04,.95-.03,1.42-.03,.58,0,1.25,.07,1.81-.05,.27-.06,.58-.16,.81-.29,.15-.09,.31-.21,.43-.33,.08-.08,.19-.33,.31-.36,.23-.05,.25-.32,.13-.47Z"/>
      <path class="cls-1" d="M507.05,348.27c-.04-.09-.09-.17-.15-.25-.08-.11-.16-.23-.26-.32-.11-.11-.21-.17-.34-.23-.16-.07-.33-.15-.5-.19-.17-.04-.35-.07-.53-.08-.23-.01-.47,.09-.64,.25-.14,.05-.25,.12-.34,.24-.09,.12-.16,.27-.15,.42,0,.22,.12,.43,.29,.56h0c.06,.11,.14,.2,.24,.27l-.03-.02c.08,.06,.14,.13,.21,.21,.06,.09,.12,.18,.21,.25,.07,.06,.13,.12,.18,.19-.04-.05-.08-.1-.12-.15,.07,.12,.16,.22,.27,.3,.11,.1,.23,.17,.38,.2,.15,.05,.3,.05,.45,.02,.15,0,.29-.05,.42-.13,.24-.15,.45-.38,.51-.67,.01-.1,.03-.2,.04-.3,0-.2-.05-.39-.15-.56Z"/>
    </g>
    <g>
      <g>
        <path class="cls-4" d="M534.89,430.98c-.27-.05-.53-.14-.78-.28-.61-.36-1.31-.73-1.92-1.19-4.54,4.38-10.62,7.84-17.7,9.68-7.35,1.91-14.62,1.75-20.88-.05-.39,.64-.79,1.27-1.22,1.88-.04,.07-.09,.13-.13,.2-.04,.06-.08,.12-.12,.19-.02,.03-.04,.05-.05,.08,0,0,0,0,0,0-.07,.1-.16,.21-.23,.31,6.98,2.05,15.11,2.25,23.34,.12,7.93-2.05,14.73-5.96,19.78-10.88-.03-.02-.05-.03-.08-.04Z"/>
        <path class="cls-4" d="M521.12,464.78c7.12-1.84,14.15-1.76,20.27-.11,.6-.87,1.16-1.77,1.71-2.67-6.83-1.88-14.72-1.99-22.68,.07-8.13,2.11-15.08,6.16-20.17,11.27,.73,.51,1.67,1.16,2.4,1.9,4.62-4.74,10.99-8.51,18.48-10.45Z"/>
        <path class="cls-4" d="M510.72,424.69c-15.33,3.97-24.53,19.62-20.56,34.95,3.97,15.33,19.62,24.53,34.95,20.56,15.33-3.97,24.53-19.62,20.56-34.95-3.97-15.33-19.62-24.53-34.95-20.56Zm31.85,19.94l-8.41,2.18c-2.67-9.21-7.75-16.51-13.38-20.07,9.91,1.11,18.63,7.93,21.78,17.89Zm-32.45-16.76l6.12,23.59-12.81,3.32c-2.85-12.52,.04-23.96,6.69-26.91Zm6.81,26.26l6.12,23.59c-7.25,.65-15.33-7.94-18.92-20.27l12.81-3.32Zm8.79,22.9l-6.12-23.59,12.81-3.32c2.85,12.52-.04,23.96-6.69,26.91Zm-6.81-26.26l-6.12-23.59c7.25-.65,15.33,7.94,18.92,20.27l-12.81,3.32Zm-15.99-19.39c-3.19,5.85-4.08,14.7-1.94,24.04l-8.41,2.18c-2.09-10.24,2.22-20.43,10.35-26.22Zm-9.65,28.89l8.41-2.18c2.67,9.21,7.75,16.51,13.38,20.07-9.91-1.11-18.63-7.93-21.78-17.89Zm39.66,13.26c3.19-5.85,4.08-14.7,1.94-24.04l8.41-2.18c2.09,10.24-2.22,20.43-10.35,26.22Z"/>
      </g>
      <path class="cls-3" d="M497.55,436.63c-.09-.2-.17-.41-.26-.61-.13-.17-.27-.35-.4-.52-.07-.09-.16-.15-.26-.2-.08-.08-.17-.15-.27-.21-.01,0-.03-.01-.04-.02-.21-.09-.42-.18-.63-.27-.23-.03-.47-.06-.7-.09-.36-.01-.7,.06-1.01,.23-.22,.06-.42,.18-.58,.34-.2,.12-.35,.27-.47,.47-.16,.16-.28,.36-.34,.58-.12,.21-.18,.43-.18,.66-.08,.35-.06,.7,.05,1.05,.09,.21,.18,.42,.27,.63,.14,.18,.27,.35,.41,.53l.53,.41c.21,.09,.42,.18,.63,.27l.7,.09c.36,.01,.7-.06,1.01-.23,.22-.06,.42-.18,.58-.34,.29-.19,.51-.43,.68-.74,0-.01,.01-.02,.02-.03,0,0,0-.01,0-.02,.02-.05,.25-.57,.26-.63,0-.02,.09-.67,.09-.69l-.09-.68Z"/>
      <path class="cls-8" d="M509.44,454.43c-.1-.36-.28-.66-.54-.93-.14-.11-.28-.22-.43-.33-.33-.19-.68-.29-1.06-.29-.29-.01-.56,.05-.81,.18-.26,.08-.49,.23-.68,.43-.2,.19-.35,.42-.43,.68-.13,.25-.19,.52-.18,.81,.02,.19,.05,.37,.07,.56,.1,.36,.28,.66,.54,.93,.14,.11,.28,.22,.43,.33,.33,.19,.68,.29,1.06,.29,.29,.01,.56-.05,.81-.18,.26-.08,.49-.23,.68-.43,.2-.19,.35-.42,.43-.68,.13-.25,.19-.52,.18-.81-.02-.19-.05-.37-.07-.56Z"/>
      <path class="cls-3" d="M508.6,476.7c-.06-.23-.18-.43-.35-.6-.09-.07-.18-.14-.28-.21-.21-.12-.44-.19-.69-.19-.19,0-.36,.03-.53,.12-.17,.06-.32,.15-.44,.28-.13,.12-.23,.27-.28,.44-.09,.16-.12,.34-.12,.53,.02,.12,.03,.24,.05,.36,.06,.23,.18,.43,.35,.6,.09,.07,.18,.14,.28,.21,.21,.12,.44,.19,.69,.19,.19,0,.36-.03,.53-.12,.17-.06,.32-.15,.44-.28,.13-.12,.23-.27,.28-.44,.09-.16,.12-.34,.12-.53-.02-.12-.03-.24-.05-.36Z"/>
      <path class="cls-8" d="M522.89,438.43c0-.15-.04-.29-.11-.42-.07-.21-.18-.38-.34-.53-.11-.09-.22-.17-.34-.26-.14-.08-.29-.14-.45-.18-.03,0-.06-.01-.08-.02-.3-.08-.59-.08-.89,0-.13,.06-.27,.11-.4,.17-.25,.15-.45,.35-.6,.6-.12,.19-.19,.4-.2,.62-.05,.22-.04,.45,.03,.67,.05,.22,.15,.41,.3,.57,.12,.18,.28,.33,.47,.43,.26,.15,.54,.23,.85,.23,.02,0,.05,0,.07,0,.01,0,.02,0,.04,0,.16-.02,.32-.04,.47-.06,.22-.05,.4-.15,.56-.3,.18-.12,.32-.27,.43-.47,.06-.13,.11-.26,.17-.4,.07-.22,.08-.44,.03-.66Z"/>
      <path class="cls-3" d="M544.95,443.41c-.14-.48-.38-.9-.73-1.26-.19-.15-.39-.3-.58-.45-.45-.26-.93-.39-1.44-.39-.39-.02-.76,.07-1.1,.25-.35,.12-.66,.31-.92,.59-.28,.26-.48,.57-.59,.92-.18,.34-.26,.71-.25,1.1,.03,.25,.07,.51,.1,.76,.14,.48,.38,.9,.73,1.26,.19,.15,.39,.3,.58,.45,.45,.26,.93,.39,1.44,.39,.39,.01,.76-.07,1.1-.25,.35-.12,.66-.31,.92-.59,.28-.26,.48-.57,.59-.92,.18-.34,.26-.71,.25-1.1-.03-.25-.07-.51-.1-.76Z"/>
      <path class="cls-8" d="M535.99,467.21s0-.02,0-.03c-.06-.17-.13-.38-.21-.5-.11-.14-.21-.28-.32-.41-.13-.12-.27-.23-.42-.32l-.49-.21c-.27-.09-.54-.1-.81-.04-.18,0-.36,.05-.52,.14-.25,.08-.47,.22-.66,.42-.11,.14-.21,.28-.32,.41-.07,.16-.14,.33-.21,.49-.09,.27-.1,.54-.04,.81,.01,.27,.09,.52,.24,.76,.05,.08,.1,.15,.16,.21,.14,.22,.34,.4,.57,.53,.16,.07,.33,.14,.49,.21,0,0,0,0,0,0,0,0,.02,0,.03,0,.36,.1,.72,.1,1.08,0,.34-.1,.64-.27,.89-.52,.25-.25,.43-.55,.52-.89,.1-.36,.1-.72,0-1.08Z"/>
    </g>
    <g>
      <path class="cls-8" d="M739.51,276.64s-6.13-2.8-12.6-4.23c-6.47-1.43-23.25-15.38-9.01-30.76,14.99-16.2,28.34-.48,29.91,9.22,1.58,9.7-1.13,15.31,1.13,19.22l-9.43,6.56Z"/>
      <path class="cls-4" d="M748.35,283.34s2.11,2.26,3.56,1.18c1.81-1.35-.25-4.08-.25-4.08l-3.3,2.91Z"/>
      <path class="cls-5" d="M740.89,278.41s2.82,4.25,5.49,5.38c2.67,1.13,6.4-2.17,6.65-4.55,.25-2.38-2.79-7.94-2.79-7.94l-9.35,7.11Z"/>
      <path class="cls-5" d="M748.23,268.52c1.13-.73,3.63,2.27,3.01,3.23-.62,.96-9.51,6.99-10.48,7.45-.98,.45-3.01-2.24-2.27-3.37s8.12-6.26,9.74-7.31Z"/>
      <path class="cls-1" d="M745.61,265.13c-.21-1.62-.38-3.26-.7-4.86-.52-2.61-1.59-5.69-4.26-6.81-.71-.3-1.5-.36-2.19,.02-.71,.39-1.19,1.1-1.63,1.75-.3,.44-.57,.89-.81,1.37-.75-.27-1.56-.38-2.39-.27-2.09,.28-3.8,1.68-4.51,3.54-.15,.01-.29,.02-.44,.05-1.44,.28-2.66,1.33-3.15,2.72-.5,1.41-.17,2.89,.64,4.11,.84,1.26,2.08,2.19,3.35,2.99,1.54,.97,3.22,1.71,4.96,2.25,.88,.27,1.66,.44,2.57,.37,.36-.03,.46-.55,.13-.71-1.25-.56-2.61-.81-3.89-1.32-1.29-.52-2.54-1.16-3.69-1.95-1.65-1.13-3.7-3-3.01-5.24,.35-1.14,1.23-1.81,2.21-2.02-.04,.38-.05,.76,0,1.16,.15,1.37,.78,2.71,1.83,3.62,1.02,.9,2.95,1.27,3.47-.37,.43-1.36-.52-3.15-1.39-4.16-.62-.72-1.45-1.22-2.35-1.42,.29-.64,.74-1.21,1.35-1.65,1.16-.82,2.59-1.03,3.85-.62-.24,.71-.36,1.45-.29,2.22,.13,1.34,.87,2.81,2.2,3.3,.6,.22,1.35,.23,1.82-.25,.51-.52,.49-1.31,.38-1.98-.27-1.61-1.26-3.02-2.6-3.86,.28-.56,.62-1.09,.99-1.6,.33-.45,.72-1.05,1.32-1.13,1.12-.14,2.27,1.1,2.84,1.93,.67,.97,1.06,2.11,1.35,3.24,.31,1.23,.46,2.49,.62,3.74,.1,.82,.21,1.63,.31,2.45,.03,.27,.09,.53,.05,.8-.03,.2-.03,.44-.17,.44-.23,0-.24,.28-.13,.41,.32,.35,.86,.21,1.15-.12,.5-.57,.28-1.47,.2-2.14Zm-12.77-1.23c.15,.4,.43,1.23,0,1.56-.4,.3-1.02-.08-1.33-.34-.42-.34-.77-.78-1.02-1.25-.46-.87-.6-1.84-.46-2.76,.76,.13,1.49,.54,2,1.25,.34,.47,.61,1,.82,1.54Zm5.73-2.08c-.06,.56-.62,.37-.96,.15-.45-.29-.76-.75-.95-1.24-.32-.83-.28-1.7-.04-2.52,.32,.21,.62,.46,.88,.77,.62,.73,1.18,1.85,1.07,2.84Z"/>
      <g>
        <path class="cls-8" d="M718.82,272.87s.03,.02,.04,.03c0,0,0,0,0,0-.01,0-.03-.02-.04-.03Z"/>
        <path class="cls-8" d="M719.33,273.31c-.1-.15-.23-.25-.38-.34-.15-.1-.29-.18-.5-.21-.26-.05-.53-.02-.77,.07-.1,.04-.21,.08-.31,.12-.11,.04-.21,.07-.32,.11-.16,.06-.3,.14-.45,.22-.32,.16-.66,.3-.96,.48-.25,.15-.49,.32-.74,.47-.25,.15-.5,.3-.74,.47-.34,.24-.66,.52-.83,.91-.14,.32-.23,.73-.2,1.09,.11,1.22,1.55,1.81,2.59,1.43,.41-.15,.8-.35,1.17-.58,.62-.39,1.18-.82,1.66-1.38,.29-.34,.54-.7,.75-1.11,.11-.22,.23-.46,.27-.71,.05-.36-.02-.72-.23-1.02Z"/>
        <path class="cls-8" d="M718.86,272.9s.06,.04,.09,.06c.05,.03,.1,.06,.15,.09-.08-.05-.16-.1-.24-.15Z"/>
      </g>
      <path class="cls-8" d="M708.68,262.27c-.36-.22-.8-.25-1.21-.26-.42-.01-.76,0-1.18,.09-.55,.13-1.12,.23-1.67,.38-.66,.18-1.33,.44-1.93,.76-.55,.29-1.15,.77-1.42,1.37-.18,.29-.23,.65-.1,.98,.09,.46,.44,.9,.86,1.09,.82,.37,1.65,.31,2.5,.07,.59-.17,1.21-.42,1.75-.7,.52-.27,1.08-.52,1.58-.83,.22-.13,.41-.34,.61-.51,.29-.26,.61-.58,.75-.96,.21-.61,.04-1.15-.52-1.49Z"/>
      <g>
        <path class="cls-8" d="M704.83,241.54c-.15-.01-.3-.01-.45-.02,.15,0,.3,.01,.45,.02Z"/>
        <path class="cls-8" d="M709.58,244.26c-.12-.62-.4-.96-.94-1.26-.21-.11-.41-.26-.63-.36,.36,.24,.3,.2-.18-.11-.07-.02-.13-.04-.2-.07-.1-.03-.2-.07-.3-.11-.4-.15-.8-.3-1.21-.43,.17,.05,.34,.11,.51,.16-.24-.08-.48-.16-.72-.26-.24-.1-.44-.19-.71-.25-.12-.03-.24-.04-.36-.05-.28-.01-.53-.02-.78,.03-.07,0-.15,0-.22,0-.15,.01-.31,.04-.45,.09-.02,0-.03,.01-.04,.02-.68,.08-1.13,.86-.88,1.49-.02-.05-.03-.13-.02-.02,.02,.16,.07,.33,.13,.48,.04,.1,.1,.18,.15,.27,.24,.79,.99,1.3,1.72,1.59,.55,.22,1.12,.42,1.71,.49,.33,.04,.72,.1,1.04,.07,.29-.03,.65-.14,.93-.22,.28-.08,.55-.17,.79-.32,.36-.22,.75-.78,.66-1.25Z"/>
        <path class="cls-8" d="M704.83,241.54s0,0,0,0c.02,0,.03,0,.05,0-.02,0-.04,0-.05,0Z"/>
      </g>
      <path class="cls-8" d="M719.1,229.93s-.02-.05-.02-.04c0-.01,0-.02,0-.04-.01-.1-.02-.19-.02-.29,0,0,0,.02,0,.03,0-.13-.01-.25-.05-.4-.04-.16-.08-.3-.12-.45-.05-.16-.09-.32-.13-.47-.1-.34-.3-.67-.45-.99-.46-1.03-.97-2.27-2.17-2.55-.03-.01-.06-.03-.1-.04-.17-.1-.35-.13-.54-.14-.18-.02-.23-.02-.14,0,.04,.01,.04,.01,.01,0-.03,0-.06-.02-.09-.03-.17-.05-.35,.05-.46,.16-.02,.02-.04,.04-.06,.06-.15,.09-.28,.2-.39,.37-.03,.05-.05,.09-.07,.14-.03,.04-.06,.08-.08,.13-1.06,1.37,.02,3.2,.75,4.48,.19,.33,.47,.59,.74,.86,.08,.08,.16,.16,.24,.24,.3,.27,.63,.39,1.01,.49,.27,.07,.58,.1,.86,.08,.45-.04,.77-.21,1.09-.52,.28-.27,.31-.74,.19-1.09Z"/>
      <path class="cls-8" d="M736.95,226.15c.01-.1,.02-.2,.03-.3,.02-.18,.05-.35,.09-.52,.07-.32,.11-.66,.08-1-.03-.4-.15-.74-.33-1.05-.1-.22-.23-.41-.44-.59,0,0,0,0-.01,0-.03-.17-.21-.33-.39-.29-.04,0-.07,.02-.11,.03-.43-.11-.87-.12-1.28,.07-.81,.31-1.43,1.11-1.55,1.97-.07,.49-.1,1-.06,1.5,.05,.57,.36,1.2,.73,1.62,.34,.4,.62,.62,1.16,.75,.42,.1,.81-.02,1.12-.29-.05,.05-.09,.09-.02,.03,.02-.01,.03-.03,.04-.05,.03-.03,.06-.04,.09-.07,.06-.06,0,0-.06,.05,.21-.2,.4-.4,.51-.67,.13-.31,.23-.63,.33-.94l-.16,.49c.08-.23,.2-.48,.23-.7Z"/>
      <path class="cls-8" d="M752.73,232.43c-.56-.81-1.66-.85-2.5-.48-.3,.13-.57,.27-.82,.47-.15,.12-.3,.23-.45,.35-.26,.21-.49,.45-.73,.68-.13,.13-.28,.25-.4,.39-.12,.14-.22,.3-.33,.45-.05,.06-.1,.13-.14,.19-.17,.23-.26,.4-.35,.63,.02-.05,.03-.09,.05-.14-.07,.22-.2,.47-.21,.68-.01,.31,0,.56,.14,.85,.12,.23,.34,.51,.6,.59,.33,.11,.46,.13,.81,.14,.08,0,.17,0,.25,0-.14,0-.28-.01-.43-.02,.38,.02,.62,.02,.99-.1,.07-.02,.15-.05,.22-.07,.17-.06,.35-.11,.52-.18,.29-.11,.58-.31,.85-.47,.16-.1,.33-.19,.48-.3,.14-.11,.27-.23,.4-.34,.24-.21,.51-.4,.69-.66,.18-.26,.36-.53,.48-.82,.25-.59,.24-1.3-.13-1.84Z"/>
      <path class="cls-8" d="M759.63,249.25c-.24-.23-.53-.45-.83-.6-.35-.17-.77-.24-1.15-.31-.41-.07-.82-.05-1.23-.05-.25,0-.49-.02-.74-.01-.58,.03-1.28,.05-1.82,.28-.18,.08-.36,.17-.54,.25-.55,.26-1.18,.84-1.04,1.54,.1,.52,.3,.82,.68,1.19,.26,.24,.5,.48,.82,.64,.35,.17,.73,.26,1.1,.37,.24,.07,.48,.15,.72,.2,.61,.11,1.37,.19,1.97,.1,.45-.07,.88-.14,1.28-.35,.38-.2,.67-.45,.97-.77,.68-.73,.46-1.84-.2-2.48Z"/>
    </g>
    <g>
      <path class="cls-8" d="M531.73,299.02c-.64-1.34-1.41-2.63-2.71-3.41-.71-.42-1.54-.65-2.35-.73,0,0-.02,0-.03,0-1.48-.37-3.28,.38-4.55,1.06-1.49,.8-2.78,1.92-3.94,3.14-.3,.31-.6,.63-.88,.97-.18,.22-.37,.44-.29,.74,.18,.63,1.41,.65,1.91,.68,.51,.03,1.02,.01,1.53-.04-.05,.07-.1,.13-.15,.19-.66,.91-1.18,1.92-1.58,2.97-.46,1.19-.77,2.43-1.02,3.69-.25,1.26-.58,2.6-.43,3.88,.02,.22,.21,.41,.44,.38,2.44-.25,4.66-1.43,6.47-3.06,.65-.59,1.24-1.23,1.81-1.9,.25,1.02,.64,2.02,1.07,2.92,.1,.21,.36,.35,.58,.19,2.3-1.7,3.99-4.25,4.69-7.03,.19-.75,.35-1.56,.27-2.34-.08-.82-.48-1.58-.83-2.31Z"/>
      <path class="cls-3" d="M531.3,298.09c-.43-.9-.95-1.78-1.83-2.3-.48-.28-1.04-.44-1.59-.49,0,0-.01,0-.02,0-1-.25-2.22,.26-3.07,.72-1,.54-1.88,1.3-2.66,2.12-.2,.21-.41,.43-.6,.65-.12,.15-.25,.3-.19,.5,.12,.42,.95,.44,1.29,.46,.35,.02,.69,0,1.03-.03-.03,.04-.07,.09-.1,.13-.45,.62-.8,1.3-1.07,2-.31,.81-.52,1.64-.69,2.49-.17,.85-.39,1.75-.29,2.62,.02,.15,.15,.27,.3,.26,1.65-.17,3.15-.97,4.37-2.06,.44-.4,.84-.83,1.22-1.28,.17,.69,.43,1.37,.72,1.97,.07,.15,.25,.23,.39,.13,1.56-1.15,2.7-2.87,3.17-4.74,.13-.51,.24-1.05,.18-1.58-.06-.56-.32-1.07-.56-1.56Z"/>
      <path class="cls-4" d="M527.69,285.54l-3.6,7.95s1.55,4.19,9.3,7.98l6.42-5.71-12.12-10.22Z"/>
      <path class="cls-4" d="M541.3,264.17s-9.09-3.03-18.17,3.6c-9.09,6.63-10.22,19.31-10.22,19.31,0,0,8.71-.38,13.63-1.7,4.92-1.33,8.52-2.46,8.52-3.22s6.25-7.19,5.49-8.71,.76-9.28,.76-9.28Z"/>
      <path class="cls-4" d="M559.47,280.07s2.73,9.4-1.84,19.68-16.72,11.56-16.72,11.56c0,0-1.21-8.92-.95-14.01,.26-5.09-1.1-3.56-.36-3.71s7.17-10.09,8.81-9.67c1.64,.42,11.05-3.85,11.05-3.85Z"/>
      <path class="cls-1" d="M574.43,245.43s-30.67,.57-47.9,39.94c0,0,2.65,7.57,13.44,11.93,0,0,33.51-14.77,34.45-51.87Z"/>
      <circle class="cls-4" cx="551.14" cy="270.99" r="9.47" transform="translate(160.78 745.12) rotate(-76.72)"/>
      <circle class="cls-5" cx="551.14" cy="270.99" r="6.58" transform="translate(160.78 745.12) rotate(-76.72)"/>
      <path class="cls-3" d="M571.37,262.67c1.76-5.11,2.89-10.84,3.06-17.24,0,0-7.58,.14-17.32,5.12,2.04,4.08,6.18,9.12,14.27,12.12Z"/>
      <path class="cls-1" d="M551.37,265.91c-.14-.26-.38-.39-.64-.49-.26-.11-.53-.11-.8-.08-.27,.03-.54,.07-.81,.15-.43,.13-.86,.32-1.23,.57-.83,.56-1.43,1.35-1.73,2.3-.16,.49,.14,1.03,.6,1.22,.43,.18,1.09,.05,1.29-.42,.09-.2,.2-.39,.32-.57,.02-.03,.04-.05,.06-.07,.07-.08,.15-.16,.24-.24,.07-.07,.15-.13,.23-.19,.03-.02,.06-.05,.1-.07,.15-.1,.32-.18,.48-.26,.19-.07,.39-.12,.59-.16,.22-.02,.44-.04,.65-.11,.44-.14,.81-.55,.79-1.04,0-.19-.06-.37-.15-.54Z"/>
      <path class="cls-1" d="M555.4,267.11c-.04-.05-.09-.1-.13-.16-.14-.16-.33-.24-.52-.31-.15-.05-.3-.1-.45-.15-.07-.02-.13-.05-.2-.07-.15-.04-.31-.05-.46-.05-.13,0-.26,0-.39,.03-.12,.03-.23,.1-.34,.14-.15,.06-.3,.28-.34,.44-.04,.18-.04,.4,.07,.56,.07,.1,.13,.2,.21,.29,.1,.1,.21,.16,.33,.23,.2,.11,.4,.19,.62,.24,.15,.04,.31,.07,.46,.11,.2,.05,.4,.07,.6,0,.07-.02,.14-.04,.21-.07,.25-.08,.45-.26,.52-.52,.07-.27-.01-.52-.19-.73Z"/>
      <path class="cls-3" d="M534.96,266.4c-1.03-.23-2.25,0-3.25,.24-3.47,.83-6.57,3.01-8.9,5.67-1.33,1.51-2.46,3.19-3.35,5-1.02,2.09-2.09,4.55-2.13,6.91,0,.25,.14,.48,.34,.6-.22-.13,.16,.12,.2,.11,.92-.12,1.05-1.03,1.32-1.8,.39-1.1,.81-2.19,1.29-3.25,.76-1.68,1.7-3.3,2.8-4.78,2.09-2.81,4.98-5.2,8.38-6.21,1.08-.32,2.05-.31,3.15-.38,.49-.03,1.45-.18,1.54-.81,.1-.72-.86-1.18-1.4-1.3Z"/>
      <path class="cls-3" d="M557.28,288.15c-.12-.59-.97-.52-1.13,0-.35,1.13-.34,2.38-.56,3.55-.21,1.11-.5,2.21-.83,3.3-.6,2.04-1.44,4.02-2.7,5.75-2.59,3.55-6.61,4.56-10.47,6.1-1.16,.14-.92,2.27,.45,1.92,4.29-1.12,8.71-3.2,11.39-6.84,1.35-1.83,2.25-3.98,2.89-6.16,.37-1.26,.6-2.55,.78-3.85,.17-1.22,.41-2.55,.17-3.77Z"/>
    </g>
    <g>
      <path class="cls-4" d="M767.93,416.11c-1.91,1.37-13.22,56.37-13.59,57.66-.37,1.29,38.93,9,40.21,8.63,1.29-.37,13.36-57.4,13.04-58.03-.32-.63-38.38-9.18-39.66-8.26Z"/>
      <path class="cls-1" d="M769.55,418.93c-1.68,1.25-11.58,51.58-11.9,52.75-.32,1.18,34.09,8.23,35.21,7.9,1.13-.34,11.7-52.52,11.42-53.09-.28-.57-33.61-8.4-34.73-7.56Z"/>
      <path class="cls-5" d="M802.17,422.17c-.04-.25-4.04-1.27-8.95-2.42,.25-1.83,.08-5.11-3.36-5.75-3.51-.65-4.9,2.1-5.41,3.76-4.82-1.06-8.85-1.9-9.27-1.93-1.16-.1-1.56,5.78-1.74,6.61-.18,.83,26.07,6.52,26.81,6.06,.73-.46,2.02-5.69,1.93-6.34Z"/>
      <path class="cls-5" d="M798.52,436.01c-3.88-1.09-7.8-2.04-11.74-2.85-1.94-.4-3.88-.79-5.84-1.09-1.79-.28-3.87-.75-5.65-.25-.35,.11-.53,.65-.12,.91,1.55,.99,3.62,1.19,5.39,1.53,1.94,.38,3.88,.75,5.82,1.17,3.87,.84,7.7,1.82,11.51,2.9,1.49,.42,2.13-1.9,.64-2.32Z"/>
      <path class="cls-5" d="M796.36,445.73c-3.88-1.09-7.8-2.04-11.74-2.85-1.94-.4-3.88-.79-5.84-1.09-1.79-.28-3.87-.75-5.65-.25-.35,.11-.53,.65-.12,.91,1.55,.99,3.62,1.19,5.39,1.53,1.94,.38,3.88,.75,5.82,1.17,3.87,.84,7.7,1.82,11.51,2.9,1.49,.42,2.13-1.9,.64-2.32Z"/>
      <path class="cls-5" d="M794.47,457.08c-3.88-1.09-7.8-2.04-11.74-2.85-1.94-.4-3.88-.79-5.84-1.09-1.79-.28-3.87-.75-5.65-.25-.35,.11-.53,.65-.12,.91,1.55,.99,3.62,1.19,5.39,1.53,1.94,.38,3.88,.75,5.82,1.17,3.87,.84,7.7,1.82,11.51,2.9,1.49,.42,2.13-1.9,.64-2.32Z"/>
      <path class="cls-5" d="M792.04,468.42c-3.88-1.09-7.8-2.04-11.74-2.85-1.94-.4-3.88-.79-5.84-1.09-1.79-.28-3.87-.75-5.65-.25-.35,.11-.53,.65-.12,.91,1.55,.99,3.62,1.19,5.39,1.53,1.94,.38,3.88,.75,5.82,1.17,3.87,.84,7.7,1.82,11.51,2.9,1.49,.42,2.13-1.9,.64-2.32Z"/>
      <path class="cls-7" d="M771.8,431.86c-.07-.24-.19-.46-.37-.64-.1-.08-.19-.15-.29-.23-.22-.13-.47-.2-.73-.2-.2,0-.38,.03-.55,.12-.18,.06-.33,.16-.46,.3-.14,.13-.24,.28-.3,.46-.09,.17-.13,.36-.12,.55,.02,.13,.03,.26,.05,.38,.07,.24,.19,.46,.37,.64,.1,.08,.19,.15,.29,.22,.22,.13,.47,.2,.73,.2,.2,0,.38-.03,.55-.12,.18-.06,.33-.16,.46-.3,.14-.13,.24-.28,.3-.46,.09-.17,.13-.36,.12-.55l-.05-.38Z"/>
      <path class="cls-7" d="M769.79,440.28c-.08-.15-.2-.28-.34-.37-.13-.12-.28-.2-.45-.24-.23-.06-.47-.06-.7,0-.24,.06-.45,.21-.63,.38-.1,.09-.17,.22-.25,.32-.12,.21-.18,.44-.19,.69,0,.25,.06,.47,.19,.69,.07,.09,.14,.18,.21,.28,.17,.17,.37,.29,.6,.35,.18,.06,.36,.06,.54,.02,.18,0,.35-.06,.51-.16,.2-.12,.37-.28,.49-.49,.07-.12,.11-.24,.14-.37,0,0,0-.02,0-.03,0,0,0-.01,0-.02,0,0,0,0,0-.01,0-.02,.05-.34,.05-.36,0-.24-.06-.46-.18-.67Z"/>
      <path class="cls-7" d="M768.08,451.87c-.07-.24-.19-.45-.37-.63-.1-.08-.19-.15-.29-.22-.22-.13-.47-.2-.73-.2-.2,0-.38,.03-.55,.12-.18,.06-.33,.16-.46,.3-.14,.13-.24,.28-.3,.46-.09,.17-.13,.36-.12,.55,.02,.13,.03,.25,.05,.38,.07,.24,.19,.45,.37,.63,.1,.08,.19,.15,.29,.22,.22,.13,.47,.2,.73,.2,.2,0,.38-.03,.55-.12,.18-.06,.33-.16,.46-.3,.14-.13,.24-.28,.3-.46,.09-.17,.13-.36,.12-.55-.02-.13-.03-.25-.05-.38Z"/>
      <path class="cls-7" d="M765.49,463.37c-.06-.2-.16-.38-.31-.53-.08-.06-.16-.13-.24-.19-.19-.11-.39-.16-.61-.16-.17,0-.32,.03-.47,.1-.15,.05-.28,.13-.39,.25-.12,.11-.2,.24-.25,.39-.08,.14-.11,.3-.1,.47,.01,.11,.03,.21,.04,.32,.06,.2,.16,.38,.31,.53,.08,.06,.16,.13,.24,.19,.19,.11,.39,.16,.61,.16,.17,0,.32-.03,.47-.1,.15-.05,.28-.13,.39-.25,.12-.11,.2-.24,.25-.39,.08-.14,.11-.3,.1-.47-.01-.11-.03-.21-.04-.32Z"/>
      <path class="cls-4" d="M790.6,418.27c-.07-.25-.2-.47-.39-.66-.1-.08-.2-.16-.3-.23-.23-.14-.49-.2-.76-.2-.21,0-.4,.04-.58,.13-.19,.06-.35,.16-.48,.31-.19,.19-.31,.41-.39,.66-.07,.27-.07,.53,0,.8,0,.03,.01,.06,.02,.1,0,.02,0,.03,0,.05,0,0,0,0,0,.01,0,0,0,0,0,0,.05,.12,.1,.23,.15,.35,.08,.1,.15,.2,.23,.3,.09,.1,.19,.17,.3,.23,.06,.03,.12,.05,.18,.07,.17,.09,.36,.13,.56,.13,.13-.02,.26-.03,.39-.05,.12-.05,.23-.1,.35-.15,.06-.03,.11-.07,.15-.12,.11-.07,.2-.15,.26-.26,.09-.09,.15-.2,.19-.32,.04-.06,.06-.12,.07-.18,0,0,0,0,0,0,0-.02,0-.03,0-.05,0-.03,.01-.07,.02-.1,.07-.27,.07-.53,0-.8Z"/>
    </g>
    <g>
      <path class="cls-3" d="M753.08,361.79c-1.14-2.61-1.35-5.86-7.98-8.1-5.28-1.78-11.93,2.63-14.66,5.81-.7,.82-.26,2.1,.8,2.3,1.73,.32,4.11,1.1,5.34,3,2.05,3.19,7.58,8.57,14.05,4.05,6.47-4.52,2.46-7.05,2.46-7.05Z"/>
      <path class="cls-4" d="M752.72,360.96c2.78-.02,31,12.05,31.6,16.33,.6,4.29-31.5-6.73-33.36-7.19-4.22-1.05-1.42-9.12,1.76-9.14Z"/>
      <path class="cls-8" d="M759.15,363.06c-3.24-1.29-5.7-2.11-6.43-2.1-3.18,.02-5.99,8.09-1.76,9.14,.41,.1,2.29,.72,4.97,1.57,.27-4.03,1.97-6.97,3.22-8.61Z"/>
      <path class="cls-8" d="M745.28,357.3c-.43-1.02-1.61-1.07-2.59-1.14-1.05-.07-2.1-.02-3.14,.15-1.02,.17-2.07,.42-3.02,.83-.46,.2-.89,.45-1.3,.73-.41,.28-.54,.6-.74,.96-.03,.06,0,.15,.07,.15,.34,0,.62,.09,1.04-.02,.46-.12,.92-.28,1.37-.42,.92-.27,1.83-.52,2.79-.64,.92-.12,1.86-.15,2.79-.09,.47,.03,.93,.11,1.39,.13,.52,.02,.89-.11,1.28-.42,.07-.05,.08-.15,.05-.22Z"/>
      <path class="cls-8" d="M749.66,358.53c-.1-.24-.34-.4-.55-.54-.16-.1-.33-.19-.5-.27-.08-.04-.17-.09-.25-.13-.12-.06-.23-.1-.36-.13-.11-.03-.24-.08-.36-.09-.11,0-.24,.05-.33,.13-.01,0-.02,0-.03,0-.1-.01-.15,.11-.09,.19,0,0,0,.01,.01,.02-.02,.14,0,.29,.08,.39,.06,.07,.14,.14,.21,.2,.08,.08,.17,.17,.26,.24,.08,.06,.17,.11,.26,.16,.16,.1,.32,.2,.49,.28,.15,.08,.3,.16,.47,.19,.12,.02,.23,.04,.35,.03,.31-.04,.45-.39,.34-.66Z"/>
      <path class="cls-8" d="M745.31,362.85c.07-.19,.04-.49-.12-.63-.69-.62-1.52-1.09-2.41-1.37-.43-.14-.86-.23-1.31-.24-.35,0-.92-.03-1.14,.3-.05,.01-.11,.03-.16,.04-.04,0-.05,.07,0,.08,.11,.03,.13,.05,.2,.13,.07,.07,.15,.14,.24,.18,.18,.08,.37,.15,.56,.21,.38,.13,.77,.28,1.15,.43,.39,.16,.66,.29,.99,.48,.36,.21,.7,.46,1.04,.71,.17,.13,.45,.15,.64,.05,.16-.09,.27-.2,.34-.37Z"/>
      <path class="cls-8" d="M746.11,368.16c-.35-.21-.59-.54-.93-.76-.36-.23-.77-.36-1.15-.53-.75-.34-1.46-.77-2.13-1.24-.68-.48-1.3-1.02-1.88-1.62-.52-.54-1.03-1.37-1.79-1.55-.02,0-.04,0-.04,.02-.21,.8,.45,1.62,.92,2.22,.56,.72,1.23,1.36,1.93,1.94,.68,.56,1.44,1.03,2.22,1.43,.43,.22,.85,.43,1.33,.53,.5,.11,.91-.05,1.4-.07,.19,0,.33-.27,.13-.38Z"/>
    </g>
    <g>
      <path class="cls-1" d="M793.99,314.45c-22.65-19.24-53.33-4.14-51.5,17.71,2.07,24.8,23.22,11.18,29.7,15.26,4.55,2.87,5.72,13.55,14.63,17.35,8.92,3.8,41.19-21.42,7.17-50.32Z"/>
      <path class="cls-4" d="M759.91,339.13c-2.74,2.35-6.87,2.03-9.22-.71-2.35-2.74-2.03-6.87,.71-9.22,2.74-2.35,6.87-2.03,9.22,.71s2.03,6.87-.71,9.22Z"/>
      <path class="cls-5" d="M770.08,322.29c-2.74,2.35-6.87,2.03-9.22-.71s-2.03-6.87,.71-9.22c2.74-2.35,6.87-2.03,9.22,.71,2.35,2.74,2.03,6.87-.71,9.22Z"/>
      <path class="cls-3" d="M788.29,324.88c-2.74,2.35-6.87,2.03-9.22-.71-2.35-2.74-2.03-6.87,.71-9.22s6.87-2.03,9.22,.71c2.35,2.74,2.03,6.87-.71,9.22Z"/>
      <path class="cls-8" d="M800.23,339.37c-2.74,2.35-6.87,2.03-9.22-.71-2.35-2.74-2.03-6.87,.71-9.22s6.87-2.03,9.22,.71c2.35,2.74,2.03,6.87-.71,9.22Z"/>
      <path class="cls-10" d="M795.17,357c-2.74,2.35-6.87,2.03-9.22-.71-2.35-2.74-2.03-6.87,.71-9.22,2.74-2.35,6.87-2.03,9.22,.71,2.35,2.74,2.03,6.87-.71,9.22Z"/>
      <g>
        <path class="cls-1" d="M757.31,331.41s0-.01,0-.02c-.01-.39-.23-.72-.64-.9-.82-.37-1.76-.3-2.59,0-.38,.14-.75,.36-1.06,.62-.18,.15-.36,.34-.5,.52-.19,.25-.24,.59-.23,.9,.01,.36,.14,.68,.49,.85,.34,.17,.66,.09,.96-.11-.3,.2,0,.01,.09-.03,.19-.1,.31-.24,.44-.39,.11-.12,.24-.22,.38-.32,.12-.07,.23-.13,.36-.18-.08,.03-.03,0,.02-.01,.04-.01,.08-.03,.12-.04-.04,.02-.06,.02-.08,.03,.09-.02,.19-.04,.28-.06,.03,0,.07,0,.1-.01,.08,0,.16,0,.23,0,.04,0,.09,0,.13,.02,.03,0,.03,0,.04,0,.08,.03,.16,.06,.18,.07,.33,.13,.69,.02,.95-.2,.25-.16,.36-.46,.33-.74Z"/>
        <path class="cls-1" d="M755.03,332.33s0,0,0,0c0,0,0,0-.02,0,.01,0,.04-.01,.06-.02,0,0,0,0,0,0-.01,0-.02,0-.04,.01Z"/>
      </g>
      <path class="cls-1" d="M753.16,335.3c.09-.26,.07-.53-.01-.78-.04-.11-.09-.21-.14-.32-.18-.37-.67-.48-.98-.21-.06,.05-.13,.1-.19,.16-.09,.08-.15,.17-.22,.26-.06,.08-.1,.15-.14,.26-.02,.07-.05,.19-.05,.28-.02,.23-.05,.47,.08,.67,.05,.07,.09,.14,.14,.21,.05,.1,.12,.18,.21,.24,.07,.05,.14,.08,.21,.08,.07,.02,.15,.02,.23,0,.11-.02,.2-.06,.28-.14,.07-.04,.14-.09,.21-.13,.21-.14,.29-.37,.37-.6Z"/>
      <path class="cls-1" d="M766.29,315c.15-.09,.23-.28,.16-.44,0-.18-.01-.36-.08-.53-.08-.19-.23-.32-.39-.43-.15-.11-.32-.19-.51-.23-.28-.06-.56-.12-.85-.12-.57,0-1.16,.08-1.65,.38-.32,.19-.55,.4-.79,.7-.21,.26-.4,.61-.41,.95,0,.32,.03,.64,.15,.94,.05,.13,.15,.26,.25,.36,.12,.13,.25,.2,.39,.25,.19,.12,.41,.2,.63,.19,.17,0,.26-.14,.21-.3,0-.03-.01-.05-.02-.08,0,0,0-.05,0-.06,0,0,0-.01,0-.02,.03-.03,.06-.06,.09-.1,.02-.03,.05-.06,.07-.09,.05-.08,.09-.16,.13-.25-.08,.15-.1,.19-.06,.13,.05-.07,.09-.15,.15-.21,.06-.08,.11-.16,.16-.25,.04-.07,.08-.13,.13-.19,.02-.01,.03-.03,.05-.04,.05-.03,.11-.05,.17-.08,.09-.02,.18-.05,.27-.06,.08,0,.15,0,.23,0,.14,.01,.28,.05,.42,.06,.14,.01,.31,0,.45-.03,.29-.04,.5-.22,.68-.44Z"/>
      <g>
        <path class="cls-1" d="M786.6,317.43c.16-.31,.15-.62,.02-.94-.06-.15-.13-.28-.24-.41-.2-.23-.39-.3-.65-.43-.13-.06-.26-.12-.4-.17-.37-.14-.79-.26-1.18-.3-.4-.03-.81,0-1.2,.04-.35,.05-.65,.17-.92,.4-.16,.14-.31,.3-.43,.48-.16,.26-.2,.54-.11,.82,.09,.27,.26,.43,.49,.56,.16,.08,.32,.15,.49,.21,.25,.09,.48,.09,.72,.07,.26,0,.51,0,.77,.03,.23,.02,.46,.04,.69,.08,.08,.02,.17,.04,.25,.07,.32,.1,.6,.15,.93,.06,.34-.09,.6-.26,.77-.58Z"/>
        <path class="cls-1" d="M782.06,317.54s-.06-.03-.08-.05c-.02-.01-.05-.02-.07-.03,.05,.03,.1,.05,.15,.08Z"/>
        <path class="cls-1" d="M782.14,317.58l-.08-.04s.01,0,.02,0c.02,.01,.04,.02,.06,.03Z"/>
      </g>
      <path class="cls-1" d="M798.84,333.2c.03-.21,.03-.41,.02-.62,.07-.25,.04-.5-.08-.77-.06-.12-.12-.24-.19-.35-.14-.22-.25-.36-.45-.52-.05-.04-.11-.09-.17-.13-.11-.08-.22-.15-.33-.22-.67-.39-1.45-.62-2.22-.43-.39,.1-.75,.42-.76,.84-.01,.44,.23,.78,.62,.95,.04,.02,.08,.04,.12,.05,.03,.01,.03,.01,.02,0,.1,.05,.21,.11,.32,.15,.16,.05,.31,.12,.46,.19-.09-.04-.17-.09-.26-.13,.12,.06,.25,.12,.37,.18,.31,.16,.57,.39,.89,.53,.06,.03,.12,.05,.18,.08,0,0,0,0,.01,0,.21,.12,.4,.18,.6,.18,.02,0,.03,.01,.05,.02,0,0,.07,.03,.1,.04,.02,.01,.1,.05,.11,.06,.05,.03,.1,.06,.16,.1,.19,.12,.41,0,.44-.21Z"/>
      <g>
        <path class="cls-1" d="M794.06,352.21c.07-.1,.12-.22,.18-.33,.17-.35,.26-.76,.21-1.15-.07-.49-.26-.99-.5-1.42-.29-.5-.63-.99-1.14-1.29-.3-.17-.59-.33-.94-.31-.28,.01-.52,.03-.74,.22-.15,.12-.27,.28-.28,.49-.02,.46,.19,.82,.46,1.17,.03,.04,.14,.2,.08,.11,.02,.04,.05,.07,.04,.06,.05,.07,.08,.13,.14,.19,.06,.07,.11,.15,.17,.23,.08,.14,.16,.28,.23,.44,.02,.04,.03,.08,.04,.11,.02,.08,.04,.16,.06,.24,.06,.28,.13,.55,.25,.81,.04,.08,.08,.15,.12,.22,.11,.23,.25,.39,.45,.5,.15,.14,.38,.19,.57,.1,.01,0,.02,0,.03,0,.23-.05,.45-.19,.58-.38Z"/>
        <path class="cls-1" d="M793.46,352.6c.07-.01,.04-.01,.01,0,0,0,0,0-.01,0Z"/>
      </g>
    </g>
    <g>
      <path class="cls-4" d="M622.08,236.73c-38.43,10.37-30.52,51.04-26.2,62.92,4.32,11.88-7.56,21.33,1.08,37.27,8.64,15.93-20.52,28.09,2.7,52.39,23.22,24.3,102.89,13.5,113.96-2.97,11.07-16.47-8.91-42.4-8.1-57.52,.81-15.12,3.51-28.36-8.91-40.78-12.42-12.42-6.48-69.67-74.53-51.31Z"/>
      <path class="cls-5" d="M612.83,354.61c-9.52,5.06-14.11,9.79-18.03,16.16-6.38,10.38-5.26,66.68-4.86,67.08s20.86,29.57,20.86,29.57c0,0-1.97,33-4.66,39.9h119.7s-9.17-37.26-8.84-55.49c0,0,13.9-8.3,13.7-8.1s13.37-12.56,13.37-12.56c-3.24-24.71-25.22-64.8-33.86-71.68-8.64-6.88-15.03-6.8-25.31-9.69-8.62-2.42-30.81-.69-32.91,.84s-23.16,2.91-23.16,2.91l-16,1.06Z"/>
      <path class="cls-13" d="M687.97,407.68c-2.94-2.31-13.44-8.2-18.27-10.3-4.83-2.1-17.43-.42-20.37,1.47-2.94,1.89,0,5.67,2.94,5.46,2.94-.21,6.51,.42,8.82,1.26,0,0-2.1,2.94,1.26,6.1,0,0-1.89,2.1,2.31,5.04,4.2,2.94,10.71,6.31,13.65,7.57,2.94,1.26,8.61-3.78,8.4-4.83-.21-1.05,1.26-11.77,1.26-11.77Z"/>
      <path class="cls-5" d="M568.67,418.41c-4.25,2.03-6.48,5.27-6.89,14.99-.41,9.72,12.35,34.43,25.72,42.94,13.37,8.51,29.37-1.22,29.98-8.71,.61-7.49-23.49-24.51-27.95-32.41-4.46-7.9-6.08-11.14-6.89-11.14s-13.98-5.67-13.98-5.67Z"/>
      <path class="cls-4" d="M568.12,386.81l19.16,53.19c.5,1.39,1.81,2.31,3.29,2.31h81.66c2.43,0,4.12-2.42,3.28-4.7l-19.71-53.56c-.51-1.38-1.82-2.29-3.29-2.29l-81.11,.37c-2.41,.01-4.09,2.41-3.27,4.68Z"/>
      <path class="cls-13" d="M630.32,332.41s1.47,8.13-.42,12.15-17.07,10.05-17.07,10.05c0,0,12.28,20.25,37.23,18.06,24.96-2.19,34.85-22.87,34.85-22.87,0,0-13.89-5.11-19.72-7.44-5.83-2.33-7.76-18.98-7.76-18.98l-27.1,9.03Z"/>
      <path class="cls-13" d="M565.03,426.1c-1.18-8.11,7.29-17.62,12.35-21.27,5.06-3.65,8.91-2.03,8.71,0,0,0,3.65-1.62,4.66,2.23,0,0,3.74-1.06,4.46,3.24,0,0,3.65,.61,2.43,4.66s-4.05,5.47-7.49,10.94-2.75,6.79-6.19,9.62c-3.44,2.84-17.1,3.14-18.92-9.42Z"/>
      <path class="cls-5" d="M688.37,404.84c-3.51-1.95-14.99,15.6-14.99,19.44s38.28,37.67,56.51,39.09c18.23,1.42,16-24.91,14.18-32.2,0,0-48.41-22.28-55.7-26.33Z"/>
      <path class="cls-12" d="M661.36,338.1c-2.88-5.69-3.93-14.72-3.93-14.72l-27.03,9.01-.06,.11c.09,.52,.58,3.58,.52,6.74,9.56,4.3,21.15,3.99,30.37-1.06,.05-.02,.09-.05,.13-.08Z"/>
      <path class="cls-13" d="M663.12,286.08s9.11-1.42,10.94,5.27c2.01,7.37-1.62,10.53-6.28,13.57,0,0-.41,30.99-25.92,34.23-29.09,3.69-35.85-38.89-37.06-46.58,0,0,13.37-10.94,17.01-20.46,0,0,4.86,6.08,11.95,5.67s7.09,4.86,14.18,5.67c7.09,.81,11.34,3.65,15.19,2.63Z"/>
      <g>
        <path class="cls-6" d="M669.32,296.9s0-.02,0,0h0Z"/>
        <path class="cls-6" d="M669.32,296.9s0,.02,0,.03c0,0,0,0,0,0,0,0,0-.02,0-.03,0,0,0,0,0,0Z"/>
        <path class="cls-6" d="M670.78,295.05c-.64-.51-1.53-.64-2.3-.38-.04,.01-.09,.04-.13,.05,0-.17,0-.34,0-.51,0-.05,0-.1,.01-.14,0,0,0-.03,0-.06,0-.03,0-.06,0-.06,0-.05,.02-.1,.03-.14,.04-.22,.1-.44,.18-.66,.01-.03,.07-.18,.07-.21,.04-.09,.08-.18,.13-.27,.11-.22,.22-.43,.36-.63,.03-.04,.05-.08,.08-.12,0,0,0,0,0,0,0,0,0,0,.02-.02,.1-.13,.19-.25,.29-.38,.14-.19,.25-.41,.36-.63,.19-.4-.02-1.07-.57-1-.77,.1-1.31,.48-1.78,1.09-.42,.54-.72,1.13-.93,1.78-.39,1.21-.41,2.61,.03,3.81,.06,.16,.12,.31,.2,.47,0,.02,.02,.05,.03,.07,.62,1.27,1.81,2.47,3.3,1.76,1.45-.68,1.92-2.78,.6-3.82Z"/>
      </g>
      <path class="cls-14" d="M678.41,280.2c-1.73,.26-3.33,1.22-4.89,1.98-1.66,.8-3.49,1.32-5.3,1.63-2.17,.37-4.41,.35-6.6,.22-2.37-.15-4.79-.35-7.15-.69-2.13-.31-4.27-.64-6.32-1.35-1.86-.64-3.52-1.72-5.21-2.71-1.61-.95-3.31-1.86-5.16-2.27-2.16-.47-4.34-.15-6.52-.36-1.1-.11-2.18-.26-3.16-.79-.89-.48-1.69-1.09-2.43-1.78-1.52-1.43-2.65-3.14-3.99-4.72-.19-.22-.42-.25-.63-.18-.05-.14-.24-.25-.38-.15-.48,.37-1,.63-1.36,1.14-.39,.55-.58,1.28-.82,1.9-.54,1.37-1.19,2.69-1.8,4.03-1.25,2.74-3.15,5.26-5.09,7.55-1.85,2.18-3.82,4.33-5.95,6.24-.99,.89-2.06,1.84-3.21,2.5-1.22,.7-2.64,.86-3.83,1.54-.33,.19-.25,.68,.1,.79,1.21,.36,2.65-.22,3.76-.69,1.27-.54,2.49-1.19,3.59-2.03,2.49-1.91,4.7-4.19,6.75-6.56,2.09-2.41,3.81-5.01,5.49-7.71,.84-1.35,1.56-2.71,2.19-4.17,.3-.71,.67-1.44,.84-2.2,1.72,2.85,4.07,5.37,7.03,6.9,2.09,1.08,4.33,.97,6.62,1.11,2.28,.13,4.15,.85,6.11,1.99,1.77,1.03,3.47,2.16,5.37,2.93,2.26,.92,4.65,1.35,7.05,1.7,4.87,.73,9.64,1.67,14.59,1.03,2.33-.3,4.57-.9,6.68-1.95,1.8-.9,3.74-2.48,3.9-4.64,.01-.17-.16-.25-.31-.23Z"/>
      <path class="cls-14" d="M605.64,337.09c-1.03-4.07-2.41-8.12-2.18-12.38,.22-4.15,1.21-8.22,.89-12.4-.17-2.21-.52-4.42-1.07-6.57-.56-2.19-1.21-4.52-2.53-6.39-.05-.07-.21-.06-.19,.05,.23,1.8,.76,3.55,1.08,5.34,.34,1.97,.52,3.97,.53,5.96,.03,4.02-.73,7.82-1.32,11.77-.6,3.97,0,7.78,.97,11.64,.87,3.45,1.94,6.89,1.88,10.48-.03,1.65-.26,3.31-.85,4.86-.3,.79-.77,1.46-1.17,2.2-.19,.35-.35,.72-.53,1.08-.23,.49-.11,.96-.29,1.45-.06,.16,.1,.39,.28,.37,.42-.05,.82,.11,1.23,0,.32-.09,.63-.32,.89-.5,.72-.5,1.22-1.14,1.65-1.9,.79-1.42,1.3-3,1.55-4.6,.56-3.53,.04-7.02-.83-10.46Z"/>
      <path class="cls-14" d="M613.34,341.58c-.45-1.92-1.34-3.69-1.97-5.55-.33-.98-.64-1.99-.75-3.02-.1-.97,.02-1.81-.47-2.66-.2-.35-.7-.33-.91,0-.86,1.35-.57,3.53-.27,5.06,.36,1.8,1.19,3.49,1.75,5.23,.55,1.72,.79,3.46,.53,5.26-.13,.89-.4,1.72-.67,2.57-.27,.84-.26,1.7-.42,2.57-.04,.21,.17,.42,.38,.29,.69-.42,1.43-.87,1.87-1.56,.5-.78,.78-1.71,.97-2.6,.41-1.84,.38-3.75-.05-5.59Z"/>
      <path class="cls-14" d="M620.49,340.16c-.13-.61-.26-1.24-.5-1.82-.25-.6-.59-1.01-.96-1.53-.05-.08-.2-.08-.22,.03-.1,.54-.26,1.02-.27,1.57-.01,.52,.05,1.03,.08,1.55,.05,1.05,.09,2.13,0,3.18-.07,.87-.33,1.68-.49,2.53-.17,.87-.41,1.81-.79,2.61-.1,.21,.11,.45,.33,.33,.89-.48,1.58-1.09,2.12-1.94,.59-.93,.78-1.98,.89-3.06,.12-1.16,.05-2.31-.2-3.45Z"/>
      <path class="cls-14" d="M701.17,340.97c-.32-2.29-1.14-4.42-2.05-6.53-.9-2.09-1.89-4.15-2.43-6.37-.59-2.46-.37-4.99-.03-7.47,.59-4.37,.98-8.5,.23-12.89-.67-3.93-1.9-7.88-3.85-11.38-1.09-1.95-2.38-3.79-3.79-5.52-1.37-1.68-2.96-3.62-4.91-4.63-.34-.18-.82,.2-.57,.57,1.08,1.56,2.54,2.85,3.7,4.36,1.17,1.54,2.2,3.18,3.08,4.9,1.77,3.46,3.13,7.16,3.74,11.01,.64,4.06,.39,8.14-.21,12.18-.34,2.27-.69,4.57-.53,6.87,.15,2.24,.79,4.36,1.63,6.43,.92,2.27,2.02,4.47,2.67,6.84,.31,1.15,.52,2.32,.52,3.51,0,.61-.11,1.22-.02,1.83,.09,.61,.35,1.13,.41,1.76,.03,.34,.39,.49,.65,.27,.8-.67,1.56-1.3,1.81-2.36,.25-1.08,.1-2.3-.04-3.38Z"/>
      <path class="cls-14" d="M693.23,341.62c-.36-.64-.57-1.15-1.09-1.7-.5-.52-1.04-1.01-1.52-1.54-.94-1.05-1.66-2.34-2.18-3.65-1.27-3.19-1.41-6.58-1.3-9.98,.12-3.84,.43-7.67,.02-11.5-.37-3.51-1.17-6.97-2.42-10.28-.67-1.79-1.46-3.53-2.37-5.21-.78-1.45-1.72-3.57-3.19-4.43-.15-.09-.3,.06-.28,.21,.25,1.57,1.51,3.1,2.2,4.52,.84,1.72,1.54,3.5,2.12,5.33,1.11,3.5,1.74,7.14,1.84,10.81,.2,7.22-2.19,14.8,.59,21.79,.65,1.63,1.51,3.14,2.65,4.48,.56,.65,1.17,1.25,1.93,1.67,.9,.5,1.49,.51,2.48,.39,.44-.06,.77-.47,.52-.91Z"/>
      <path class="cls-14" d="M682.96,340.42c-.44-.66-.93-1.28-1.38-1.93-.83-1.21-1.56-2.48-2.16-3.81-1.2-2.69-1.84-5.78-1.43-8.72,.23-1.62,.76-3.18,1.09-4.78,.33-1.6,.33-3.19,0-4.8-.59-2.96-2.15-5.57-4.02-7.89-.12-.15-.31,.04-.24,.19,1.4,2.93,2.77,6.12,2.48,9.43-.28,3.3-1.93,6.3-2.08,9.65-.14,3.02,.65,5.96,1.88,8.69,.6,1.33,1.34,2.61,2.16,3.82,.41,.61,.84,1.21,1.34,1.75,.67,.72,1.09,.82,2,1.04,.39,.09,.93-.2,.87-.67-.1-.78-.07-1.26-.53-1.96Z"/>
      <path class="cls-14" d="M672.28,333.9c-.52-1.33-1.04-2.66-1.61-3.96-.55-1.26-1.07-2.53-1.44-3.85-.18-.65-.3-1.3-.41-1.97-.1-.59-.08-1.24-.42-1.75-.16-.24-.56-.36-.77-.1-.79,.95-.46,2.59-.27,3.73,.24,1.44,.68,2.84,1.15,4.21,.5,1.44,1.07,2.85,1.64,4.27,.53,1.32,1.26,2.72,2.38,3.64,.18,.15,.41,.05,.44-.18,.17-1.34-.2-2.81-.68-4.04Z"/>
      <path class="cls-14" d="M616.45,260.71c-.06-.18-.35-.25-.44-.06-.62,1.29-1.18,2.53-1.52,3.92-.36,1.45-.73,2.88-1.25,4.29-1,2.69-2.39,5.27-4.05,7.62-1.67,2.36-3.69,4.48-5.93,6.3-1.18,.95-2.44,1.81-3.75,2.56-1.11,.64-2.9,1.13-3.73,2.11-.35,.42-.1,.93,.41,1,1.33,.17,3.07-.97,4.21-1.58,1.41-.75,2.75-1.62,4.02-2.58,2.45-1.85,4.61-4.01,6.48-6.44,1.89-2.47,3.41-5.15,4.52-8.05,.57-1.48,1.07-3.03,1.37-4.59,.3-1.56,.13-2.99-.33-4.49Z"/>
      <path class="cls-14" d="M611.39,251.26c-.05-.2-.35-.2-.4,0-.34,1.28-.75,2.54-1.02,3.84-.28,1.32-.5,2.65-.83,3.97-.67,2.67-1.52,5.25-2.74,7.72-1.22,2.47-2.73,4.8-4.51,6.91-1.68,1.98-3.88,3.54-5.42,5.6-.08,.11,.05,.26,.18,.23,2.56-.77,4.76-3.12,6.51-5.04,1.91-2.09,3.58-4.41,4.95-6.89,1.37-2.47,2.53-5.17,3.19-7.93,.34-1.4,.62-2.84,.67-4.29,.05-1.41-.22-2.75-.58-4.11Z"/>
      <path class="cls-14" d="M607.33,249.07c-.08-.18-.36-.08-.35,.1,.06,2.05-1.24,4.13-2.02,5.98-.78,1.85-1.57,3.69-2.45,5.5-.61,1.24-5.16,10.81-6.44,10.05-.1-.06-.21,.08-.13,.16,1.34,1.39,2.8-1.13,3.49-2.05,1.53-2.05,2.93-4.16,4.15-6.4,1.2-2.19,2.29-4.43,3.19-6.76,.82-2.12,1.54-4.39,.56-6.58Z"/>
      <path class="cls-14" d="M678.14,275.66c-.91,.09-1.82,.06-2.73,.14-1.09,.09-2.18,.32-3.25,.51-1.92,.35-3.85,.56-5.8,.53-4.04-.05-8.03-1.06-11.58-2.97-3.56-1.92-6.97-4.32-11.15-4.51-2.34-.11-4.65,.45-6.99,.3-1.97-.13-3.82-.87-5.5-1.89-4.2-2.56-6.46-6.92-9.56-10.54-.14-.17-.45,.01-.37,.22,1.42,4.09,3.86,8.14,7.16,11.02,1.54,1.35,3.26,2.43,5.19,3.13,2.19,.79,4.4,.77,6.69,.58,2.36-.19,4.53-.22,6.76,.66,2.02,.79,3.86,2.02,5.74,3.09,3.77,2.15,7.82,3.51,12.15,3.89,2.44,.21,4.97,.14,7.38-.35,1.14-.23,2.25-.58,3.3-1.08,1.08-.52,1.93-1.38,2.8-2.19,.18-.17,.05-.56-.22-.53Z"/>
      <path class="cls-14" d="M681.27,270.75c-3.88-1.08-7.99-.78-11.9-1.7-4.01-.94-7.78-2.64-11.13-5.05-1.65-1.18-3.21-2.48-5.17-3.12-2.07-.68-4.24-.35-6.33,.05-2.08,.4-4.07,.81-6.17,.31-1.89-.45-3.64-1.4-5.14-2.62-1.83-1.49-3.36-3.4-4.67-5.35-1.24-1.84-2.12-4.31-3.86-5.73-.08-.06-.21-.03-.21,.09,0,2.04,1.22,4.12,2.12,5.9,.99,1.94,2.13,3.78,3.61,5.38,2.7,2.93,6.47,5.14,10.54,5.18,2.33,.03,4.57-.77,6.88-.86,2.44-.1,4.22,1.13,6.08,2.55,3.44,2.61,7.25,4.6,11.41,5.79,4.37,1.25,9.9,2.26,14-.31,.2-.12,.17-.44-.07-.5Z"/>
      <path class="cls-14" d="M677.12,259.01c-1.53,.15-3.15-.14-4.65-.43-1.56-.3-3.09-.73-4.54-1.38-2.94-1.31-5.58-3.18-8.62-4.27-3.17-1.14-6.38-.77-9.68-.87-2.99-.09-5.42-1.3-7.35-3.58-1-1.18-1.79-2.53-2.51-3.89-.73-1.37-1.28-2.89-2.2-4.15-.06-.08-.2-.06-.19,.05,.12,2.66,1.47,5.6,2.83,7.85,1.47,2.43,3.52,4.46,6.26,5.37,3.51,1.17,7.26,.11,10.8,1.06,3.46,.93,6.36,3.16,9.54,4.71,1.73,.85,3.55,1.57,5.48,1.74,1.93,.17,3.57-.46,5.04-1.68,.2-.17,.04-.55-.22-.53Z"/>
      <path class="cls-10" d="M684.68,349.18c-.17-.19-.56-.26-.77-.1-1.08,.78-1.47,1.84-2.15,2.94-.65,1.06-1.4,2.11-2.18,3.08-1.51,1.89-3.3,3.59-5.24,5.03-4.05,3.02-8.69,5.19-13.41,6.94-5.52,2.04-11.41,4.22-17.35,4.33-6.01,.12-11.78-2.64-16.97-5.4-5.08-2.71-9.92-6.23-12.58-11.48-.55-1.08-2.12-.13-1.61,.94,2.37,5.01,6.63,8.66,11.3,11.46,2.41,1.44,4.93,2.68,7.47,3.86,3.11,1.44,6.09,2.78,9.53,3.2,6.62,.81,13.45-1.23,19.63-3.41,5.21-1.84,10.38-4.07,14.9-7.28,2.46-1.75,4.75-3.75,6.63-6.12,.96-1.21,1.76-2.45,2.46-3.83,.68-1.36,1.52-2.85,.35-4.16Z"/>
      <path class="cls-10" d="M723.55,420.12c-1.49-.71-2.73-1.69-4.29-2.29-1.58-.62-3.2-1.13-4.77-1.79-2.45-1.04-4.83-2.24-7.15-3.54,.11-.84-.25-1.75-.52-2.62-.43-1.38-.88-2.76-1.33-4.14-.87-2.69-1.69-5.39-2.62-8.06-.93-2.67-1.82-5.36-2.74-8.03-.3-.88-.66-2.25-1.45-2.82-.18-.13-.88-.47-1.02-.11-.32,.8,.21,1.63,.41,2.41,.28,1.11,.51,2.24,.77,3.36,.58,2.54,1.13,5.09,1.8,7.61,.65,2.45,1.34,4.89,2.03,7.32,.26,.93,.53,1.85,.81,2.78-2.14-1.35-4.24-2.78-6.46-3.99-1.38-.75-2.81-1.43-4.31-1.91-1.25-.4-2.96-.94-4.19-.27,0,0,0,0-.01,.01-.06-.25-.26-.45-.57-.45-2.15,.05-4.27,2.4-5.67,3.82-1.73,1.77-3.2,3.78-4.56,5.84-1.37,2.08-2.62,4.29-3.32,6.7-.45,1.57-1.1,4.37-.26,6.08-.15,.25-.19,.56,.02,.84,4.76,6.32,11.3,10.81,17.71,15.31,3.73,2.61,7.45,5.24,11.18,7.84,1.81,1.26,3.62,2.51,5.44,3.74,.97,.66,1.94,1.32,2.91,1.97,.97,.66,1.8,1.15,3.01,1.02,.59-.06,1.08-.55,.91-1.19-.59-2.12-3.13-3.19-4.84-4.34-1.83-1.22-3.66-2.44-5.5-3.64-3.68-2.4-7.37-4.78-11.07-7.17-6.34-4.1-12.87-8.17-17.81-13.97,.28-.84,.14-1.62,.14-2.53,0-1.2,.2-2.37,.55-3.52,.67-2.2,1.87-4.19,3.14-6.09,1.22-1.83,2.49-3.65,3.99-5.27,.76-.82,1.57-1.59,2.42-2.31,.65-.55,1.41-1.12,1.89-1.85,.03,.09,.08,.17,.16,.23,1.11,.87,2.77,.96,4.07,1.48,1.5,.61,2.91,1.45,4.26,2.33,2.74,1.77,5.44,3.6,8.25,5.25,2.86,1.68,5.82,3.21,8.87,4.51,1.53,.65,3.1,1.33,4.71,1.75,1.68,.44,3.18,.21,4.87,.2,.27,0,.42-.42,.15-.55Z"/>
      <path class="cls-10" d="M602.1,451.7c-1.01-.88-2.03-1.76-3.04-2.65-2-1.74-4.05-3.42-6.11-5.1-.72-.59-1.75,.38-1.05,1.05,1.91,1.83,3.82,3.66,5.78,5.43,.97,.87,1.93,1.75,2.9,2.62,.91,.82,2.05,1.73,3.3,1.91,.2,.03,.4-.12,.34-.34-.3-1.14-1.26-2.17-2.12-2.92Z"/>
      <path class="cls-10" d="M613.19,444.4c-.2-.51-1.11-.69-1.22,0-.41,2.64-.09,5.49-.08,8.16,.01,2.77-.13,5.53-.36,8.29-.23,2.7-.5,5.4-.76,8.1-.14,1.45-.3,2.91-.4,4.36-.09,1.33-.12,2.52,.68,3.64,.11,.15,.31,.2,.46,.06,.95-.91,1.16-1.99,1.32-3.26,.17-1.45,.29-2.91,.41-4.36,.24-2.78,.5-5.55,.7-8.33,.21-2.75,.34-5.51,.3-8.28-.04-2.68-.07-5.85-1.06-8.38Z"/>
      <g>
        <path class="cls-4" d="M617.8,298.3s-.02,.01-.04,.02c.12-.02,.17-.06,.16-.06-.01,0-.03,0-.04,.01-.02,0-.05,.02-.07,.03Z"/>
        <path class="cls-4" d="M622.49,295.66c-.66-.7-1.85-.88-2.77-1-1.42-.18-2.96,.1-4.12,.97-.64,.48-1.23,1.05-1.58,1.78-.27,.57-.3,1.06-.22,1.66,.05,.36,.14,.72,.42,.99,.33,.31,.88,.57,1.34,.38,.36-.15,.65-.32,.87-.66,.02-.03,.04-.07,.06-.11,.25-.2,.41-.55,.57-.82,.02-.02,.03-.04,.05-.06,.08-.09,.17-.16,.26-.25,0,0,.02-.01,.03-.02,.12-.08,.24-.14,.36-.2-.02,0-.04,.01-.07,.02,.03,0,.07-.02,.11-.04,.01,0,.02-.01,.03-.02,.05-.03,.08-.03,.09-.02,.11-.03,.22-.07,.33-.09,.03,0,.05-.01,.08-.02,.18,0,.35-.02,.53-.02,.06,0,.18,0,.29,0,0,0,.04,.02,.1,.03,.08,.02,.16,.03,.24,.05,.35,.07,.69,.15,1.04,.24,.7,.18,1.5,.11,2.04-.43,.66-.67,.54-1.7-.08-2.35Z"/>
      </g>
      <g>
        <path class="cls-4" d="M649,291.32c-.98-.55-2.06-.86-3.18-.91-1.14-.05-2.25,.25-3.27,.72-.5,.23-.94,.55-1.37,.9-.56,.45-.9,.95-1.1,1.65-.17,.59,.07,1.24,.55,1.6,.5,.39,1.13,.4,1.69,.12,.22-.11,.43-.2,.63-.35,.11-.09,.21-.18,.32-.27,0,0,.02-.02,.04-.04,.04-.03,.17-.13,.18-.14,.07-.05,.15-.1,.22-.14,.15-.09,.31-.17,.47-.25,0,0,0,0,0,0,0,0,0,0,0,0,.08-.02,.17-.06,.25-.09,.17-.05,.34-.1,.51-.13,0,0,0,0,0,0,0,0-.01,0-.02,0,0,0,.02,0,.04,0,.13-.03,.15-.02,.13-.01,.04,0,.08-.01,.09-.01,.2-.01,.4,0,.59,0,.02,0,.06,0,.1,.01,.03,0,.06,.01,.07,.01,.19,.04,.38,.09,.56,.15,.02,0,.11,.05,.18,.07-.08-.04-.2-.11,0-.01,.02,0,.03,.02,.04,.02,.01,0,.02,0,.02,0,0,0,0,0-.02,0,.16,.08,.31,.16,.46,.25,.07,.05,.15,.09,.22,.14,0,0,.03,.02,.04,.03,.05,.04,.13,.11,.15,.12,.15,.13,.31,.25,.46,.37-.1-.07-.23-.18-.06-.04,.14,.12,.29,.25,.45,.36,.32,.21,.74,.34,1.13,.29,.73-.09,1.18-.42,1.45-1.1,.56-1.41-1.01-2.71-2.09-3.31Z"/>
        <path class="cls-4" d="M645,293.97s-.01,0-.02,0c.04,.01,.12,0,.15-.02-.04,0-.09,.01-.13,.01Z"/>
        <path class="cls-4" d="M646.73,294.19s.04,.01,.05,.02c0,0,0,0,0,0-.01,0-.02,0-.04-.01Z"/>
      </g>
      <path class="cls-4" d="M623.84,307.43c-.1-.19-.2-.37-.31-.55-.17-.51-.33-1.02-.51-1.53-.13-.37-.34-.69-.63-.94-.24-.3-.54-.52-.89-.67-.35-.18-.72-.25-1.1-.23-.39-.04-.77,.02-1.13,.19-.66,.31-1.27,.83-1.54,1.56-.07,.25-.14,.49-.2,.74-.07,.54-.01,1.06,.19,1.57,.25,.89,.51,1.77,.8,2.64,.14,.38,.35,.7,.64,.96,.24,.3,.54,.53,.9,.68,.24,.07,.48,.15,.73,.22,.4,.08,.78,.05,1.16-.08,.26-.03,.49-.13,.7-.29,.34-.16,.63-.41,.86-.73,.45-.65,.68-1.4,.6-2.22-.01-.12-.03-.24-.04-.37,0-.06,0-.11-.02-.17l-.2-.78Z"/>
      <path class="cls-4" d="M649.5,303.65c-.1-.19-.2-.37-.31-.55-.17-.51-.33-1.02-.51-1.53-.13-.37-.34-.69-.63-.94-.24-.3-.54-.52-.89-.67-.35-.18-.72-.25-1.1-.23-.39-.04-.77,.02-1.13,.19-.66,.31-1.27,.83-1.54,1.56-.07,.25-.14,.49-.2,.74-.07,.54-.01,1.06,.19,1.57,.25,.89,.51,1.77,.8,2.64,.14,.38,.35,.7,.64,.96,.24,.3,.54,.53,.9,.68,.24,.07,.48,.15,.73,.22,.4,.08,.78,.05,1.16-.08,.26-.03,.49-.13,.7-.29,.34-.16,.63-.41,.86-.73,.45-.65,.68-1.4,.6-2.22-.01-.12-.03-.24-.04-.37,0-.06,0-.11-.02-.17l-.2-.78Z"/>
      <path class="cls-6" d="M639.7,313.67c-.04-.18-.24-.22-.38-.15-.32,.13-.62,.21-.92,.39-.2,.12-.39,.22-.58,.38-.06,.05-.13,.11-.19,.16-.02,.02-.03,.03-.04,.04-.01,0-.03,.02-.06,.04-.13,.09-.25,.19-.38,.29-.03,.02-.04,.03-.05,.04,0,0,0,0-.02,.01-.15,.11-.3,.21-.46,.31-.16,.1-.32,.18-.49,.26-.06,.03-.13,.06-.19,.09-.02,0-.18,.07-.18,.07-.75,.27-1.27,.36-2.03,.34-.35-.01-.7-.04-1.04-.06-.18-.01-.35-.06-.53-.06-.2,0-.39,.05-.58,.08-.29,.05-.38,.41-.26,.63,.47,.85,1.49,1.15,2.41,1.24,.88,.09,1.81-.02,2.66-.28,.89-.27,1.82-.7,2.5-1.35,.37-.36,.63-.74,.8-1.23,.15-.42,.1-.81,0-1.23Z"/>
      <path class="cls-6" d="M640.5,321.72c-.02-.32-.34-.69-.71-.54-.33,.13-.6,.21-.86,.48-.1,.11-.21,.21-.33,.31-.01,.01-.01,.01-.02,.02,0,0,0,0-.01,0-.04,.03-.12,.09-.17,.12-.22,.16-.45,.29-.69,.41-.03,.02-.04,.02-.04,.02,0,0-.01,0-.04,.01-.07,.03-.14,.05-.21,.08-.13,.04-.27,.08-.4,.11-.06,.01-.12,.03-.18,.04,0,0-.1,.02-.13,.02-.13,.02-.25,.03-.38,.03-.14,0-.28,0-.41,0-.07,0-.13-.01-.2-.02-.02,0-.07-.01-.1-.02-.26-.05-.62-.11-.81-.15-.15-.03-.3-.07-.45-.09-.08,0-.38,.04-.42,.02-.14-.08-.27,.1-.17,.22,.02,.02,.03,.22,.05,.28,.02,.07,.06,.14,.09,.2,.09,.14,.23,.26,.36,.37,.29,.24,.57,.4,.94,.5,.68,.19,1.39,.22,2.09,.13,.69-.09,1.37-.32,1.96-.68,.31-.19,.59-.42,.83-.69,.16-.18,.33-.37,.39-.61,.05-.18,.03-.4,.02-.59Z"/>
      <path class="cls-2" d="M662.42,306.71c-.99-3.69-8.46-2.95-8.22,1.43,.23,4.15,7.68,3.73,8.27,.1,.09-.58,.07-1.09-.05-1.53Z"/>
      <path class="cls-2" d="M621.92,316.16c-.99-3.69-8.46-2.95-8.22,1.43,.23,4.15,7.68,3.73,8.27,.1,.09-.58,.07-1.09-.05-1.53Z"/>
      <path class="cls-12" d="M585.18,404.03c-.76,.2-1.37,.65-2.01,1.09-.63,.44-1.25,.89-1.86,1.35-1.27,.98-2.48,2.01-3.62,3.14-1.09,1.09-2.13,2.23-3.11,3.42-.95,1.17-1.88,2.57-1.91,4.13,0,.26,.26,.36,.47,.27,1.34-.59,2.33-1.8,3.22-2.91,.94-1.17,1.95-2.3,3.01-3.37,1.03-1.05,2.1-2.06,3.2-3.03,.58-.51,1.17-1,1.77-1.48,.61-.49,1.2-.89,1.68-1.52,.41-.54-.27-1.24-.84-1.09Z"/>
      <path class="cls-12" d="M590.3,406.73s-.03-.03-.05-.04c-.14-.14-.35-.2-.55-.14-1.37,.4-2.5,1.43-3.56,2.35-1.09,.95-2.07,2.02-2.99,3.12-.91,1.1-1.77,2.25-2.54,3.45-.41,.63-.79,1.25-1.06,1.94-.26,.67-.33,1.37-.29,2.09,.01,.2,.25,.39,.44,.25,.58-.41,1.11-.85,1.53-1.42,.46-.61,.83-1.26,1.24-1.9,.79-1.23,1.65-2.4,2.6-3.51,.96-1.12,1.99-2.19,3.05-3.21,.55-.53,1.1-1.03,1.62-1.58,.26-.28,.99-.97,.56-1.4Z"/>
      <path class="cls-12" d="M593.77,410.67c-1.53-.38-2.83,1.11-3.77,2.13-1.16,1.26-2.24,2.61-3.24,4-1.85,2.6-3.81,5.69-3.66,9.01,0,.19,.24,.3,.38,.16,2.23-2.19,3.53-5.17,5.3-7.71,.89-1.27,1.86-2.48,2.9-3.62,.94-1.03,2.46-2.23,2.28-3.75-.01-.11-.07-.21-.18-.23Z"/>
      <path class="cls-5" d="M580.01,390.29s0-.01,0-.02c-.03-.26-.07-.51-.1-.77,0-.01,0-.02,0-.03-.14-.49-.38-.91-.74-1.27-.36-.36-.78-.6-1.27-.74-.51-.14-1.02-.14-1.52,0-.3,.08-.57,.23-.82,.39-.16,.1-.31,.21-.44,.34,0,0,0,0,0,0-.01,.01-.03,.03-.04,.04,0,0,.02-.01,.03-.02-.1,.1-.2,.21-.28,.34-.26,.28-.43,.61-.52,.99,0,.02,0,.04,0,.06-.03,.07-.06,.13-.08,.2-.03,.24-.07,.49-.1,.73-.01,.38,.06,.73,.24,1.06,.07,.23,.18,.43,.35,.61,.12,.21,.29,.37,.49,.49,.17,.17,.37,.29,.61,.35,.13,.07,.26,.11,.4,.15h-.06s.04,0,.07,0c.2,.06,.41,.09,.63,.09,.03,0,.05,0,.08,0,.02,0,.04,0,.06,0,.01,0,.02,0,.03,0l.75-.1h.01s.04,0,.06-.02c0,0,.02,0,.02,0,.23-.1,.46-.19,.69-.29,0,0,.01,0,.02,0,.24-.13-.35,.49,.6-.46,.4-.4,.43-.52,.61-.95,.13-.23,.2-.47,.2-.74,.03-.13,.05-.26,.05-.4,0,0,0-.02,0-.03Z"/>
      <path class="cls-1" d="M622.73,405.45c-.91-.55-1.92-.83-2.95-.89-.68-.16-1.35-.17-2-.06-1.11,.06-2.2,.38-3.16,.99-2.28,1.45-3.64,4.07-3.55,6.77,.08,2.63,1.43,5.26,3.84,6.48,.41,.21,.84,.37,1.28,.51,.77,.28,1.58,.42,2.39,.4,.11,0,.21,0,.32,0,.03,0,.05,0,.08,0,.01,0,.03,0,.04,0,1.21-.04,2.41-.34,3.52-.92,2.39-1.25,3.74-3.87,3.82-6.5,.08-2.7-1.3-5.38-3.62-6.78Z"/>
      <path class="cls-5" d="M644.81,385.75c-3.46-.97-7.18-.4-10.73-.29-3.71,.11-7.42,.19-11.13,.24-3.64,.04-7.28,.11-10.92,.12-1.89,0-3.78,.03-5.68,.04-1.5,.01-3.53-.32-4.88,.4-.11,.06-.1,.21,0,.27,1.31,.78,3.41,.53,4.88,.59,1.82,.08,3.64,.14,5.46,.17,3.71,.07,7.42,.12,11.14,.08,3.64-.04,7.28-.11,10.92-.21,3.63-.1,7.52,.2,10.95-1.12,.13-.05,.15-.25,0-.29Z"/>
      <path class="cls-5" d="M663.54,414.71c-.62-1.72-1.25-3.45-1.87-5.17-1.21-3.35-2.48-6.67-3.83-9.97-1.38-3.37-2.64-6.78-3.93-10.18-.39-1.03-.83-2.17-1.84-2.75-.58-.33-1.9-.7-2.09,.23-.02,.08,.01,.14,.07,.18,.39,.28,.88,.15,1.31,.33,.8,.35,1.14,1.2,1.42,1.96,.56,1.47,1.04,2.98,1.53,4.48,.99,2.99,1.92,5.99,2.89,8.98,.98,2.99,2.05,5.96,3.11,8.93,.54,1.52,1.06,3.05,1.63,4.56,.54,1.43,1.17,2.48,2.22,3.56,.09,.1,.24,.02,.25-.1,.15-1.84-.25-3.29-.88-5.03Z"/>
      <path class="cls-5" d="M671.46,436.11c-.55-2.3-1.31-4.52-2.24-6.69-.51-1.2-1.08-2.36-1.71-3.5-.44-.79-1.04-2.36-2.08-2.47-.03,0-.06,.02-.07,.05-.34,.89,.59,2.04,.97,2.8,.53,1.05,1.02,2.11,1.48,3.19,.95,2.21,1.72,4.51,2.33,6.84,.11,.43,.34,2.15,1.13,2,.81-.15,.29-1.79,.19-2.23Z"/>
    </g>
    <path class="cls-1" d="M618.64,229.81c-2.59-1.13-5.56-1.48-8.37-1.58-3-.11-6.03,.18-8.97,.8-6.16,1.31-11.62,4.42-16.74,7.98-1.25,.87-2.48,1.77-3.69,2.69-1.19,.91-3.06,2.05-3.16,3.72-.05,.85,.52,1,1.33,.88,1.54-.23,2.83-1.58,4.02-2.49,4.97-3.76,10.36-7.41,16.39-9.2,3.26-.97,6.64-1.43,10.04-1.38,1.69,.02,3.39,.15,5.06,.42,1.41,.23,3.11,.81,4.3-.28,.44-.4,.38-1.32-.2-1.58Z"/>
    <path class="cls-1" d="M586.76,319.09c-1.92-1.82-5.3-1.56-7.74-1.16-2.75,.45-5.38,1.58-7.78,2.97-4.86,2.83-8.66,7-12.83,10.71-4.04,3.59-8.66,6.74-14.2,7.18-5.23,.41-10.6-1.24-14.48-4.82-2.16-1.99-3.87-4.48-4.94-7.22-.54-1.37-.88-2.8-1.27-4.21-.31-1.15-.34-2.65-1.26-3.47-.03-.03-.07-.03-.11,0-.92,.73-.86,2-.88,3.1-.03,1.34,.21,2.7,.59,3.98,.75,2.6,2.05,5.06,3.7,7.2,3.35,4.34,8.31,7.19,13.73,8,5.72,.85,11.31-.57,16.09-3.78,4.69-3.14,8.43-7.4,12.75-11,2.53-2.11,5.42-3.98,8.55-5.06,1.44-.5,2.94-.85,4.47-.92,1.64-.07,3.25,.48,4.86,.29,.84-.1,1.47-1.11,.75-1.8Z"/>
    <path class="cls-1" d="M494.26,419c-.53-.62-1.03-1.28-1.49-1.95-.99-1.45-1.85-3.01-2.55-4.63-1.38-3.19-2.17-6.65-2.41-10.11-.27-3.94,.15-7.89,1.09-11.72,.48-1.97,1.12-3.89,1.76-5.81,.3-.89,.6-1.79,.8-2.7,.17-.81,.47-1.71,.17-2.51-.02-.06-.08-.11-.15-.09-1.19,.37-2.05,1.99-2.58,3.02-.75,1.49-1.35,3.04-1.84,4.63-1,3.2-1.67,6.51-1.95,9.85-.51,6.15,.52,12.4,3.23,17.96,.72,1.48,1.57,2.89,2.54,4.22,.85,1.17,2,3.17,3.59,3.2,.59,.01,1.08-.51,1.09-1.09,.01-1-.68-1.57-1.29-2.29Z"/>
    <path class="cls-1" d="M583.43,480.05c-.64,.16-1.24,.26-1.89,.29-.37,.02-.72,.05-1.08,.14-.93,.23-1.8,.75-2.65,1.16-1.76,.86-3.5,1.75-5.28,2.56-3.04,1.39-6.31,1.78-9.55,.85-3.28-.94-5.79-3.15-7.78-5.85-1.04-1.41-1.98-2.9-2.95-4.36-.86-1.29-1.77-3.26-3.44-3.46-.06,0-.11,.05-.13,.1-.36,1.04,.07,1.75,.57,2.69,.51,.97,1.11,1.9,1.68,2.84,.95,1.56,1.95,3.08,3.08,4.5,2.21,2.79,5.03,4.96,8.5,5.92,3.41,.95,7,.68,10.26-.68,1.87-.78,3.68-1.73,5.51-2.61,1.02-.5,2.14-.92,3.06-1.59,.85-.62,1.46-1.5,2.29-2.15,.17-.13-.02-.39-.2-.35Z"/>
    <path class="cls-1" d="M767.82,483.68c-.21-.13-.5-.12-.67-.27-.19-.17-.45,0-.41,.23-.38,.21-.55,.61-.73,1.02-.34,.79-.94,1.34-1.6,1.88-1.3,1.06-2.81,1.9-4.39,2.46-3.26,1.16-6.77,1.23-10.06,.14-3.32-1.09-6.2-3.23-8.67-5.65-2.47-2.41-4.43-5.45-7.37-7.35-2.89-1.87-7.58-2.38-10.1,.46-.28,.32,0,.79,.41,.7,1.76-.36,3.45-.76,5.27-.47,1.75,.27,3.25,1.11,4.54,2.3,2.6,2.38,4.6,5.31,7.3,7.61,5.26,4.5,12.01,6.92,18.83,4.75,1.79-.57,3.51-1.41,5.03-2.51,1.46-1.06,3.05-2.36,3.2-4.28,.03-.41-.25-.8-.58-1.01Z"/>
    <path class="cls-1" d="M782.98,404.98c-.08-2.05-.56-4.06-1.37-5.94-1.59-3.7-4.5-6.75-8.25-8.29-4.89-2-10.28-1.43-15.43-1.92-4.92-.47-9.53-2.48-13.03-6.01-1.96-1.98-3.44-4.41-5.74-6.04-1.03-.73-2.23-1.29-3.48-1.51-.59-.11-1.36-.25-1.92,.04-.42,.22-.73,.71-1.01,1.08-.12,.16,.02,.35,.17,.42,.54,.23,.83,.58,1.43,.67,.46,.08,.92,.06,1.39,.19,1.18,.34,2.22,1.04,3.1,1.87,1.65,1.56,2.91,3.48,4.51,5.08,3.09,3.1,7.13,5.3,11.42,6.18,4.72,.97,9.59,.39,14.31,1.29,3.99,.76,7.33,2.82,9.44,6.34,1.05,1.76,1.75,3.76,1.95,5.8,.19,1.94-.31,4.04,.12,5.93,.08,.34,.48,.38,.72,.19,1.47-1.2,1.74-3.61,1.67-5.38Z"/>
    <path class="cls-1" d="M748.41,305.32c-.86-1.19-2.52-1.46-3.91-1.62-1.47-.18-2.96-.06-4.41,.27-3.06,.71-5.79,2.44-7.96,4.69-2.17,2.26-3.82,4.97-5.17,7.79-1.33,2.79-2.42,6.03-4.95,7.99-1.54,1.19-3.49,1.84-5.4,2.14-1.97,.31-4.05,0-5.99,.42-.45,.1-.41,.65-.11,.88,2.5,1.89,6.85,1.16,9.56,.18,3.02-1.09,5.21-3.12,6.75-5.91,1.48-2.66,2.51-5.53,4.13-8.12,1.64-2.62,3.74-5.02,6.47-6.52,1.48-.81,3.15-1.36,4.84-1.49,1.38-.1,3.17-.03,4.43,.7,.37,.42,1.35,.45,1.7-.29,.16-.34,.24-.78,0-1.11Z"/>
    <path class="cls-1" d="M706.34,252.95c-.13-.24-.08-.54-.22-.84-.2-.42-.57-.66-.96-.88-.74-.42-1.51-.8-2.28-1.16-1.63-.76-3.31-1.41-5.04-1.94-1.68-.51-3.4-.88-5.14-1.13-.83-.12-1.66-.21-2.5-.18-.43,.02-.89,.05-1.3,.17-.36,.11-.62,.35-.97,.48-.12,.04-.18,.24-.04,.3,.31,.14,.56,.39,.86,.54,.37,.18,.8,.27,1.2,.36,.83,.19,1.66,.31,2.5,.46,1.62,.29,3.23,.68,4.8,1.17,1.59,.49,3.14,1.08,4.64,1.78,.77,.36,1.51,.79,2.27,1.17,.36,.18,.71,.35,1.13,.31,.17,0,.34-.04,.49-.13,.1-.18,.21-.2,.33-.06,.22,0,.33-.24,.24-.42Z"/>
  </g>
</svg>