<?xml version="1.0" encoding="UTF-8"?>
<svg id="Layer_1" data-name="Layer 1" xmlns="http://www.w3.org/2000/svg" viewBox="0 0 606.94 87.71">
  <defs>
    <style>
      .cls-1 {
        fill: #231f20;
      }
    </style>
  </defs>
  <g>
    <path class="cls-1" d="M175.08,67.41V22.71h30.06v8.1h-20.76v10.14h19.56v8.1h-19.56v10.26h20.76v8.1h-30.06Z"/>
    <path class="cls-1" d="M222.42,67.41V22.71h14.58c4.84,0,9.04,.96,12.6,2.88,3.56,1.92,6.32,4.56,8.28,7.92,1.96,3.36,2.94,7.2,2.94,11.52s-.98,8.17-2.94,11.55c-1.96,3.38-4.72,6.03-8.28,7.95-3.56,1.92-7.76,2.88-12.6,2.88h-14.58Zm9.3-8.1h5.52c2.92,0,5.44-.59,7.56-1.77,2.12-1.18,3.77-2.84,4.95-4.98,1.18-2.14,1.77-4.65,1.77-7.53s-.59-5.44-1.77-7.56c-1.18-2.12-2.83-3.76-4.95-4.92-2.12-1.16-4.64-1.74-7.56-1.74h-5.52v28.5Z"/>
    <path class="cls-1" d="M296.52,68.13c-3.52,0-6.66-.74-9.42-2.22-2.76-1.48-4.93-3.51-6.51-6.09-1.58-2.58-2.37-5.51-2.37-8.79V22.71h9.3v27.72c0,1.76,.39,3.35,1.17,4.77,.78,1.42,1.85,2.53,3.21,3.33,1.36,.8,2.9,1.2,4.62,1.2s3.31-.4,4.65-1.2c1.34-.8,2.4-1.91,3.18-3.33,.78-1.42,1.17-3.01,1.17-4.77V22.71h9.3v28.32c0,3.28-.79,6.21-2.37,8.79-1.58,2.58-3.75,4.61-6.51,6.09-2.76,1.48-5.9,2.22-9.42,2.22Z"/>
    <path class="cls-1" d="M356.58,68.13c-3.36,0-6.48-.58-9.36-1.74-2.88-1.16-5.39-2.79-7.53-4.89-2.14-2.1-3.81-4.55-5.01-7.35-1.2-2.8-1.8-5.84-1.8-9.12s.59-6.32,1.77-9.12c1.18-2.8,2.84-5.24,4.98-7.32,2.14-2.08,4.65-3.7,7.53-4.86s6.02-1.74,9.42-1.74,6.54,.58,9.42,1.74c2.88,1.16,5.39,2.78,7.53,4.86,2.14,2.08,3.8,4.52,4.98,7.32,1.18,2.8,1.77,5.84,1.77,9.12s-.6,6.32-1.8,9.12c-1.2,2.8-2.87,5.25-5.01,7.35-2.14,2.1-4.65,3.73-7.53,4.89-2.88,1.16-6,1.74-9.36,1.74Zm0-8.4c2.04,0,3.93-.36,5.67-1.08,1.74-.72,3.27-1.73,4.59-3.03,1.32-1.3,2.34-2.85,3.06-4.65,.72-1.8,1.08-3.78,1.08-5.94s-.36-4.13-1.08-5.91c-.72-1.78-1.74-3.33-3.06-4.65-1.32-1.32-2.85-2.33-4.59-3.03-1.74-.7-3.63-1.05-5.67-1.05s-3.93,.35-5.67,1.05c-1.74,.7-3.27,1.71-4.59,3.03-1.32,1.32-2.34,2.87-3.06,4.65-.72,1.78-1.08,3.75-1.08,5.91s.36,4.14,1.08,5.94c.72,1.8,1.74,3.35,3.06,4.65,1.32,1.3,2.85,2.31,4.59,3.03,1.74,.72,3.63,1.08,5.67,1.08Zm9.48,13.08l-13.32-23.28h9.6l13.5,23.28h-9.78Z"/>
    <path class="cls-1" d="M416.64,68.13c-3.52,0-6.66-.74-9.42-2.22-2.76-1.48-4.93-3.51-6.51-6.09-1.58-2.58-2.37-5.51-2.37-8.79V22.71h9.3v27.72c0,1.76,.39,3.35,1.17,4.77,.78,1.42,1.85,2.53,3.21,3.33,1.36,.8,2.9,1.2,4.62,1.2s3.31-.4,4.65-1.2c1.34-.8,2.4-1.91,3.18-3.33,.78-1.42,1.17-3.01,1.17-4.77V22.71h9.3v28.32c0,3.28-.79,6.21-2.37,8.79-1.58,2.58-3.75,4.61-6.51,6.09-2.76,1.48-5.9,2.22-9.42,2.22Z"/>
    <path class="cls-1" d="M454.32,67.41V22.71h30.06v8.1h-20.76v10.14h19.56v8.1h-19.56v10.26h20.76v8.1h-30.06Z"/>
    <path class="cls-1" d="M517.92,68.13c-2.8,0-5.43-.51-7.89-1.53-2.46-1.02-4.58-2.47-6.36-4.35-1.78-1.88-3.11-4.1-3.99-6.66l7.62-3.42c1.12,2.44,2.67,4.36,4.65,5.76,1.98,1.4,4.17,2.1,6.57,2.1,1.28,0,2.38-.2,3.3-.6,.92-.4,1.64-.95,2.16-1.65,.52-.7,.78-1.53,.78-2.49,0-1.04-.32-1.93-.96-2.67-.64-.74-1.64-1.33-3-1.77l-8.76-2.88c-3.56-1.16-6.24-2.81-8.04-4.95s-2.7-4.71-2.7-7.71c0-2.64,.65-4.96,1.95-6.96s3.12-3.56,5.46-4.68c2.34-1.12,5.03-1.68,8.07-1.68,2.68,0,5.16,.46,7.44,1.38,2.28,.92,4.25,2.22,5.91,3.9,1.66,1.68,2.91,3.7,3.75,6.06l-7.56,3.42c-.84-2.08-2.1-3.71-3.78-4.89s-3.6-1.77-5.76-1.77c-1.24,0-2.34,.2-3.3,.6-.96,.4-1.7,.97-2.22,1.71s-.78,1.59-.78,2.55c0,1.04,.34,1.95,1.02,2.73,.68,.78,1.7,1.39,3.06,1.83l8.58,2.76c3.6,1.16,6.29,2.78,8.07,4.86,1.78,2.08,2.67,4.62,2.67,7.62,0,2.6-.68,4.91-2.04,6.93-1.36,2.02-3.23,3.6-5.61,4.74-2.38,1.14-5.15,1.71-8.31,1.71Z"/>
    <path class="cls-1" d="M560.52,67.41V30.81h-11.34v-8.1h31.8v8.1h-11.16v36.6h-9.3Z"/>
  </g>
  <g>
    <g>
      <path class="cls-1" d="M121.4,69.17l-30.95,17.81c-3.57,2.06-8.03-.52-8.03-4.64v-25.11c0-7.06,3.77-13.58,9.89-17.1l30.95-17.81c3.57-2.06,8.03,.52,8.03,4.64v25.11c0,7.06-3.77,13.58-9.89,17.1Z"/>
      <path class="cls-1" d="M33.4,69.17l30.95,17.81c3.57,2.06,8.03-.52,8.03-4.64v-25.11c0-7.06-3.77-13.58-9.89-17.1L31.55,22.32c-3.57-2.06-8.03,.52-8.03,4.64v25.11c0,7.06,3.77,13.58,9.89,17.1Z"/>
    </g>
    <circle class="cls-1" cx="77.4" cy="15.39" r="15.39"/>
  </g>
</svg>