<svg xmlns="http://www.w3.org/2000/svg" version="1.1" xmlns:xlink="http://www.w3.org/1999/xlink" width="512" height="512" x="0" y="0" viewBox="0 0 512 512" style="enable-background:new 0 0 512 512" xml:space="preserve" class=""><g><path fill="#49658c" d="M180 270h55c8.271 0 15-6.729 15-15v-20c0-8.284 6.716-15 15-15s15 6.716 15 15v20c0 24.813-20.187 45-45 45h-55zM150 375v50c0 8.271 6.729 15 15 15h130c8.284 0 15 6.716 15 15s-6.716 15-15 15H165c-24.813 0-45-20.187-45-45v-50z" opacity="1" data-original="#49658c"></path><path fill="#ffd45b" d="M407 242c-57.897 0-105 47.103-105 105 0 36.87 18.934 70.308 50 89.356L407 452l16-105z" opacity="1" data-original="#ffd45b"></path><path fill="#ffad5a" d="m407 452 55-15.644c31.066-19.048 50-52.486 50-89.356 0-57.897-47.103-105-105-105z" opacity="1" data-original="#ffad5a"></path><path fill="#ff7e65" d="M452 0c-8.284 0-15 6.716-15 15v160h30V15c0-8.284-6.716-15-15-15z" opacity="1" data-original="#ff7e65"></path><path fill="#dd78ef" d="M257 175v-50c0-8.284 6.716-15 15-15s15 6.716 15 15v50z" opacity="1" data-original="#dd78ef"></path><path fill="#ffd45b" d="M332 80c-8.284 0-15 6.716-15 15v80h30V95c0-8.284-6.716-15-15-15z" opacity="1" data-original="#ffd45b"></path><path fill="#2ebeef" d="M392 40c-8.284 0-15 6.716-15 15v120h30V55c0-8.284-6.716-15-15-15z" opacity="1" data-original="#2ebeef"></path><path fill="#fff4f4" d="m407 345.787-14.394-14.393c-5.857-5.858-15.355-5.858-21.213 0s-5.858 15.355 0 21.213L392 373.213V451h15l8-52.607z" opacity="1" data-original="#fff4f4"></path><path fill="#ebebf0" d="M407 451h15v-77.787l20.606-20.606c5.858-5.858 5.858-15.355 0-21.213-5.857-5.858-15.355-5.858-21.213 0L407 345.787z" opacity="1" data-original="#ebebf0"></path><path fill="#49658c" d="M407 436.356h-55V497c0 8.284 6.716 15 15 15h40l16-37.822z" opacity="1" data-original="#49658c"></path><path fill="#38336b" d="M407 512h40c8.284 0 15-6.716 15-15v-60.644h-55z" opacity="1" data-original="#38336b"></path><path fill="#dd78ef" d="M195 60c0-33.084-26.916-60-60-60-28.387 0-52.233 19.816-58.432 46.342C45.761 52.587 22.5 79.878 22.5 112.5a67.224 67.224 0 0 0 4.681 24.722C10.14 151.314 0 172.375 0 195s10.14 43.686 27.181 57.777A67.233 67.233 0 0 0 22.5 277.5c0 32.622 23.261 59.913 54.068 66.158C82.767 370.184 106.613 390 135 390c33.084 0 60-26.916 60-60V210l-29-15h-3l32-15z" opacity="1" data-original="#dd78ef"></path><path fill="#a061e2" d="M180 180c-24.853 0-45-20.147-45-45 0-8.284-6.716-15-15-15-8.284 0-15 6.716-15 15 0 24.507 11.815 46.305 30.048 60C116.815 208.695 105 230.493 105 255c0 8.284 6.716 15 15 15 8.284 0 15-6.716 15-15 0-24.853 20.147-45 45-45h15v-30z" opacity="1" data-original="#a061e2"></path><path fill="#49658c" d="M252 160c-8.284 0-15 6.716-15 15s6.716 15 15 15h155l10-14-10-16z" opacity="1" data-original="#49658c"></path><path fill="#38336b" d="M472 160h-65v30h65c8.284 0 15-6.716 15-15s-6.716-15-15-15z" opacity="1" data-original="#38336b"></path></g></svg>