<svg xmlns="http://www.w3.org/2000/svg" version="1.1" xmlns:xlink="http://www.w3.org/1999/xlink" width="512" height="512" x="0" y="0" viewBox="0 0 512 512" style="enable-background:new 0 0 512 512" xml:space="preserve" class=""><g><path fill="#8db9ff" d="M491.396 133.924h-285.36c-11.379 0-20.604-9.225-20.604-20.604V20.604C185.433 9.225 194.657 0 206.036 0h285.36C502.775 0 512 9.225 512 20.604v92.716c0 11.379-9.225 20.604-20.604 20.604z" opacity="1" data-original="#b5efff" class=""></path><path fill="#70abf2" d="M226.64 113.32V20.604C226.64 9.225 235.864 0 247.243 0h-41.207c-11.379 0-20.604 9.225-20.604 20.604v92.716c0 11.379 9.225 20.604 20.604 20.604h41.207c-11.379 0-20.603-9.225-20.603-20.604z" opacity="1" data-original="#a3d4ff" class=""></path><path fill="#ff7e7b" d="M491.396 322.962h-285.36c-11.379 0-20.604-9.225-20.604-20.604v-92.716c0-11.379 9.225-20.604 20.604-20.604h285.36c11.379 0 20.604 9.225 20.604 20.604v92.716c0 11.379-9.225 20.604-20.604 20.604z" opacity="1" data-original="#ff9696" class=""></path><path fill="#ff6464" d="M226.64 302.358v-92.716c0-11.379 9.225-20.604 20.604-20.604h-41.207c-11.379 0-20.604 9.225-20.604 20.604v92.716c0 11.379 9.225 20.604 20.604 20.604h41.207c-11.38 0-20.604-9.225-20.604-20.604z" opacity="1" data-original="#ff73a5" class=""></path><path fill="#ffe177" d="M491.396 512h-285.36c-11.379 0-20.604-9.225-20.604-20.604V398.68c0-11.379 9.225-20.604 20.604-20.604h285.36c11.379 0 20.604 9.225 20.604 20.604v92.716c0 11.379-9.225 20.604-20.604 20.604z" opacity="1" data-original="#c2fa93" class=""></path><path fill="#ffd15b" d="M226.64 491.396V398.68c0-11.379 9.225-20.604 20.604-20.604h-41.207c-11.379 0-20.604 9.225-20.604 20.604v92.716c0 11.379 9.225 20.604 20.604 20.604h41.207c-11.38 0-20.604-9.225-20.604-20.604z" opacity="1" data-original="#95e8c8" class=""></path><path fill="#8db9ff" d="M113.32 0H20.604C9.225 0 0 9.225 0 20.604v92.716c0 11.379 9.225 20.604 20.604 20.604h92.716c11.379 0 20.604-9.225 20.604-20.604V20.604C133.924 9.225 124.699 0 113.32 0zm-10.302 103.018H30.905V30.905h72.113z" opacity="1" data-original="#b5efff" class=""></path><path fill="#ff7e7b" d="M113.32 189.038H20.604C9.225 189.038 0 198.263 0 209.642v92.716c0 11.379 9.225 20.604 20.604 20.604h92.716c11.379 0 20.604-9.225 20.604-20.604v-92.716c0-11.379-9.225-20.604-20.604-20.604zm-10.302 103.018H30.905v-72.113h72.113z" opacity="1" data-original="#ff9696" class=""></path><path fill="#ffe177" d="M113.32 378.076H20.604C9.225 378.076 0 387.301 0 398.68v92.716C0 502.775 9.225 512 20.604 512h92.716c11.379 0 20.604-9.225 20.604-20.604V398.68c0-11.379-9.225-20.604-20.604-20.604zm-10.302 103.019H30.905v-72.113h72.113z" opacity="1" data-original="#c2fa93" class=""></path><g fill="#fff"><path d="M465.461 48.707H231.972c-4.143 0-7.5-3.357-7.5-7.5s3.357-7.5 7.5-7.5h233.489c4.143 0 7.5 3.357 7.5 7.5s-3.357 7.5-7.5 7.5zM348.716 100.216H231.972c-4.143 0-7.5-3.357-7.5-7.5s3.357-7.5 7.5-7.5h116.744c4.143 0 7.5 3.357 7.5 7.5s-3.358 7.5-7.5 7.5zM465.461 237.745H231.972c-4.143 0-7.5-3.357-7.5-7.5s3.357-7.5 7.5-7.5h233.489c4.143 0 7.5 3.357 7.5 7.5s-3.357 7.5-7.5 7.5zM348.716 289.255H231.972c-4.143 0-7.5-3.357-7.5-7.5s3.357-7.5 7.5-7.5h116.744c4.143 0 7.5 3.357 7.5 7.5s-3.358 7.5-7.5 7.5zM465.461 426.784H231.972c-4.143 0-7.5-3.357-7.5-7.5s3.357-7.5 7.5-7.5h233.489c4.143 0 7.5 3.357 7.5 7.5s-3.357 7.5-7.5 7.5zM348.716 478.293H231.972c-4.143 0-7.5-3.357-7.5-7.5s3.357-7.5 7.5-7.5h116.744c4.143 0 7.5 3.357 7.5 7.5s-3.358 7.5-7.5 7.5z" fill="#ffffff" opacity="1" data-original="#ffffff" class=""></path></g></g></svg>