<?xml version="1.0" encoding="utf-8"?>
<!-- Generator: Adobe Illustrator 26.5.0, SVG Export Plug-In . SVG Version: 6.00 Build 0)  -->
<svg version="1.1" id="Layer_1" xmlns="http://www.w3.org/2000/svg" xmlns:xlink="http://www.w3.org/1999/xlink" x="0px" y="0px"
	 viewBox="0 0 512 512" style="enable-background:new 0 0 512 512;" xml:space="preserve">
<style type="text/css">
	.st0{fill:#E9E9E0;}
	.st1{fill:#D9D7CA;}
	.st2{fill:#CC3A41;}
	.st3{fill:#FFFFFF;}
</style>
<g>
	<path class="st0" d="M338.1,0H72.8c-7.4,0-13.4,6-13.4,17.6v485.2c0,3.2,6,9.1,13.4,9.1h366.4c7.4,0,13.4-6,13.4-9.1V118.7
		c0-6.4-0.9-8.4-2.3-9.9L343.8,2.3C342.3,0.8,340.3,0,338.1,0z"/>
	<path class="st1" d="M342.9,1.4v108.3h108.3L342.9,1.4z"/>
	<path class="st2" d="M178.4,304.7c-3.2,0-6.2-1-8.8-3c-9.5-7.1-10.8-15.1-10.2-20.5c1.7-14.9,20.1-30.5,54.7-46.3
		c13.8-30.1,26.8-67.3,34.6-98.3c-9.1-19.9-18-45.6-11.5-60.7c2.3-5.3,5.1-9.4,10.4-11.1c3-0.8,6.1-1.4,9.3-1.6
		c4.6,0,8.7,5.9,11.5,9.6c2.7,3.4,8.8,10.7-3.4,62.2c12.3,25.5,29.8,51.4,46.5,69.1c12-2.2,22.3-3.3,30.7-3.3
		c14.3,0,23,3.3,26.5,10.2c2.9,5.7,1.7,12.3-3.6,19.7c-5.1,7.1-12.1,10.9-20.3,10.9c-11.1,0-24.1-7-38.5-20.9
		c-25.9,5.4-56.2,15.1-80.7,25.8c-7.6,16.2-15,29.3-21.8,38.9C194.5,298.6,186.4,304.7,178.4,304.7L178.4,304.7z M202.8,257.8
		c-19.5,11-27.5,20-28.1,25.1c-0.1,0.8-0.3,3.1,3.9,6.3C180,288.8,187.9,285.2,202.8,257.8L202.8,257.8z M327.4,217.2
		c7.5,5.7,9.3,8.6,14.1,8.6c2.1,0,8.2-0.1,11.1-4c1.4-1.9,1.9-3.1,2.1-3.8c-1.1-0.6-2.6-1.8-10.7-1.8
		C339.4,216.2,333.6,216.4,327.4,217.2L327.4,217.2z M259.1,157c-6.8,23.5-15,46.6-24.4,69.2c19.4-7.5,39.2-13.7,59.4-18.5
		C281.7,193.4,269.4,175.5,259.1,157L259.1,157z M253.6,79.7c-0.9,0.3-12.2,16.1,0.9,29.4C263.1,89.7,254,79.5,253.6,79.7z
		 M439.2,512H72.8c-7.4,0-13.4-6-13.4-13.4l0,0V356.6h393.1v142.1C452.6,506,446.6,512,439.2,512z"/>
	<path class="st3" d="M158.9,484.6h-15v-92.1h26.5c3.9,0,7.8,0.6,11.6,1.9c3.8,1.3,7.3,3.1,10.3,5.6c3,2.5,5.5,5.5,7.4,9.1
		s2.8,7.5,2.8,11.9c0,4.7-0.8,8.9-2.4,12.7c-1.5,3.6-3.7,6.9-6.6,9.6c-2.8,2.6-6.3,4.6-10.2,6c-4,1.4-8.4,2.1-13.2,2.1h-11.1
		L158.9,484.6L158.9,484.6z M158.9,403.8v36.5h13.8c1.8,0,3.6-0.3,5.4-0.9c1.8-0.6,3.4-1.6,4.9-3.1c1.5-1.4,2.7-3.4,3.6-5.9
		c0.9-2.5,1.4-5.7,1.4-9.4c0-1.5-0.2-3.2-0.6-5.2c-0.5-2-1.3-3.9-2.6-5.6c-1.4-1.9-3.3-3.4-5.4-4.5c-2.3-1.2-5.4-1.8-9.3-1.8
		L158.9,403.8L158.9,403.8z M294.6,435.9c0,7.6-0.8,14.1-2.4,19.4c-1.6,5.4-3.7,9.9-6.2,13.5c-2.5,3.6-5.3,6.5-8.4,8.6
		c-3.1,2.1-6.1,3.6-9.1,4.7c-2.6,1-5.3,1.6-8,2c-2.4,0.3-4.2,0.4-5.4,0.4h-34.9v-92.1h27.7c7.8,0,14.6,1.2,20.4,3.7
		c5.9,2.5,10.8,5.7,14.6,9.8c3.9,4.1,6.8,8.7,8.7,13.9C293.6,425.1,294.6,430.4,294.6,435.9L294.6,435.9z M250.1,473.6
		c10.2,0,17.5-3.2,22-9.7s6.7-15.9,6.7-28.3c0-3.8-0.5-7.6-1.4-11.4c-0.9-3.7-2.7-7.1-5.3-10.2s-6.2-5.5-10.7-7.4
		s-10.3-2.8-17.5-2.8h-8.7v69.8L250.1,473.6L250.1,473.6z M331.6,403.8v29h38.5v10.2h-38.5v41.5h-15.3v-92.1h57.6v11.4H331.6
		L331.6,403.8z"/>
</g>
</svg>
