<?xml version="1.0" encoding="utf-8"?>
<!-- Generator: Adobe Illustrator 26.5.0, SVG Export Plug-In . SVG Version: 6.00 Build 0)  -->
<svg version="1.1" id="Layer_1" xmlns="http://www.w3.org/2000/svg" xmlns:xlink="http://www.w3.org/1999/xlink" x="0px" y="0px"
	 viewBox="0 0 512 512" style="enable-background:new 0 0 512 512;" xml:space="preserve">
<style type="text/css">
	.st0{display:none;fill:#204DB9;}
	.st1{display:none;}
	.st2{display:inline;fill:#204DB9;}
	.st3{display:none;fill:#13479B;}
	.st4{display:inline;fill:#13479B;}
	.st5{display:none;fill:#E6F0FF;}
	.st6{display:none;fill:#D2DCF9;}
	.st7{fill:#FFCB5B;}
	.st8{fill:#FFB031;}
</style>
<g>
	<path class="st0" d="M512,256c0,141.4-135.7,247-256,247C128.1,503,0,397.4,0,256L75,75C121.3,28.7,185.3,0,256,0l181,75
		c44.3,44.3,72.4,104.7,74.8,171.7C511.9,249.8,512,252.9,512,256z"/>
	<g class="st1">
		<path class="st2" d="M402.5,109.5L437,75C390.7,28.7,326.7,0,256,0v48.9l66,38.8L402.5,109.5z M109.5,109.5L75,75
			C28.7,121.3,0,185.3,0,256h48.9l45.7-70.1L109.5,109.5z M463.1,256l-35.6,67.8l-25,78.6l25,25l9.5,0.5c46.3-46.3,75-101.3,75-172
			H463.1z"/>
	</g>
	<path class="st3" d="M256,493.4l-9,9.6l9,9c70.7,0,134.7-28.7,181-75v-9.4l-9.5-0.2C382.1,468.5,322,493.4,256,493.4z"/>
	<g class="st1">
		<path class="st4" d="M0.2,246.7L0.2,246.7L0.2,246.7L0.2,246.7z M0.7,256H0c0,70.7,28.7,134.7,75,181h9.5l0-9.5l0,0
			C36.9,384.5,5.6,323.9,0.7,256z"/>
	</g>
	<path class="st0" d="M109.5,402.5l-25,25L84,437c48.1,43.1,96.3,60.4,163,66l9-9.6v-30.3l-75.4-32.7L109.5,402.5z"/>
	<path class="st3" d="M75,437c46.3,46.3,110.3,75,181,75v-18.6c-66,0-126.1-25-171.5-65.9L75,437z M427.5,427.5l9.5,9.5
		c46.3-46.3,75-110.3,75-181h-0.7C506.5,323.9,475.1,384.5,427.5,427.5L427.5,427.5z"/>
	<path class="st5" d="M256,450.3c-206.9,0-207.1-200.5-206.9-203.6C53.9,136.6,144.7,48.9,256,48.9s202.1,87.8,206.9,197.8
		C463,249.8,462.9,450.3,256,450.3z"/>
	<path class="st6" d="M256,444.5c-111.3,0-202-87.8-206.9-197.8c-0.1,3.1-0.2,6.2-0.2,9.3c0,114.4,92.7,207.1,207.1,207.1
		S463.1,370.4,463.1,256c0-3.1-0.1-6.2-0.2-9.3C458,356.8,367.3,444.5,256,444.5L256,444.5z"/>
	<path class="st7" d="M298.2,27.4l43,87.1c6.9,13.9,20.1,23.5,35.4,25.7l96.1,14c38.6,5.6,54,53,26.1,80.2l-69.5,67.8
		c-11.1,10.8-16.1,26.4-13.5,41.6l16.4,95.7c2.5,14.4-1.7,27.5-9.6,37.4c-0.4,0.5-0.8,1-1.3,1.5h-57.4L256,421.2l-107.8,57.1
		l-57.4,0c-8.8-10-13.5-23.7-10.9-38.9l16.4-95.7c2.6-15.3-2.4-30.8-13.5-41.6l-69.5-67.8c-27.9-27.2-12.5-74.6,26.1-80.2l96.1-14
		c15.3-2.2,28.6-11.8,35.4-25.7l43-87.1C231.1-7.6,280.9-7.6,298.2,27.4L298.2,27.4z"/>
	<path class="st8" d="M250.7,394.3L90.8,478.3c13.5,15.3,36.5,21.7,57.4,10.7l85.9-45.2c13.7-7.2,30.1-7.2,43.8,0l85.9,45.2
		c20.9,11,43.9,4.6,57.4-10.7l-159.9-84.1C258,392.5,254,392.5,250.7,394.3z"/>
</g>
</svg>
