<?xml version="1.0" encoding="utf-8"?>
<!-- Generator: Adobe Illustrator 26.5.0, SVG Export Plug-In . SVG Version: 6.00 Build 0)  -->
<svg version="1.1" id="Layer_1" xmlns="http://www.w3.org/2000/svg" xmlns:xlink="http://www.w3.org/1999/xlink" x="0px" y="0px"
	 viewBox="0 0 512 512" style="enable-background:new 0 0 512 512;" xml:space="preserve">
<style type="text/css">
	.st0{fill:#E9E9E0;}
	.st1{fill:#D9D7CA;}
	.st2{fill:#F46B2F;}
	.st3{fill:#FFFFFF;}
	.st4{fill:#D3CCC9;}
</style>
<g>
	<path class="st0" d="M338.1,0H72.8c-7.4,0-13.4,6-13.4,17.6v485.2c0,3.2,6,9.1,13.4,9.1h366.4c7.4,0,13.4-6,13.4-9.1V118.7
		c0-6.4-0.9-8.4-2.3-9.9L343.8,2.3C342.3,0.8,340.3,0,338.1,0z"/>
	<path class="st1" d="M342.9,1.4v108.3h108.3L342.9,1.4z"/>
	<path class="st2" d="M439.2,512H72.8c-7.4,0-13.4-6-13.4-13.4l0,0V356.6h393.1v142.1C452.6,506,446.6,512,439.2,512z"/>
	<path class="st3" d="M160.7,484.6h-15v-92.1h26.5c3.9,0,7.8,0.6,11.6,1.9c3.8,1.3,7.3,3.1,10.3,5.6c3,2.5,5.5,5.5,7.4,9.1
		s2.8,7.5,2.8,11.9c0,4.7-0.8,8.9-2.4,12.7c-1.5,3.6-3.7,6.9-6.6,9.6c-2.8,2.6-6.3,4.6-10.2,6c-4,1.4-8.4,2.1-13.2,2.1h-11.1
		L160.7,484.6L160.7,484.6z M160.7,403.8v36.5h13.8c1.8,0,3.6-0.3,5.4-0.9c1.8-0.6,3.4-1.6,4.9-3.1c1.5-1.4,2.7-3.4,3.6-5.9
		c0.9-2.5,1.4-5.7,1.4-9.4c0-1.5-0.2-3.2-0.6-5.2c-0.5-2-1.3-3.9-2.6-5.6c-1.4-1.9-3.3-3.4-5.4-4.5c-2.3-1.2-5.4-1.8-9.3-1.8
		L160.7,403.8L160.7,403.8z M236.4,484.6h-15v-92.1h26.5c3.9,0,7.8,0.6,11.6,1.9c3.8,1.3,7.3,3.1,10.3,5.6c3,2.5,5.5,5.5,7.4,9.1
		c1.9,3.5,2.8,7.5,2.8,11.9c0,4.7-0.8,8.9-2.4,12.7c-1.5,3.6-3.7,6.9-6.6,9.6c-2.8,2.6-6.3,4.6-10.2,6c-4,1.4-8.4,2.1-13.2,2.1
		h-11.1L236.4,484.6L236.4,484.6z M236.4,403.8v36.5h13.8c1.8,0,3.6-0.3,5.4-0.9c1.8-0.6,3.4-1.6,4.9-3.1c1.5-1.4,2.7-3.4,3.6-5.9
		c0.9-2.5,1.4-5.7,1.4-9.4c0-1.5-0.2-3.2-0.6-5.2c-0.5-2-1.3-3.9-2.6-5.6c-1.4-1.9-3.3-3.4-5.4-4.5c-2.3-1.2-5.4-1.8-9.3-1.8
		L236.4,403.8L236.4,403.8z M362.1,392.4v10.2h-27.5v81.9h-15.1v-81.9H292v-10.2H362.1L362.1,392.4z"/>
	<path class="st2" d="M361.1,274.3H141.7V128h219.4V274.3z M160,256h182.9V146.3H160V256z"/>
	<path class="st2" d="M187.4,320c-5,0-9.1-4.1-9.1-9.1c0-1.7,0.5-3.3,1.3-4.7l27.4-45.7c2.6-4.3,8.2-5.7,12.5-3.1
		c4.3,2.6,5.7,8.2,3.1,12.5l0,0l-27.4,45.7C193.6,318.3,190.6,320,187.4,320z M315.4,320c-3.2,0-6.2-1.7-7.8-4.4l-27.4-45.7
		c-2.6-4.3-1.2-9.9,3.1-12.5c4.3-2.6,9.9-1.2,12.5,3.1l0,0l27.4,45.7c2.6,4.3,1.2,9.9-3.1,12.5C318.7,319.5,317.1,320,315.4,320z
		 M251.4,146.3c-5,0-9.1-4.1-9.1-9.1v-27.4c0-5,4.1-9.1,9.1-9.1c5,0,9.1,4.1,9.1,9.1v27.4C260.6,142.2,256.5,146.3,251.4,146.3z"/>
	<path class="st4" d="M160,146.3h182.9V256H160V146.3z"/>
</g>
</svg>
