<svg xmlns="http://www.w3.org/2000/svg" version="1.1" xmlns:xlink="http://www.w3.org/1999/xlink" width="512" height="512" x="0" y="0" viewBox="0 0 512 512" style="enable-background:new 0 0 512 512" xml:space="preserve" class=""><g><path fill="#dfeaef" d="M490.603 161.395v313.303H21.405V161.395c0-16.091 13.052-29.143 29.154-29.143H461.45c16.101 0 29.153 13.052 29.153 29.143z" opacity="1" data-original="#dfeaef"></path><path fill="#b4d0d5" d="M21.405 428.166h469.198v46.532H21.405z" opacity="1" data-original="#b4d0d5"></path><path fill="#6ec17d" d="M454.546 168.306v242.333H57.462V168.306z" opacity="1" data-original="#6ec17d"></path><path fill="#dfeaef" d="M512 446.695H.009v17.124c0 23.407 18.975 42.382 42.382 42.382h427.227c23.407 0 42.382-18.975 42.382-42.382z" opacity="1" data-original="#dfeaef"></path><path fill="#b4d0d5" d="M283.77 476.448h-55.531c-15.95 0-28.881-12.93-28.881-28.881v-.872H312.65v.872c0 15.951-12.93 28.881-28.88 28.881zM88.707 506.201H42.391C18.976 506.201 0 487.226 0 463.82v-17.121h46.316v17.121c0 23.406 18.976 42.381 42.391 42.381z" opacity="1" data-original="#b4d0d5"></path><path fill="#665e66" d="M369.889 161.653v43.524c0 25.991-15.525 49.592-39.538 59.564-47.532 19.759-101.162 19.759-148.694 0-24.013-9.972-39.538-33.573-39.538-59.564v-43.524z" opacity="1" data-original="#665e66"></path><path fill="#454045" d="M285.854 277.251c-34.943 5.439-71.05 1.278-104.201-12.506-24.013-9.972-39.538-33.573-39.538-59.564v-43.524h59.698v43.524c0 25.991 15.525 49.592 39.538 59.564a192.713 192.713 0 0 0 44.503 12.506z" opacity="1" data-original="#454045"></path><path fill="#454045" d="M369.889 161.653v17.451L276.67 228.49a44.187 44.187 0 0 1-41.33 0l-93.219-49.386v-17.451z" opacity="1" data-original="#454045"></path><path fill="#665e66" d="M426.07 90.08 276.667 10.934a44.137 44.137 0 0 0-41.325 0L85.939 90.08c-16.777 8.887-16.777 32.922 0 41.809l149.403 79.147a44.137 44.137 0 0 0 41.325 0l149.403-79.147c16.777-8.887 16.777-32.921 0-41.809z" opacity="1" data-original="#665e66"></path><path fill="#eab14d" d="M322.466 295.656a6.182 6.182 0 0 1-6.181-6.181V189.1l-64.928-74.04a6.182 6.182 0 0 1 9.295-8.151l66.462 75.789a6.186 6.186 0 0 1 1.534 4.075v102.701a6.182 6.182 0 0 1-6.182 6.182z" opacity="1" data-original="#eab14d"></path><path fill="#f4dd45" d="m313.682 290.883-12.381 21.444c-7.638 13.229 1.909 29.765 17.185 29.765h7.96c15.275 0 24.822-16.536 17.185-29.765l-12.381-21.444c-3.904-6.762-13.664-6.762-17.568 0z" opacity="1" data-original="#f4dd45"></path><g fill="#665e66"><path d="M250.615 382.313H95.94a7.726 7.726 0 1 1 0-15.452h154.674a7.726 7.726 0 0 1 .001 15.452zM199.358 349.818H95.94a7.726 7.726 0 1 1 0-15.452h103.418a7.726 7.726 0 1 1 0 15.452z" fill="#665e66" opacity="1" data-original="#665e66"></path></g></g></svg>