<?xml version="1.0" encoding="utf-8"?>
<!-- Generator: Adobe Illustrator 26.5.0, SVG Export Plug-In . SVG Version: 6.00 Build 0)  -->
<svg version="1.1" id="Layer_1" xmlns="http://www.w3.org/2000/svg" xmlns:xlink="http://www.w3.org/1999/xlink" x="0px" y="0px"
	 viewBox="0 0 512 512" style="enable-background:new 0 0 512 512;" xml:space="preserve">
<style type="text/css">
	.st0{fill:#8DB9FF;}
	.st1{fill:#70ABF2;}
	.st2{fill:#FF7E7B;}
	.st3{fill:#FF6464;}
	.st4{fill:#FFE177;}
	.st5{fill:#FFD15B;}
	.st6{fill:#FFFFFF;}
	.st7{fill:#554E56;}
	.st8{fill:#7A6D79;}
	.st9{fill:#685E68;}
	.st10{fill:#00F2A6;}
	.st11{fill:#05E39C;}
</style>
<g>
	<path class="st0" d="M407.9,111.2H171c-9.4,0-17.1-7.7-17.1-17.1v-77C153.9,7.7,161.6,0,171,0h236.9c9.4,0,17.1,7.7,17.1,17.1v77
		C425,103.5,417.3,111.2,407.9,111.2L407.9,111.2z"/>
	<path class="st1" d="M188.1,94.1v-77c0-9.4,7.7-17.1,17.1-17.1H171c-9.4,0-17.1,7.7-17.1,17.1v77c0,9.4,7.7,17.1,17.1,17.1h34.2
		C195.8,111.2,188.1,103.5,188.1,94.1z"/>
	<path class="st2" d="M407.9,268.1H171c-9.4,0-17.1-7.7-17.1-17.1v-77c0-9.4,7.7-17.1,17.1-17.1h236.9c9.4,0,17.1,7.7,17.1,17.1v77
		C425,260.4,417.3,268.1,407.9,268.1z"/>
	<path class="st3" d="M188.1,251v-77c0-9.4,7.7-17.1,17.1-17.1H171c-9.4,0-17.1,7.7-17.1,17.1v77c0,9.4,7.7,17.1,17.1,17.1h34.2
		C195.8,268.1,188.1,260.4,188.1,251z"/>
	<path class="st4" d="M407.9,425H171c-9.4,0-17.1-7.7-17.1-17.1v-77c0-9.4,7.7-17.1,17.1-17.1h236.9c9.4,0,17.1,7.7,17.1,17.1v77
		C425,417.3,417.3,425,407.9,425z"/>
	<path class="st5" d="M188.1,407.9v-77c0-9.4,7.7-17.1,17.1-17.1H171c-9.4,0-17.1,7.7-17.1,17.1v77c0,9.4,7.7,17.1,17.1,17.1h34.2
		C195.8,425,188.1,417.3,188.1,407.9z"/>
	<path class="st0" d="M94.1,0h-77C7.7,0,0,7.7,0,17.1v77c0,9.4,7.7,17.1,17.1,17.1h77c9.4,0,17.1-7.7,17.1-17.1v-77
		C111.2,7.7,103.5,0,94.1,0z M85.5,85.5H25.7V25.7h59.9V85.5z"/>
	<path class="st2" d="M94.1,156.9h-77C7.7,156.9,0,164.6,0,174v77c0,9.4,7.7,17.1,17.1,17.1h77c9.4,0,17.1-7.7,17.1-17.1v-77
		C111.2,164.6,103.5,156.9,94.1,156.9z M85.5,242.4H25.7v-59.9h59.9V242.4z"/>
	<path class="st4" d="M94.1,313.8h-77c-9.4,0-17.1,7.7-17.1,17.1v77c0,9.4,7.7,17.1,17.1,17.1h77c9.4,0,17.1-7.7,17.1-17.1v-77
		C111.2,321.5,103.5,313.8,94.1,313.8z M85.5,399.3H25.7v-59.9h59.9V399.3z"/>
	<g>
		<path class="st6" d="M386.3,40.4H192.5c-3.4,0-6.2-2.8-6.2-6.2s2.8-6.2,6.2-6.2h193.8c3.4,0,6.2,2.8,6.2,6.2
			S389.8,40.4,386.3,40.4z M289.4,83.2h-96.9c-3.4,0-6.2-2.8-6.2-6.2s2.8-6.2,6.2-6.2h96.9c3.4,0,6.2,2.8,6.2,6.2
			S292.9,83.2,289.4,83.2z M386.3,197.3H192.5c-3.4,0-6.2-2.8-6.2-6.2c0-3.4,2.8-6.2,6.2-6.2h193.8c3.4,0,6.2,2.8,6.2,6.2
			C392.6,194.5,389.8,197.3,386.3,197.3z M289.4,240.1h-96.9c-3.4,0-6.2-2.8-6.2-6.2c0-3.4,2.8-6.2,6.2-6.2h96.9
			c3.4,0,6.2,2.8,6.2,6.2C295.7,237.3,292.9,240.1,289.4,240.1z M386.3,354.2H192.5c-3.4,0-6.2-2.8-6.2-6.2s2.8-6.2,6.2-6.2h193.8
			c3.4,0,6.2,2.8,6.2,6.2S389.8,354.2,386.3,354.2z M289.4,397h-96.9c-3.4,0-6.2-2.8-6.2-6.2c0-3.4,2.8-6.2,6.2-6.2h96.9
			c3.4,0,6.2,2.8,6.2,6.2C295.7,394.2,292.9,397,289.4,397z"/>
	</g>
</g>
<g>
	<path class="st7" d="M343.3,298h8.2v-20.6c0-5.1-4.2-9.3-9.3-9.3c-5.1,0-9.3,4.2-9.3,9.3V299C336.3,298.4,339.8,298,343.3,298z
		 M420.3,298c3.6,0,7.1,0.3,10.5,1v-21.6c0-5.1-4.2-9.3-9.3-9.3c-5.1,0-9.3,4.2-9.3,9.3V298H420.3z"/>
	<path class="st8" d="M420.3,481.4h-77c-32.2,0-58.2-26.1-58.2-58.2V355c0-32.2,26.1-58.2,58.2-58.2h77c32.2,0,58.2,26.1,58.2,58.2
		v68.2C478.6,455.4,452.5,481.4,420.3,481.4z"/>
	<path class="st9" d="M441,300.6v119.2c0,14.1-11.5,25.6-25.6,25.6H289.5c8.7,21.2,29.6,36.1,53.9,36.1h77
		c32.2,0,58.2-26.1,58.2-58.2V355C478.6,330.1,462.9,308.9,441,300.6z"/>
	<path class="st10" d="M329.1,395.4v-37.2c0-9.7,7.8-17.5,17.5-17.5h70.6c9.7,0,17.5,7.8,17.5,17.5v37.2c0,9.7-7.8,17.5-17.5,17.5
		h-70.6C336.9,412.8,329.1,405,329.1,395.4z"/>
	<path class="st11" d="M417.1,340.7h-10.7V367c0,9.7-7.8,17.5-17.5,17.5h-59.9v10.9c0,9.7,7.8,17.5,17.5,17.5h70.6
		c9.7,0,17.5-7.8,17.5-17.5v-37.2C434.6,348.6,426.8,340.7,417.1,340.7L417.1,340.7z"/>
	<path class="st6" d="M364.9,386.8c-5.1,0-9.3-4.2-9.3-9.3c0,0,0,0,0,0V376c0-5.1,4.2-9.3,9.3-9.3c5.1,0,9.3,4.2,9.3,9.3v1.5
		C374.3,382.7,370.1,386.8,364.9,386.8z M398.7,386.8c-5.1,0-9.3-4.2-9.3-9.3c0,0,0,0,0,0V376c0-5.1,4.2-9.3,9.3-9.3
		c5.1,0,9.3,4.2,9.3,9.3v1.5C408,382.7,403.8,386.8,398.7,386.8z"/>
</g>
</svg>
