<svg xmlns="http://www.w3.org/2000/svg" version="1.1" xmlns:xlink="http://www.w3.org/1999/xlink" width="512" height="512" x="0" y="0" viewBox="0 0 512 512" style="enable-background:new 0 0 512 512" xml:space="preserve" class=""><g><path fill="#38336b" d="M275 457h-15v30c0 8.284 6.716 15 15 15s15-6.716 15-15v-30z" opacity="1" data-original="#38336b" class=""></path><path fill="#ffd45b" d="m333.287 5.63-80 100C245.43 115.451 252.422 130 265 130h25v7.752c0 112.601-72.142 211.036-179.517 244.944C94.126 387.862 97.847 412 115 412c76.126 0 147.696-29.646 201.525-83.475A288.952 288.952 0 0 0 345 295.376l20-147.688L345 0c-4.355 0-8.711 1.876-11.713 5.63z" opacity="1" data-original="#ffd45b" class=""></path><path fill="#ffad5a" d="m436.713 105.63-80-100C353.711 1.876 349.355 0 345 0v295.376c35.121-47.762 54.368-105.074 54.984-165.376H425c12.577 0 19.57-14.549 11.713-24.37z" opacity="1" data-original="#ffad5a" class=""></path><circle cx="405" cy="297" r="15" fill="#a061e2" opacity="1" data-original="#a061e2"></circle><circle cx="435" cy="227" r="15" fill="#a061e2" opacity="1" data-original="#a061e2"></circle><circle cx="475" cy="287" r="15" fill="#a061e2" opacity="1" data-original="#a061e2"></circle><circle cx="435" cy="357" r="15" fill="#a061e2" opacity="1" data-original="#a061e2"></circle><circle cx="355" cy="367" r="15" fill="#a061e2" opacity="1" data-original="#a061e2"></circle><circle cx="165" cy="197" r="15" fill="#dd78ef" opacity="1" data-original="#dd78ef" class=""></circle><circle cx="195" cy="127" r="15" fill="#dd78ef" opacity="1" data-original="#dd78ef" class=""></circle><circle cx="235" cy="187" r="15" fill="#dd78ef" opacity="1" data-original="#dd78ef" class=""></circle><circle cx="195" cy="257" r="15" fill="#dd78ef" opacity="1" data-original="#dd78ef" class=""></circle><circle cx="115" cy="267" r="15" fill="#dd78ef" opacity="1" data-original="#dd78ef" class=""></circle><g fill="#38336b"><path d="M25 102c-8.284 0-15 6.716-15 15s6.716 15 15 15h30v-30zM10 177c0 8.284 6.716 15 15 15h30v-30H25c-8.284 0-15 6.716-15 15zM10 237c0 8.284 6.716 15 15 15h30v-30H25c-8.284 0-15 6.716-15 15zM10 297c0 8.284 6.716 15 15 15h30v-30H25c-8.284 0-15 6.716-15 15zM10 357c0 8.284 6.716 15 15 15h30v-30H25c-8.284 0-15 6.716-15 15zM10 417c0 8.284 6.716 15 15 15h30v-30H25c-8.284 0-15 6.716-15 15zM380 457v30c0 8.284 6.716 15 15 15s15-6.716 15-15v-30zM320 487c0 8.284 6.716 15 15 15s15-6.716 15-15v-30h-30zM200 487c0 8.284 6.716 15 15 15s15-6.716 15-15v-30h-30zM140 487c0 8.284 6.716 15 15 15s15-6.716 15-15v-30h-30zM80 487c0 8.284 6.716 15 15 15s15-6.716 15-15v-30H80z" fill="#38336b" opacity="1" data-original="#38336b" class=""></path></g><path fill="#49658c" d="m507.607 446.394-40-40c-5.858-5.858-15.355-5.858-21.213 0s-5.858 15.355 0 21.213L460.787 442H70V51.213l14.394 14.394c5.858 5.858 15.355 5.858 21.213 0 5.858-5.858 5.858-15.355 0-21.213l-40-40c-5.858-5.858-15.355-5.858-21.213 0l-40 40c-5.858 5.858-5.858 15.355 0 21.213 5.858 5.858 15.355 5.858 21.213 0L40 51.213V457c0 8.284 6.716 15 15 15h405.788l-14.394 14.394c-5.858 5.858-5.858 15.355 0 21.213s15.355 5.858 21.213 0l40-40c5.857-5.858 5.857-15.356 0-21.213z" opacity="1" data-original="#49658c" class=""></path></g></svg>