<?xml version="1.0" encoding="utf-8"?>
<!-- Generator: Adobe Illustrator 26.5.0, SVG Export Plug-In . SVG Version: 6.00 Build 0)  -->
<svg version="1.1" id="Layer_1" xmlns="http://www.w3.org/2000/svg" xmlns:xlink="http://www.w3.org/1999/xlink" x="0px" y="0px"
	 viewBox="0 0 512 512" style="enable-background:new 0 0 512 512;" xml:space="preserve">
<style type="text/css">
	.st0{fill:#8DB9FF;}
	.st1{fill:#70ABF2;}
	.st2{fill:#FF7E7B;}
	.st3{fill:#FF6464;}
	.st4{fill:#FFE177;}
	.st5{fill:#FFD15B;}
	.st6{fill:#FFFFFF;}
	.st7{fill:url(#SVGID_1_);}
	.st8{fill:url(#SVGID_00000092430192161755333460000014298015069102521219_);}
	.st9{fill:url(#SVGID_00000005260990788321475350000018217059995639838128_);}
	.st10{fill:url(#SVGID_00000176740126450262175280000004249845612790900124_);}
	.st11{fill:url(#SVGID_00000041978552001263211920000006244740334225173918_);}
	.st12{fill:url(#SVGID_00000055681634350194450580000016255037780584144060_);}
	.st13{fill:url(#SVGID_00000069379346499890252740000001419572617718832016_);}
</style>
<g>
	<path class="st0" d="M407.9,111.2H171c-9.4,0-17.1-7.7-17.1-17.1v-77C153.9,7.7,161.6,0,171,0h236.9c9.4,0,17.1,7.7,17.1,17.1v77
		C425,103.5,417.3,111.2,407.9,111.2L407.9,111.2z"/>
	<path class="st1" d="M188.1,94.1v-77c0-9.4,7.7-17.1,17.1-17.1H171c-9.4,0-17.1,7.7-17.1,17.1v77c0,9.4,7.7,17.1,17.1,17.1h34.2
		C195.8,111.2,188.1,103.5,188.1,94.1z"/>
	<path class="st2" d="M407.9,268.1H171c-9.4,0-17.1-7.7-17.1-17.1v-77c0-9.4,7.7-17.1,17.1-17.1h236.9c9.4,0,17.1,7.7,17.1,17.1v77
		C425,260.4,417.3,268.1,407.9,268.1z"/>
	<path class="st3" d="M188.1,251v-77c0-9.4,7.7-17.1,17.1-17.1H171c-9.4,0-17.1,7.7-17.1,17.1v77c0,9.4,7.7,17.1,17.1,17.1h34.2
		C195.8,268.1,188.1,260.4,188.1,251z"/>
	<path class="st4" d="M407.9,425H171c-9.4,0-17.1-7.7-17.1-17.1v-77c0-9.4,7.7-17.1,17.1-17.1h236.9c9.4,0,17.1,7.7,17.1,17.1v77
		C425,417.3,417.3,425,407.9,425z"/>
	<path class="st5" d="M188.1,407.9v-77c0-9.4,7.7-17.1,17.1-17.1H171c-9.4,0-17.1,7.7-17.1,17.1v77c0,9.4,7.7,17.1,17.1,17.1h34.2
		C195.8,425,188.1,417.3,188.1,407.9z"/>
	<path class="st0" d="M94.1,0h-77C7.7,0,0,7.7,0,17.1v77c0,9.4,7.7,17.1,17.1,17.1h77c9.4,0,17.1-7.7,17.1-17.1v-77
		C111.2,7.7,103.5,0,94.1,0z M85.5,85.5H25.7V25.7h59.9v59.8H85.5z"/>
	<path class="st2" d="M94.1,156.9h-77C7.7,156.9,0,164.6,0,174v77c0,9.4,7.7,17.1,17.1,17.1h77c9.4,0,17.1-7.7,17.1-17.1v-77
		C111.2,164.6,103.5,156.9,94.1,156.9z M85.5,242.4H25.7v-59.9h59.9v59.9H85.5z"/>
	<path class="st4" d="M94.1,313.8h-77c-9.4,0-17.1,7.7-17.1,17.1v77c0,9.4,7.7,17.1,17.1,17.1h77c9.4,0,17.1-7.7,17.1-17.1v-77
		C111.2,321.5,103.5,313.8,94.1,313.8z M85.5,399.3H25.7v-59.9h59.9v59.9H85.5z"/>
	<g>
		<path class="st6" d="M386.3,40.4H192.5c-3.4,0-6.2-2.8-6.2-6.2s2.8-6.2,6.2-6.2h193.8c3.4,0,6.2,2.8,6.2,6.2
			S389.8,40.4,386.3,40.4z M289.4,83.2h-96.9c-3.4,0-6.2-2.8-6.2-6.2s2.8-6.2,6.2-6.2h96.9c3.4,0,6.2,2.8,6.2,6.2
			S292.9,83.2,289.4,83.2z M386.3,197.3H192.5c-3.4,0-6.2-2.8-6.2-6.2s2.8-6.2,6.2-6.2h193.8c3.4,0,6.2,2.8,6.2,6.2
			C392.6,194.5,389.8,197.3,386.3,197.3z M289.4,240.1h-96.9c-3.4,0-6.2-2.8-6.2-6.2s2.8-6.2,6.2-6.2h96.9c3.4,0,6.2,2.8,6.2,6.2
			C295.7,237.3,292.9,240.1,289.4,240.1z M386.3,354.2H192.5c-3.4,0-6.2-2.8-6.2-6.2s2.8-6.2,6.2-6.2h193.8c3.4,0,6.2,2.8,6.2,6.2
			S389.8,354.2,386.3,354.2z M289.4,397h-96.9c-3.4,0-6.2-2.8-6.2-6.2c0-3.4,2.8-6.2,6.2-6.2h96.9c3.4,0,6.2,2.8,6.2,6.2
			C295.7,394.2,292.9,397,289.4,397z"/>
	</g>
</g>
<g>
	
		<linearGradient id="SVGID_1_" gradientUnits="userSpaceOnUse" x1="87.4753" y1="145.694" x2="87.4753" y2="39.6898" gradientTransform="matrix(1 0 0 -1 0 514)">
		<stop  offset="0" style="stop-color:#2DA3FF"/>
		<stop  offset="1" style="stop-color:#146AFF"/>
	</linearGradient>
	<path class="st7" d="M67.8,453.2c-5.5,0-9.4-2.7-11.6-8l-16-38.6c-1.6-3.6-1.6-6.7-0.1-9.3c1.5-2.7,4.3-4,8.6-4
		c2.4,0,4.4,0.6,5.9,1.8c1.6,1.1,3,3.3,4.3,6.6l10,26.2l10.7-28.4c1.6-4.1,4.4-6.1,8.5-6.1c2.3,0,4.1,0.5,5.4,1.5
		c1.3,1,2.4,2.5,3.2,4.6l10.8,29l10.3-27.5c1.1-2.9,2.5-4.9,4.2-6c1.7-1.1,3.6-1.6,5.5-1.6c4,0,6.6,1.4,7.7,4.1
		c1.2,2.7,1,5.8-0.5,9.3l-15.8,38.4c-2.3,5.4-6.1,8.1-11.5,8.1c-5.6,0-9.4-2.7-11.6-8.1l-8.5-21.4l-8.1,21.1
		C77,450.4,73.2,453.2,67.8,453.2z"/>
	
		<linearGradient id="SVGID_00000062150755840834124740000004395076007732309669_" gradientUnits="userSpaceOnUse" x1="172.2657" y1="145.694" x2="172.2657" y2="39.6898" gradientTransform="matrix(1 0 0 -1 0 514)">
		<stop  offset="0" style="stop-color:#2DA3FF"/>
		<stop  offset="1" style="stop-color:#146AFF"/>
	</linearGradient>
	<path style="fill:url(#SVGID_00000062150755840834124740000004395076007732309669_);" d="M172.3,453.4c-6.4,0-12-1.2-16.8-3.6
		c-4.8-2.4-8.5-5.9-11.2-10.4c-2.7-4.5-4-9.9-4-16.1c0-6.3,1.3-11.6,4-16.1c2.7-4.5,6.4-8,11.2-10.4c4.8-2.4,10.4-3.6,16.8-3.6
		c6.4,0,12,1.2,16.8,3.6c4.8,2.4,8.5,5.9,11,10.4c2.7,4.5,4,9.8,4,16.1c0,6.2-1.3,11.5-4,16.1c-2.6,4.5-6.3,8-11,10.4
		C184.3,452.2,178.7,453.4,172.3,453.4z M172.3,438c3.1,0,5.7-1.2,7.7-3.5c2-2.3,3.1-6.1,3.1-11.3c0-5.2-1-9-3.1-11.3
		c-2-2.3-4.6-3.5-7.7-3.5c-3.2,0-5.8,1.2-7.9,3.5c-2,2.3-3.1,6-3.1,11.3c0,5.2,1,8.9,3.1,11.3C166.5,436.9,169.1,438,172.3,438z"/>
	
		<linearGradient id="SVGID_00000083078615225930903470000003047746782852795541_" gradientUnits="userSpaceOnUse" x1="242.8836" y1="145.694" x2="242.8836" y2="39.6898" gradientTransform="matrix(1 0 0 -1 0 514)">
		<stop  offset="0" style="stop-color:#2DA3FF"/>
		<stop  offset="1" style="stop-color:#146AFF"/>
	</linearGradient>
	<path style="fill:url(#SVGID_00000083078615225930903470000003047746782852795541_);" d="M242.9,453.4c-6.4,0-12-1.2-16.8-3.6
		c-4.8-2.4-8.5-5.9-11.2-10.4c-2.7-4.5-4-9.9-4-16.1c0-6.3,1.3-11.6,4-16.1c2.7-4.5,6.4-8,11.2-10.4c4.8-2.4,10.4-3.6,16.8-3.6
		c6.4,0,12,1.2,16.8,3.6c4.8,2.4,8.5,5.9,11,10.4c2.7,4.5,4,9.8,4,16.1c0,6.2-1.3,11.5-4,16.1c-2.6,4.5-6.3,8-11,10.4
		C255,452.2,249.4,453.4,242.9,453.4z M242.9,438c3.1,0,5.7-1.2,7.7-3.5c2-2.3,3.1-6.1,3.1-11.3c0-5.2-1-9-3.1-11.3
		c-2-2.3-4.6-3.5-7.7-3.5c-3.2,0-5.8,1.2-7.9,3.5c-2,2.3-3.1,6-3.1,11.3c0,5.2,1,8.9,3.1,11.3C237.1,436.9,239.7,438,242.9,438z"/>
	
		<linearGradient id="SVGID_00000042013688161981024250000013920310440329379996_" gradientUnits="userSpaceOnUse" x1="307.5933" y1="145.694" x2="307.5933" y2="39.6898" gradientTransform="matrix(1 0 0 -1 0 514)">
		<stop  offset="0" style="stop-color:#2DA3FF"/>
		<stop  offset="1" style="stop-color:#146AFF"/>
	</linearGradient>
	<path style="fill:url(#SVGID_00000042013688161981024250000013920310440329379996_);" d="M313.8,453.4c-6.5,0-12.2-1.2-17-3.6
		c-4.8-2.4-8.5-5.9-11.2-10.4c-2.7-4.5-4-9.9-4-16.2c0-6.3,1.3-11.6,4-16.1c2.7-4.5,6.4-8,11.2-10.3c4.9-2.4,10.5-3.6,17-3.6
		c2.3,0,4.7,0.2,7.2,0.7c2.5,0.4,5.1,1.2,7.7,2.3c1.8,0.7,3.1,1.8,3.9,3.3c0.8,1.4,1.1,2.9,0.9,4.6c-0.1,1.6-0.5,3.1-1.4,4.5
		c-0.8,1.3-1.9,2.2-3.4,2.7c-1.4,0.5-3,0.3-4.8-0.6c-2.6-1.2-5.2-1.8-7.9-1.8c-4.1,0-7.4,1.3-9.6,3.8c-2.3,2.5-3.4,6-3.4,10.6
		c0,4.6,1.1,8.2,3.4,10.8c2.3,2.5,5.5,3.8,9.6,3.8c1.3,0,2.5-0.1,3.9-0.4c1.3-0.3,2.7-0.8,4-1.4c1.9-0.9,3.5-1,4.8-0.5
		c1.4,0.5,2.5,1.4,3.3,2.7c0.9,1.3,1.3,2.7,1.4,4.3c0.2,1.6-0.2,3.2-0.9,4.7c-0.8,1.4-2.1,2.5-4,3.2c-2.7,1.2-5.2,2-7.6,2.3
		C318.4,453.2,316.1,453.4,313.8,453.4z"/>
	
		<linearGradient id="SVGID_00000106109320913784945120000002650919925218263945_" gradientUnits="userSpaceOnUse" x1="358.507" y1="145.694" x2="358.507" y2="39.6898" gradientTransform="matrix(1 0 0 -1 0 514)">
		<stop  offset="0" style="stop-color:#2DA3FF"/>
		<stop  offset="1" style="stop-color:#146AFF"/>
	</linearGradient>
	<path style="fill:url(#SVGID_00000106109320913784945120000002650919925218263945_);" d="M363.1,453.4c-7.6,0-13.1-2-16.7-6
		c-3.5-4.1-5.3-10.2-5.3-18.3v-50.2c0-7,3.4-10.6,10.3-10.6c3.4,0,5.9,0.9,7.7,2.7c1.9,1.8,2.8,4.4,2.8,7.9v49.5
		c0,2.9,0.5,5,1.6,6.3c1.2,1.3,2.7,2,4.5,2c0.5,0,1.1,0,1.6-0.1c0.6-0.2,1.3-0.3,2-0.4c1.4,0,2.4,0.5,3.1,1.5c0.6,1,0.9,3.1,0.9,6.2
		c0,2.7-0.5,4.8-1.6,6.2c-1.1,1.3-2.8,2.2-5,2.6c-0.6,0.2-1.5,0.3-2.7,0.4C365.3,453.3,364.2,453.4,363.1,453.4z"/>
	
		<linearGradient id="SVGID_00000015318397112277662330000016319150369611848866_" gradientUnits="userSpaceOnUse" x1="408.1232" y1="145.694" x2="408.1232" y2="39.6898" gradientTransform="matrix(1 0 0 -1 0 514)">
		<stop  offset="0" style="stop-color:#2DA3FF"/>
		<stop  offset="1" style="stop-color:#146AFF"/>
	</linearGradient>
	<path style="fill:url(#SVGID_00000015318397112277662330000016319150369611848866_);" d="M402.1,453.4c-4.5,0-8.4-0.8-11.9-2.5
		c-3.4-1.6-6-3.9-8-6.7c-1.9-2.9-2.8-6.2-2.8-9.9c0-4.1,1.1-7.4,3.3-9.9c2.2-2.5,5.7-4.3,10.6-5.3c4.9-1.1,11.3-1.6,19.4-1.6h4.5
		V416c0-2.8-0.7-4.8-2.2-6c-1.4-1.2-3.9-1.8-7.4-1.8c-2,0-4.1,0.2-6.5,0.7c-2.3,0.4-4.9,1.1-7.7,2.2c-2.6,0.9-4.7,0.9-6.5-0.1
		c-1.7-1-2.9-2.5-3.4-4.3c-0.5-2-0.3-3.9,0.6-5.8c0.9-2,2.7-3.4,5.3-4.3c3.8-1.3,7.2-2.2,10.3-2.7c3.2-0.5,6.1-0.8,8.8-0.8
		c9.6,0,16.7,2.1,21.4,6.2c4.7,4.1,7,10.7,7,19.6v23.7c0,7-3.2,10.6-9.6,10.6c-6.1,0-9.4-3.1-9.7-9.4c-1.1,3-3,5.3-5.6,7
		C409.2,452.6,405.9,453.4,402.1,453.4z M406.8,439.8c2.9,0,5.3-0.9,7.3-2.8c2-1.9,3.1-4.3,3.1-7.4v-2.1h-4.5c-4.6,0-8,0.5-10.2,1.5
		c-2.1,0.9-3.2,2.5-3.2,4.6c0,1.8,0.6,3.3,1.9,4.5C402.5,439.2,404.3,439.8,406.8,439.8z"/>
	
		<linearGradient id="SVGID_00000107590025502159113450000006127416681225311127_" gradientUnits="userSpaceOnUse" x1="480.3621" y1="145.694" x2="480.3621" y2="39.6898" gradientTransform="matrix(1 0 0 -1 0 514)">
		<stop  offset="0" style="stop-color:#2DA3FF"/>
		<stop  offset="1" style="stop-color:#146AFF"/>
	</linearGradient>
	<path style="fill:url(#SVGID_00000107590025502159113450000006127416681225311127_);" d="M459.1,474.3c-6.9,0-10.3-3.5-10.3-10.6
		v-60c0-7,3.4-10.4,10.2-10.4c6.2,0,9.6,2.9,10.2,8.7c1.6-2.7,3.9-4.9,7-6.5c3.2-1.6,6.7-2.5,10.6-2.5c4.9,0,9.3,1.2,13,3.6
		c3.8,2.4,6.8,5.9,8.9,10.4c2.2,4.5,3.3,9.8,3.3,16.1c0,6.2-1.1,11.5-3.2,16.1c-2.1,4.5-5.1,8-8.9,10.4c-3.8,2.4-8.1,3.6-13.1,3.6
		c-3.6,0-7-0.7-10.1-2.2c-3.1-1.5-5.4-3.5-7-6v18.5c0,3.4-0.9,6.1-2.8,7.9C465,473.4,462.4,474.3,459.1,474.3z M480.2,438
		c3.1,0,5.7-1.2,7.7-3.5c2-2.3,3.1-6.1,3.1-11.3c0-5.2-1-9-3.1-11.3c-2-2.3-4.6-3.5-7.7-3.5c-3.2,0-5.8,1.2-7.9,3.5
		c-2,2.3-3.1,6-3.1,11.3c0,5.2,1,8.9,3.1,11.3C474.4,436.9,477,438,480.2,438z"/>
</g>
</svg>
