<svg width="102" height="23" viewBox="0 0 102 23" fill="none" xmlns="http://www.w3.org/2000/svg">
<path d="M6.64996 18.225C5.4833 18.225 4.6583 17.6584 4.17497 16.525L0.774965 8.30002C0.441632 7.53336 0.433298 6.87503 0.749965 6.32503C1.06663 5.75836 1.67497 5.47502 2.57497 5.47502C3.09163 5.47502 3.5083 5.60002 3.82497 5.85002C4.1583 6.08336 4.46663 6.55003 4.74997 7.25003L6.87496 12.825L9.14997 6.77503C9.4833 5.90836 10.0833 5.47502 10.95 5.47502C11.4333 5.47502 11.8166 5.58336 12.1 5.80002C12.3833 6.01669 12.6083 6.34169 12.775 6.77503L15.075 12.95L17.275 7.10003C17.5083 6.48336 17.8083 6.05836 18.175 5.82502C18.5416 5.59169 18.9333 5.47502 19.35 5.47502C20.2 5.47502 20.75 5.76669 21 6.35003C21.25 6.91669 21.2166 7.57502 20.9 8.32502L17.525 16.5C17.0416 17.65 16.225 18.225 15.075 18.225C13.8916 18.225 13.0666 17.65 12.6 16.5L10.8 11.95L9.07496 16.45C8.6083 17.6334 7.79996 18.225 6.64996 18.225Z" fill="url(#paint0_linear_417_2)"/>
<path d="M28.9117 18.275C27.545 18.275 26.3534 18.0167 25.3367 17.5C24.32 16.9834 23.5284 16.2417 22.9617 15.275C22.395 14.3084 22.1117 13.1667 22.1117 11.85C22.1117 10.5167 22.395 9.37503 22.9617 8.42502C23.5284 7.45836 24.32 6.71669 25.3367 6.20002C26.3534 5.68336 27.545 5.42502 28.9117 5.42502C30.2784 5.42502 31.47 5.68336 32.4867 6.20002C33.5034 6.71669 34.2867 7.45836 34.8367 8.42502C35.4034 9.37503 35.6867 10.5167 35.6867 11.85C35.6867 13.1667 35.4034 14.3084 34.8367 15.275C34.2867 16.2417 33.5034 16.9834 32.4867 17.5C31.47 18.0167 30.2784 18.275 28.9117 18.275ZM28.9117 15C29.5784 15 30.1284 14.75 30.5617 14.25C30.995 13.75 31.2117 12.95 31.2117 11.85C31.2117 10.7334 30.995 9.93336 30.5617 9.45003C30.1284 8.95003 29.5784 8.70002 28.9117 8.70002C28.2284 8.70002 27.67 8.95003 27.2367 9.45003C26.8034 9.93336 26.5867 10.7334 26.5867 11.85C26.5867 12.95 26.8034 13.75 27.2367 14.25C27.67 14.75 28.2284 15 28.9117 15Z" fill="url(#paint1_linear_417_2)"/>
<path d="M43.9507 18.275C42.5841 18.275 41.3924 18.0167 40.3757 17.5C39.3591 16.9834 38.5674 16.2417 38.0007 15.275C37.4341 14.3084 37.1507 13.1667 37.1507 11.85C37.1507 10.5167 37.4341 9.37503 38.0007 8.42502C38.5674 7.45836 39.3591 6.71669 40.3757 6.20002C41.3924 5.68336 42.5841 5.42502 43.9507 5.42502C45.3174 5.42502 46.5091 5.68336 47.5257 6.20002C48.5424 6.71669 49.3257 7.45836 49.8757 8.42502C50.4424 9.37503 50.7257 10.5167 50.7257 11.85C50.7257 13.1667 50.4424 14.3084 49.8757 15.275C49.3257 16.2417 48.5424 16.9834 47.5257 17.5C46.5091 18.0167 45.3174 18.275 43.9507 18.275ZM43.9507 15C44.6174 15 45.1674 14.75 45.6007 14.25C46.0341 13.75 46.2507 12.95 46.2507 11.85C46.2507 10.7334 46.0341 9.93336 45.6007 9.45003C45.1674 8.95003 44.6174 8.70002 43.9507 8.70002C43.2674 8.70002 42.7091 8.95003 42.2757 9.45003C41.8424 9.93336 41.6257 10.7334 41.6257 11.85C41.6257 12.95 41.8424 13.75 42.2757 14.25C42.7091 14.75 43.2674 15 43.9507 15Z" fill="url(#paint2_linear_417_2)"/>
<path d="M59.0398 18.275C57.6565 18.275 56.4481 18.0167 55.4148 17.5C54.3981 16.9834 53.6065 16.2417 53.0398 15.275C52.4731 14.3084 52.1898 13.1584 52.1898 11.825C52.1898 10.4917 52.4731 9.35003 53.0398 8.40003C53.6065 7.43336 54.3981 6.70002 55.4148 6.20002C56.4481 5.68336 57.6565 5.42502 59.0398 5.42502C59.5231 5.42502 60.0315 5.47502 60.5648 5.57502C61.0981 5.65836 61.6481 5.82502 62.2148 6.07502C62.5981 6.22502 62.8731 6.45836 63.0398 6.77503C63.2065 7.07503 63.2731 7.40003 63.2398 7.75003C63.2231 8.10003 63.1231 8.41669 62.9398 8.70002C62.7731 8.98336 62.5315 9.17503 62.2148 9.27503C61.9148 9.37503 61.5731 9.33336 61.1898 9.15003C60.6398 8.90003 60.0815 8.77503 59.5148 8.77503C58.6315 8.77503 57.9481 9.04169 57.4648 9.57502C56.9815 10.1084 56.7398 10.8584 56.7398 11.825C56.7398 12.8084 56.9815 13.575 57.4648 14.125C57.9481 14.6584 58.6315 14.925 59.5148 14.925C59.7815 14.925 60.0565 14.9 60.3398 14.85C60.6231 14.7834 60.9065 14.6834 61.1898 14.55C61.5898 14.3667 61.9315 14.3334 62.2148 14.45C62.5148 14.55 62.7481 14.7417 62.9148 15.025C63.0981 15.2917 63.1981 15.6 63.2148 15.95C63.2481 16.3 63.1815 16.6334 63.0148 16.95C62.8481 17.25 62.5648 17.475 62.1648 17.625C61.5981 17.875 61.0565 18.0417 60.5398 18.125C60.0231 18.225 59.5231 18.275 59.0398 18.275Z" fill="url(#paint3_linear_417_2)"/>
<path d="M69.5492 18.275C67.9325 18.275 66.7492 17.85 65.9992 17C65.2492 16.1334 64.8742 14.8334 64.8742 13.1V2.40003C64.8742 0.900025 65.6075 0.150024 67.0742 0.150024C67.7908 0.150024 68.3408 0.341691 68.7242 0.725024C69.1242 1.10836 69.3242 1.66669 69.3242 2.40003V12.95C69.3242 13.5667 69.4408 14.0167 69.6742 14.3C69.9242 14.5834 70.2409 14.725 70.6242 14.725C70.7409 14.725 70.8575 14.7167 70.9742 14.7C71.1075 14.6667 71.2492 14.6417 71.3992 14.625C71.6992 14.625 71.9158 14.7334 72.0492 14.95C72.1825 15.1667 72.2492 15.6084 72.2492 16.275C72.2492 16.8584 72.1325 17.3 71.8992 17.6C71.6658 17.8834 71.3075 18.0667 70.8242 18.15C70.6908 18.1834 70.4992 18.2084 70.2492 18.225C69.9992 18.2584 69.7658 18.275 69.5492 18.275Z" fill="url(#paint4_linear_417_2)"/>
<path d="M77.8406 18.275C76.8906 18.275 76.0489 18.1 75.3156 17.75C74.5989 17.4 74.0323 16.925 73.6156 16.325C73.2156 15.7084 73.0156 15.0084 73.0156 14.225C73.0156 13.3417 73.2489 12.6417 73.7156 12.125C74.1823 11.5917 74.9323 11.2167 75.9656 11C76.9989 10.7667 78.3739 10.65 80.0906 10.65H81.0406V10.3C81.0406 9.70003 80.8823 9.27503 80.5656 9.02503C80.2656 8.77503 79.7406 8.65003 78.9906 8.65003C78.5739 8.65003 78.1156 8.70003 77.6156 8.80002C77.1323 8.88336 76.5823 9.04169 75.9656 9.27503C75.4156 9.47503 74.9573 9.46669 74.5906 9.25003C74.2239 9.03336 73.9823 8.72502 73.8656 8.32502C73.7656 7.90836 73.8073 7.50003 73.9906 7.10003C74.1906 6.68336 74.5656 6.37502 75.1156 6.17502C75.9156 5.89169 76.6489 5.70003 77.3156 5.60003C77.9989 5.48336 78.6239 5.42502 79.1906 5.42502C81.2406 5.42502 82.7573 5.86669 83.7406 6.75003C84.7406 7.63336 85.2406 9.02503 85.2406 10.925V15.975C85.2406 17.475 84.5573 18.225 83.1906 18.225C81.8906 18.225 81.1989 17.5584 81.1156 16.225C80.8823 16.8584 80.4823 17.3584 79.9156 17.725C79.3489 18.0917 78.6573 18.275 77.8406 18.275ZM78.8406 15.375C79.4573 15.375 79.9739 15.175 80.3906 14.775C80.8239 14.375 81.0406 13.85 81.0406 13.2V12.75H80.0906C79.1073 12.75 78.3823 12.8584 77.9156 13.075C77.4656 13.275 77.2406 13.6 77.2406 14.05C77.2406 14.4334 77.3739 14.75 77.6406 15C77.9239 15.25 78.3239 15.375 78.8406 15.375Z" fill="url(#paint5_linear_417_2)"/>
<path d="M89.9746 22.725C88.5079 22.725 87.7746 21.975 87.7746 20.475V7.70002C87.7746 6.21669 88.4996 5.47502 89.9496 5.47502C91.2662 5.47502 91.9912 6.09169 92.1246 7.32502C92.4579 6.74169 92.9579 6.28336 93.6246 5.95002C94.3079 5.60002 95.0579 5.42502 95.8746 5.42502C96.9246 5.42502 97.8496 5.68336 98.6496 6.20002C99.4662 6.71669 100.1 7.45836 100.55 8.42502C101.016 9.37503 101.25 10.5167 101.25 11.85C101.25 13.1667 101.025 14.3084 100.575 15.275C100.125 16.2417 99.4912 16.9834 98.6746 17.5C97.8746 18.0167 96.9412 18.275 95.8746 18.275C95.1079 18.275 94.3912 18.1167 93.7246 17.8C93.0746 17.4834 92.5746 17.0584 92.2246 16.525V20.475C92.2246 21.2084 92.0246 21.7667 91.6246 22.15C91.2412 22.5334 90.6912 22.725 89.9746 22.725ZM94.4746 15C95.1412 15 95.6912 14.75 96.1246 14.25C96.5579 13.75 96.7746 12.95 96.7746 11.85C96.7746 10.7334 96.5579 9.93336 96.1246 9.45003C95.6912 8.95003 95.1412 8.70002 94.4746 8.70002C93.7912 8.70002 93.2329 8.95003 92.7996 9.45003C92.3662 9.93336 92.1496 10.7334 92.1496 11.85C92.1496 12.95 92.3662 13.75 92.7996 14.25C93.2329 14.75 93.7912 15 94.4746 15Z" fill="url(#paint6_linear_417_2)"/>
<defs>
<linearGradient id="paint0_linear_417_2" x1="0.518555" y1="0.150024" x2="0.518555" y2="22.725" gradientUnits="userSpaceOnUse">
<stop stop-color="#2DA3FF"/>
<stop offset="1" stop-color="#146AFF"/>
</linearGradient>
<linearGradient id="paint1_linear_417_2" x1="0.518555" y1="0.150024" x2="0.518555" y2="22.725" gradientUnits="userSpaceOnUse">
<stop stop-color="#2DA3FF"/>
<stop offset="1" stop-color="#146AFF"/>
</linearGradient>
<linearGradient id="paint2_linear_417_2" x1="0.518555" y1="0.150024" x2="0.518555" y2="22.725" gradientUnits="userSpaceOnUse">
<stop stop-color="#2DA3FF"/>
<stop offset="1" stop-color="#146AFF"/>
</linearGradient>
<linearGradient id="paint3_linear_417_2" x1="0.518555" y1="0.150024" x2="0.518555" y2="22.725" gradientUnits="userSpaceOnUse">
<stop stop-color="#2DA3FF"/>
<stop offset="1" stop-color="#146AFF"/>
</linearGradient>
<linearGradient id="paint4_linear_417_2" x1="0.518555" y1="0.150024" x2="0.518555" y2="22.725" gradientUnits="userSpaceOnUse">
<stop stop-color="#2DA3FF"/>
<stop offset="1" stop-color="#146AFF"/>
</linearGradient>
<linearGradient id="paint5_linear_417_2" x1="0.518555" y1="0.150024" x2="0.518555" y2="22.725" gradientUnits="userSpaceOnUse">
<stop stop-color="#2DA3FF"/>
<stop offset="1" stop-color="#146AFF"/>
</linearGradient>
<linearGradient id="paint6_linear_417_2" x1="0.518555" y1="0.150024" x2="0.518555" y2="22.725" gradientUnits="userSpaceOnUse">
<stop stop-color="#2DA3FF"/>
<stop offset="1" stop-color="#146AFF"/>
</linearGradient>
</defs>
</svg>
